<?xml version="1.0" encoding="UTF-8" standalone="no"?>
<svg
   width="363.44339"
   height="375.68854"
   viewBox="0 0 363.44339 375.68854"
   version="1.1"
   id="svg2"
   sodipodi:docname="Yi_logo_icon_dark.svg"
   inkscape:version="1.3 (0e150ed, 2023-07-21)"
   xmlns:inkscape="http://www.inkscape.org/namespaces/inkscape"
   xmlns:sodipodi="http://sodipodi.sourceforge.net/DTD/sodipodi-0.dtd"
   xmlns="http://www.w3.org/2000/svg"
   xmlns:svg="http://www.w3.org/2000/svg">
  <defs
     id="defs2" />
  <sodipodi:namedview
     id="namedview2"
     pagecolor="#ffffff"
     bordercolor="#000000"
     borderopacity="0.25"
     inkscape:showpageshadow="2"
     inkscape:pageopacity="0.0"
     inkscape:pagecheckerboard="0"
     inkscape:deskcolor="#d1d1d1"
     inkscape:zoom="1.1073359"
     inkscape:cx="192.35355"
     inkscape:cy="196.86889"
     inkscape:window-width="1512"
     inkscape:window-height="857"
     inkscape:window-x="0"
     inkscape:window-y="38"
     inkscape:window-maximized="1"
     inkscape:current-layer="svg2" />
  <rect
     x="287.14771"
     y="224.04056"
     width="42.3862"
     height="151.64799"
     rx="21.1931"
     id="rect1" />
  <path
     fill-rule="evenodd"
     clip-rule="evenodd"
     d="m 299.41969,17.362538 c -8.916,-7.5830004 -22.291,-6.503 -29.874,2.414 l -118.432,139.253002 c -3.056,3.593 -4.705,7.911 -5.001,12.281 -0.166,1.069 -0.252,2.164 -0.252,3.279 v 178.022 c 0,11.705 9.488,21.193 21.193,21.193 11.705,0 21.193,-9.488 21.193,-21.193 v -171.819 l 113.587,-133.556002 c 7.583,-8.916 6.502,-22.291 -2.414,-29.874 z"
     id="path1" />
  <rect
     x="-18.236605"
     y="8.6596518"
     width="42.3862"
     height="174.745"
     rx="21.1931"
     transform="rotate(-39.3441)"
     id="rect2" />
  <circle
     cx="337.54071"
     cy="163.28656"
     r="25.9027"
     id="circle2" />
</svg>
