<svg xmlns="http://www.w3.org/2000/svg" width="" height="" viewBox="0 0 60 15" fill="none"
    data-inject-url="http://127.0.0.1:8001/img/ai21.svg" class="icon-svg timestamp-icon">
    <g clip-path="url(#clip0--inject-2)">
        <path
            d="M16.6207 23.4327L15.7407 20.6609H7.62075L6.74035 23.4327H1.10132L9.25303 0.609131H14.1115L22.361 23.4327H16.6207ZM11.6987 7.12926L8.89437 16.52H14.4377L11.6987 7.12926Z"
            fill=""></path>
        <path d="M22.9893 0.609131H28.3367V23.4327H22.9893V0.609131Z" fill=""></path>
        <path
            d="M29.778 18.7697C30.0181 17.6428 30.4422 16.5632 31.0333 15.5743C31.5474 14.7385 32.1914 13.9901 32.941 13.357C33.7068 12.7218 34.5187 12.1443 35.37 11.6294C36.0436 11.2378 36.6685 10.8627 37.2449 10.5043C37.7764 10.178 38.2832 9.81296 38.7611 9.4121C39.1738 9.06912 39.5217 8.65497 39.7883 8.18927C40.0429 7.72502 40.1721 7.20247 40.1632 6.67309C40.1632 5.7602 39.9133 5.10266 39.4134 4.70047C38.8833 4.2885 38.2258 4.07506 37.5548 4.09717C36.7912 4.07408 36.0486 4.34892 35.4841 4.86356C34.9298 5.37448 34.6527 6.2277 34.6527 7.42323H29.4028C29.3934 6.43009 29.5762 5.44452 29.9411 4.52079C30.291 3.64199 30.831 2.85144 31.5222 2.20575C32.2584 1.52916 33.1235 1.00796 34.0657 0.673329C35.1756 0.285645 36.3455 0.0978785 37.5209 0.118755C38.5297 0.114098 39.5341 0.25135 40.5046 0.526479C41.4073 0.777025 42.2539 1.19757 42.999 1.76555C43.731 2.33806 44.3175 3.07539 44.7107 3.9175C45.1549 4.89419 45.3723 5.95876 45.3465 7.0314C45.3582 7.93876 45.1454 8.83495 44.7269 9.64014C44.3262 10.406 43.8154 11.109 43.2108 11.7268C42.6204 12.3291 41.9705 12.87 41.271 13.3411C40.5746 13.8087 39.9441 14.2054 39.3795 14.5311C38.5964 15.0529 37.9496 15.504 37.4394 15.8845C37.0016 16.2011 36.5925 16.5556 36.2169 16.9439C35.9359 17.2322 35.7191 17.5768 35.5808 17.9549C35.4549 18.3444 35.3943 18.752 35.4015 19.1612H45.1837V23.4326H29.3378C29.3099 21.8667 29.4575 20.3027 29.778 18.7697Z"
            fill=""></path>
        <path
            d="M46.1938 4.61724C47.1075 4.63586 48.0205 4.55382 48.9163 4.37261C49.5146 4.25901 50.0784 4.00788 50.5631 3.63905C50.952 3.31635 51.2358 2.88492 51.3782 2.39998C51.5411 1.81652 51.618 1.21237 51.6062 0.606689H56.2708V23.4327H50.891V8.33548H46.1938V4.61724Z"
            fill=""></path>
    </g>
    <defs>
        <clipPath id="clip0--inject-2">
            <rect width="117.818" height="24" fill="white" transform="translate(1.09106)"></rect>
        </clipPath>
    </defs>
</svg>
