<?xml version="1.0" encoding="UTF-8" standalone="no"?>
<!-- Created with Inkscape (http://www.inkscape.org/) -->

<svg width="47.403999mm" height="47.58918mm" viewBox="0 0 47.403999 47.58918" version="1.1" id="svg1" xml:space="preserve" inkscape:version="1.3 (0e150ed, 2023-07-21)" sodipodi:docname="cohere.svg"
    xmlns:inkscape="http://www.inkscape.org/namespaces/inkscape"
    xmlns:sodipodi="http://sodipodi.sourceforge.net/DTD/sodipodi-0.dtd"
    xmlns="http://www.w3.org/2000/svg"
    xmlns:svg="http://www.w3.org/2000/svg">
    <sodipodi:namedview id="namedview1" pagecolor="#ffffff" bordercolor="#000000" borderopacity="0.25" inkscape:showpageshadow="2" inkscape:pageopacity="0.0" inkscape:pagecheckerboard="0" inkscape:deskcolor="#d1d1d1" inkscape:document-units="mm" inkscape:clip-to-page="false" inkscape:zoom="0.69294747" inkscape:cx="67.826209" inkscape:cy="74.320208" inkscape:window-width="1280" inkscape:window-height="688" inkscape:window-x="0" inkscape:window-y="25" inkscape:window-maximized="1" inkscape:current-layer="svg1" />
    <defs id="defs1" />
    <path id="path7" fill="currentColor" d="m 88.320761,61.142067 c -5.517973,0.07781 -11.05887,-0.197869 -16.558458,0.321489 -6.843243,0.616907 -12.325958,7.018579 -12.29857,13.807832 -0.139102,5.883715 3.981307,11.431418 9.578012,13.180923 3.171819,1.100505 6.625578,1.228214 9.855341,0.291715 3.455286,-0.847586 6.634981,-2.530123 9.969836,-3.746213 4.659947,-1.981154 9.49864,-3.782982 13.612498,-6.795254 3.80146,-2.664209 4.45489,-8.316688 2.00772,-12.1054 -1.74871,-3.034851 -5.172793,-4.896444 -8.663697,-4.741041 -2.49833,-0.140901 -5.000698,-0.196421 -7.502682,-0.214051 z m 7.533907,25.636161 c -3.334456,0.15056 -6.379399,1.79356 -9.409724,3.054098 -2.379329,1.032102 -4.911953,2.154839 -6.246333,4.528375 -2.118159,3.080424 -2.02565,7.404239 0.309716,10.346199 1.877703,2.72985 5.192756,4.03199 8.428778,3.95319 3.087361,0.0764 6.223907,0.19023 9.275119,-0.34329 5.816976,-1.32118 9.855546,-7.83031 8.101436,-13.600351 -1.30234,-4.509858 -5.762,-7.905229 -10.458992,-7.938221 z m -28.342456,4.770768 c -4.357593,-0.129828 -8.148265,3.780554 -8.168711,8.09095 -0.296313,4.101314 2.711752,8.289544 6.873869,8.869074 4.230007,0.80322 8.929483,-2.66416 9.017046,-7.07348 0.213405,-2.445397 0.09191,-5.152074 -1.705492,-7.039611 -1.484313,-1.763448 -3.717801,-2.798154 -6.016712,-2.846933 z" transform="translate(-59.323375,-61.136763)" />
</svg>
