<?xml version="1.0" encoding="UTF-8" standalone="no"?>
<svg
   class="logo"
   width="36"
   height="30.9767"
   viewBox="0 0 36 30.9767"
   version="1.1"
   id="svg2"
   sodipodi:docname="featherless.svg"
   inkscape:version="1.3 (0e150ed, 2023-07-21)"
   xmlns:inkscape="http://www.inkscape.org/namespaces/inkscape"
   xmlns:sodipodi="http://sodipodi.sourceforge.net/DTD/sodipodi-0.dtd"
   xmlns="http://www.w3.org/2000/svg"
   xmlns:svg="http://www.w3.org/2000/svg">
  <defs
     id="defs2" />
  <sodipodi:namedview
     id="namedview2"
     pagecolor="#ffffff"
     bordercolor="#000000"
     borderopacity="0.25"
     inkscape:showpageshadow="2"
     inkscape:pageopacity="0.0"
     inkscape:pagecheckerboard="0"
     inkscape:deskcolor="#d1d1d1"
     inkscape:zoom="4.0920245"
     inkscape:cx="75.268366"
     inkscape:cy="15.151424"
     inkscape:window-width="1512"
     inkscape:window-height="857"
     inkscape:window-x="0"
     inkscape:window-y="38"
     inkscape:window-maximized="1"
     inkscape:current-layer="svg2" />
  <path
     d="M 34.0866,1.68482 C 32.2902,0.5825 29.863,0 27.0672,0 22.7842,0 18.0653,1.35865 13.8276,3.72206 L 13.7979,3.71083 c 0,0 -0.0042,0.02261 -0.0065,0.0334 C 12.5086,4.4617 11.2656,5.2629 10.0981,6.15731 3.22112,11.4248 1.29519,17.6748 2.92004,21.0156 1.14142,24.0728 0.0457,27.2332 0,30.9767 3.41949,24.421 5.4719,19.108 16.6146,10.1637 13.4309,10.8501 7.9281,14.1057 4.2271,19.0459 3.87793,16.156 6.1477,11.4895 11.2033,7.6174 11.8435,7.127 12.5092,6.66864 13.1886,6.23374 12.6577,7.8934 12.8269,7.4806 11.7254,9.8076 c 1.6289,-1.551 2.7014,-2.5081 4.3096,-5.16615 2.088,-1.03181 4.2598,-1.80301 6.4132,-2.2691 -0.3563,1.18836 -1.0345,3.20231 -1.9527,4.79455 0,0 2.3303,-0.50255 4.2563,-0.38902 -1.0523,1.16802 -1.9991,2.43152 -2.9592,3.72332 -1.3149,1.7684 -2.6742,3.5971 -4.4148,5.2993 -0.2095,0.2049 -0.4098,0.3907 -0.6129,0.5825 -2.6747,-0.2576 -4.4414,0.7485 -6.0966,2.5259 1.3054,-0.6123 3.059,-1.1165 4.1583,-0.813 -2.0258,1.662 -5.216,3.8529 -7.8373,3.6725 -0.4971,0.7611 -0.5285,0.7844 -1.0749,1.7038 4.252,1.0648 9.5926,-3.2817 12.7354,-6.3561 1.8428,-1.803 3.2466,-3.6904 4.6036,-5.5149 2.7947,-3.7585 5.2082,-7.0038 10.5619,-8.2388 L 36,2.85877 Z"
     class="logo-mark"
     id="path1"/>
</svg>
