<?xml version="1.0" encoding="UTF-8" standalone="no"?>
<svg
   width="88.001465mm"
   height="81.280983mm"
   version="1.1"
   id="svg9"
   sodipodi:docname="huggingface.svg"
   inkscape:version="1.3 (0e150ed, 2023-07-21)"
   viewBox="0 0 88.001465 81.280983"
   xmlns:inkscape="http://www.inkscape.org/namespaces/inkscape"
   xmlns:sodipodi="http://sodipodi.sourceforge.net/DTD/sodipodi-0.dtd"
   xmlns="http://www.w3.org/2000/svg"
   xmlns:svg="http://www.w3.org/2000/svg">
  <defs
     id="defs9" />
  <sodipodi:namedview
     id="namedview9"
     pagecolor="#ffffff"
     bordercolor="#000000"
     borderopacity="0.25"
     inkscape:showpageshadow="2"
     inkscape:pageopacity="0.0"
     inkscape:pagecheckerboard="0"
     inkscape:deskcolor="#d1d1d1"
     inkscape:zoom="0.68605868"
     inkscape:cx="424.16197"
     inkscape:cy="154.50573"
     inkscape:window-width="1512"
     inkscape:window-height="857"
     inkscape:window-x="0"
     inkscape:window-y="38"
     inkscape:window-maximized="1"
     inkscape:current-layer="svg9"
     inkscape:clip-to-page="false"
     inkscape:document-units="mm" />
  <path
     id="path2-9"
     style="display:inline;"
     d="M 40.855186,0.10840487 A 38.75,38.75 0 0 0 5.0016702,38.750983 a 38.75,38.75 0 0 0 1.7871095,11.589844 7.1,7.1 0 0 1 1.871094,0.291015 5.97,5.97 0 0 1 1.330078,-3.761718 c 0.02089,-0.02502 0.04515,-0.04576 0.06641,-0.07031 a 34.75,34.75 0 0 1 -1.0547201,-8.048831 34.750014,34.750014 0 0 1 69.5000291,0 34.75,34.75 0 0 1 -0.957032,7.630859 c 0.163358,0.152193 0.321565,0.31255 0.466797,0.488282 a 5.97,5.97 0 0 1 1.330078,3.761718 7.1,7.1 0 0 1 1.337891,-0.207031 A 38.75,38.75 0 0 0 82.501671,38.750983 38.75,38.75 0 0 0 40.855186,0.10840487 Z M 48.015342,73.165045 a 34.75,34.75 0 0 1 -8.044921,0.03906 c -0.396448,0.901178 -0.898324,1.811009 -1.529297,2.736328 -0.233308,0.342701 -0.489288,0.664577 -0.75586,0.974609 a 38.75,38.75 0 0 0 12.574219,-0.06641 c -0.245421,-0.290144 -0.482504,-0.589875 -0.699219,-0.908203 -0.639915,-0.938432 -1.14623,-1.86177 -1.544922,-2.775391 z M 73.940733,45.000983 c 1.62,0 3.07,0.66 4.07,1.87 a 5.97,5.97 0 0 1 1.33,3.76 7.1,7.1 0 0 1 1.95,-0.3 c 1.55,0 2.95,0.59 3.94,1.66 a 5.8,5.8 0 0 1 0.8,7 5.3,5.3 0 0 1 1.78,2.82 c 0.24,0.9 0.48,2.8 -0.8,4.74 a 5.22,5.22 0 0 1 0.37,5.02 c -1.02,2.32 -3.57,4.14 -8.51,6.1 -3.08,1.22 -5.9,2 -5.92,2.01 a 44.33,44.33 0 0 1 -10.93,1.6 c -5.86,0 -10.05,-1.8 -12.46,-5.34 -3.88,-5.69 -3.33,-10.9 1.7,-15.92 2.78,-2.78 4.63,-6.87 5.01,-7.77 0.78,-2.66 2.83,-5.62 6.24,-5.62 a 5.7,5.7 0 0 1 4.6,2.46 c 1,-1.26 1.98,-2.25 2.87,-2.82 a 7.4,7.4 0 0 1 3.96,-1.27 z m 0,4 c -0.51,0 -1.13,0.22 -1.82,0.65 -2.13,1.36 -6.25,8.43 -7.76,11.18 a 2.43,2.43 0 0 1 -2.14,1.31 c -1.54,0 -2.75,-1.53 -0.14,-3.48 3.91,-2.93 2.54,-7.72 0.67,-8.01 a 1.54,1.54 0 0 0 -0.24,-0.02 c -1.7,0 -2.45,2.93 -2.45,2.93 0,0 -2.2,5.52 -5.97,9.3 -3.78,3.77 -3.98,6.8 -1.22,10.83 1.87,2.75 5.47,3.58 9.15,3.58 3.82,0 7.73,-0.9 9.93,-1.46 0.1,-0.03 13.45,-3.8 11.76,-7 -0.29,-0.54 -0.75,-0.76 -1.34,-0.76 -2.38,0 -6.71,3.54 -8.57,3.54 -0.42,0 -0.71,-0.17 -0.83,-0.6 -0.8,-2.85 12.05,-4.05 10.97,-8.17 -0.19,-0.73 -0.7,-1.02 -1.44,-1.02 -3.14,0 -10.2,5.53 -11.68,5.53 -0.1,0 -0.19,-0.03 -0.23,-0.1 -0.74,-1.2 -0.34,-2.04 4.88,-5.2 5.23,-3.16 8.9,-5.06 6.8,-7.33 -0.23,-0.26 -0.57,-0.38 -0.98,-0.38 -3.18,0 -10.67,6.82 -10.67,6.82 0,0 -2.02,2.1 -3.24,2.1 a 0.74,0.74 0 0 1 -0.68,-0.38 c -0.87,-1.46 8.05,-8.22 8.55,-11.01 0.34,-1.9 -0.24,-2.85 -1.31,-2.85 z m -6.69,-15 a 3.25,3.25 0 1 0 0,-6.5 3.25,3.25 0 0 0 0,6.5 z m -46.5,0 a 3.25,3.25 0 1 0 0,-6.5 3.25,3.25 0 0 0 0,6.5 z m -6.69,11 c -1.62,0 -3.06,0.66 -4.0700003,1.87 a 5.97,5.97 0 0 0 -1.33,3.76 7.1,7.1 0 0 0 -1.94,-0.3 c -1.55,0 -2.95,0.59 -3.94,1.66 a 5.8,5.8 0 0 0 -0.8,7 5.3,5.3 0 0 0 -1.79000004,2.82 c -0.24,0.9 -0.48,2.8 0.8,4.74 a 5.22,5.22 0 0 0 -0.37,5.02 c 1.02000004,2.32 3.57000004,4.14 8.52000004,6.1 3.0700003,1.22 5.8900003,2 5.9100003,2.01 a 44.33,44.33 0 0 0 10.93,1.6 c 5.86,0 10.05,-1.8 12.46,-5.34 3.88,-5.69 3.33,-10.9 -1.7,-15.92 -2.77,-2.78 -4.62,-6.87 -5,-7.77 -0.78,-2.66 -2.84,-5.62 -6.25,-5.62 a 5.7,5.7 0 0 0 -4.6,2.46 c -1,-1.26 -1.98,-2.25 -2.86,-2.82 a 7.4,7.4 0 0 0 -3.97,-1.27 z m 0,4 c 0.51,0 1.14,0.22 1.82,0.65 2.14,1.36 6.25,8.43 7.76,11.18 0.5,0.92 1.37,1.31 2.14,1.31 1.55,0 2.75,-1.53 0.15,-3.48 -3.92,-2.93 -2.55,-7.72 -0.68,-8.01 0.08,-0.02 0.17,-0.02 0.24,-0.02 1.7,0 2.45,2.93 2.45,2.93 0,0 2.2,5.52 5.98,9.3 3.77,3.77 3.97,6.8 1.22,10.83 -1.88,2.75 -5.47,3.58 -9.16,3.58 -3.81,0 -7.73,-0.9 -9.92,-1.46 -0.11,-0.03 -13.4500003,-3.8 -11.7600003,-7 0.28,-0.54 0.75,-0.76 1.34,-0.76 2.38,0 6.7000003,3.54 8.5700003,3.54 0.41,0 0.7,-0.17 0.83,-0.6 0.79,-2.85 -12.0600003,-4.05 -10.9800003,-8.17 0.2,-0.73 0.71,-1.02 1.44,-1.02 3.14,0 10.2000003,5.53 11.6800003,5.53 0.11,0 0.2,-0.03 0.24,-0.1 0.74,-1.2 0.33,-2.04 -4.9,-5.2 -5.2100003,-3.16 -8.8800003,-5.06 -6.8000003,-7.33 0.24,-0.26 0.58,-0.38 1,-0.38 3.17,0 10.6600003,6.82 10.6600003,6.82 0,0 2.02,2.1 3.25,2.1 0.28,0 0.52,-0.1 0.68,-0.38 0.86,-1.46 -8.06,-8.22 -8.56,-11.01 -0.34,-1.9 0.24,-2.85 1.31,-2.85 z m 21.91,2 a 8.7,8.7 0 0 1 5.3,-4.49 c 0.4,-0.12 0.81,0.57 1.24,1.28 0.4,0.68 0.82,1.37 1.24,1.37 0.45,0 0.9,-0.68 1.33,-1.35 0.45,-0.7 0.89,-1.38 1.32,-1.25 a 8.61,8.61 0 0 1 5,4.17 c 3.73,-2.94 5.1,-7.74 5.1,-10.7 0,-2.34 -1.57,-1.6 -4.09,-0.36 l -0.14,0.07 c -2.31,1.15 -5.39,2.67 -8.77,2.67 -3.38,0 -6.45,-1.52 -8.77,-2.67 -2.6,-1.29 -4.23,-2.1 -4.23,0.29 0,3.05 1.46,8.06 5.47,10.97 z m 19.07,-21.7 c 1.28,0.44 1.78,3.06 3.07,2.38 a 5,5 0 1 0 -6.76,-2.07 c 0.61,1.15 2.55,-0.72 3.7,-0.32 z m -23.55,0 c -1.28,0.44 -1.79,3.06 -3.07,2.38 a 5,5 0 1 1 6.76,-2.07 c -0.61,1.15 -2.56,-0.72 -3.7,-0.32 z" />
</svg>
