<?xml version="1.0" standalone="no"?>
<!DOCTYPE svg PUBLIC "-//W3C//DTD SVG 20010904//EN"
 "http://www.w3.org/TR/2001/REC-SVG-20010904/DTD/svg10.dtd">
<svg version="1.0" xmlns="http://www.w3.org/2000/svg"
 width="512.000000pt" height="512.000000pt" viewBox="0 0 512.000000 512.000000"
 preserveAspectRatio="xMidYMid meet">

<g transform="translate(0.000000,512.000000) scale(0.100000,-0.100000)"
 stroke="none">
<path d="M1881 5001 c8 -10 81 -96 163 -190 114 -130 155 -171 173 -171 16 0
23 6 23 20 0 11 -6 20 -14 20 -8 0 -80 77 -162 171 -133 153 -149 169 -161
153 -12 -16 -13 -16 -13 -1 0 9 -5 17 -11 17 -8 0 -7 -6 2 -19z"/>
<path d="M3220 5002 c0 -15 16 -24 73 -42 108 -34 310 -116 420 -172 l97 -50
0 -54 c0 -40 4 -54 14 -54 15 0 33 97 23 123 -11 30 -330 177 -502 232 -115
37 -125 38 -125 17z"/>
<path d="M1840 4990 c0 -11 5 -20 10 -20 6 0 10 9 10 20 0 11 -4 20 -10 20 -5
0 -10 -9 -10 -20z"/>
<path d="M1811 4984 c0 -11 3 -14 6 -6 3 7 2 16 -1 19 -3 4 -6 -2 -5 -13z"/>
<path d="M1776 4975 c4 -8 8 -15 10 -15 2 0 4 7 4 15 0 8 -4 15 -10 15 -5 0
-7 -7 -4 -15z"/>
<path d="M1716 4955 c4 -8 8 -15 10 -15 2 0 4 7 4 15 0 8 -4 15 -10 15 -5 0
-7 -7 -4 -15z"/>
<path d="M1660 4930 c0 -5 5 -10 11 -10 5 0 7 5 4 10 -3 6 -8 10 -11 10 -2 0
-4 -4 -4 -10z"/>
<path d="M1541 4884 c0 -11 3 -14 6 -6 3 7 2 16 -1 19 -3 4 -6 -2 -5 -13z"/>
<path d="M2344 4685 c-5 -12 -10 -13 -20 -4 -18 15 -58 7 -62 -13 -3 -15 6
-17 85 -12 103 7 113 9 113 27 0 21 -108 23 -116 2z"/>
<path d="M2470 4686 c0 -13 12 -16 68 -16 68 0 255 -15 325 -26 34 -5 38 -4
35 12 -5 27 -50 34 -250 41 -161 5 -178 4 -178 -11z"/>
<path d="M3802 4561 l3 -49 -26 31 -27 32 -106 -1 c-223 -3 -419 -77 -552
-209 -92 -90 -116 -149 -117 -280 0 -142 36 -199 127 -198 62 1 191 55 296
124 99 66 287 240 348 323 34 47 37 49 41 26 5 -37 25 -45 32 -12 11 46 10
109 -1 92 -8 -12 -10 -9 -10 13 0 16 4 26 9 23 10 -7 21 41 21 95 0 33 -3 39
-21 39 -19 0 -21 -5 -17 -49z m-257 -77 c-11 -9 -76 -43 -145 -76 -153 -74
-178 -92 -241 -178 -42 -59 -85 -100 -104 -100 -9 0 7 83 20 110 57 112 310
254 460 259 29 0 29 0 10 -15z m256 -87 c-10 -9 -11 -8 -5 6 3 10 9 15 12 12
3 -3 0 -11 -7 -18z"/>
<path d="M1354 4573 c-49 -36 -57 -118 -20 -191 102 -198 470 -475 652 -490
112 -9 147 38 147 196 0 83 -3 98 -31 155 -97 196 -320 312 -642 332 -52 3
-100 2 -106 -2z m434 -149 c127 -64 196 -119 223 -179 38 -84 23 -81 -74 12
-77 74 -111 99 -206 149 -63 32 -117 65 -119 73 -8 25 56 5 176 -55z"/>
<path d="M3780 4296 c0 -8 44 -50 97 -93 124 -99 251 -227 337 -336 50 -65 73
-86 94 -89 24 -3 28 -8 35 -58 20 -135 70 -379 93 -453 23 -73 32 -88 83 -137
32 -30 97 -83 145 -117 l88 -63 73 63 c39 34 104 89 142 122 81 69 79 52 26
215 -45 135 -93 251 -154 370 -74 145 -43 132 -264 115 -104 -8 -207 -16 -228
-19 -37 -4 -39 -3 -111 87 -85 106 -251 270 -346 342 -36 27 -66 53 -68 57 -6
14 -42 8 -42 -6z m740 -507 c-25 -35 -34 -33 -24 5 4 17 13 26 26 26 19 0 19
-1 -2 -31z"/>
<path d="M333 3809 c-69 -113 -176 -360 -218 -504 -30 -106 -30 -105 -2 -105
29 0 341 -266 333 -285 -7 -19 29 -7 107 37 l68 39 37 -29 c117 -90 236 -145
312 -144 53 1 57 3 99 49 140 154 172 184 230 222 35 22 68 41 73 41 5 0 1
-14 -8 -32 -68 -131 -97 -329 -72 -499 25 -174 80 -263 197 -318 74 -34 182
-36 253 -4 95 43 179 154 190 248 6 54 -47 39 -152 -44 -27 -21 -127 -34 -123
-16 1 6 9 29 18 53 45 125 41 282 -10 432 -28 82 -40 100 -66 100 -15 0 -16 4
-9 31 5 18 11 34 14 36 11 11 68 -31 126 -93 51 -55 75 -94 127 -203 136 -285
155 -322 169 -328 8 -3 17 -3 20 0 9 9 -17 169 -47 283 -72 277 -128 392 -254
521 -134 137 -225 170 -392 144 -203 -31 -332 -129 -448 -341 -23 -42 -46 -70
-59 -74 -25 -7 -166 -8 -166 -1 0 2 8 26 19 52 32 83 60 220 96 475 40 285 40
285 21 269 -7 -6 -26 -9 -42 -6 -16 2 -69 7 -119 10 -49 3 -138 8 -196 11
l-106 7 -20 -34z m287 -70 c0 -16 -4 -29 -9 -29 -12 0 -21 25 -21 57 0 21 2
24 15 13 8 -7 15 -25 15 -41z m855 -443 c46 -22 48 -24 25 -29 -14 -3 -52 -8
-85 -12 -33 -3 -99 -15 -147 -27 -48 -12 -91 -19 -94 -15 -13 13 17 53 59 80
57 37 167 38 242 3z m-345 -133 c0 -27 -17 -38 -35 -23 -13 10 -12 16 1 42 12
24 18 28 25 17 5 -8 9 -24 9 -36z m436 -317 c19 -19 34 -38 34 -44 0 -5 -15
-13 -32 -19 l-33 -9 3 -114 3 -115 -21 24 c-22 26 -26 39 -35 122 -5 44 -10
56 -23 55 -9 0 -26 17 -40 42 l-24 43 23 25 c17 18 33 24 67 24 37 0 50 -6 78
-34z"/>
<path d="M1670 3442 c0 -13 31 -54 96 -127 77 -87 120 -161 173 -295 23 -57
49 -113 58 -122 76 -84 -34 255 -126 389 -39 58 -95 116 -141 147 -25 17 -60
22 -60 8z"/>
<path d="M3450 3405 c-114 -83 -270 -372 -270 -499 l0 -41 20 25 c11 14 34 59
51 100 57 137 108 224 189 320 44 52 78 100 76 105 -6 19 -32 15 -66 -10z"/>
<path d="M3631 3410 c-103 -37 -241 -171 -310 -299 -85 -160 -187 -536 -167
-616 l8 -30 20 25 c11 14 32 47 46 75 l27 50 5 -80 c6 -95 32 -147 105 -214
73 -67 121 -84 224 -79 72 3 95 9 140 33 71 39 124 107 152 195 24 73 22 88
-8 72 -13 -8 -25 -6 -46 6 -27 16 -30 16 -98 -22 -39 -21 -72 -36 -74 -34 -2
1 1 50 5 108 16 200 -3 361 -50 420 l-20 25 -25 -30 c-27 -32 -30 -25 -19 34
7 34 45 61 87 61 46 0 126 -49 151 -93 22 -37 56 -142 71 -220 5 -22 10 -28
28 -25 18 2 22 10 22 38 0 55 -14 115 -51 208 -18 47 -32 88 -29 90 15 15 130
-76 224 -176 120 -129 145 -146 199 -137 85 15 312 145 312 179 0 16 -52 26
-138 26 -35 0 -72 5 -83 10 -10 6 -31 34 -45 63 -66 131 -170 245 -270 295
-125 62 -288 80 -393 42z m273 -125 c20 -9 54 -31 75 -50 41 -37 97 -112 89
-120 -2 -3 -32 15 -65 40 -76 56 -124 74 -243 89 l-95 12 40 21 c49 27 145 30
199 8z m-319 -54 c-18 -36 -25 -39 -25 -12 0 20 28 56 37 47 2 -2 -3 -18 -12
-35z m-60 -428 c18 -15 34 -31 34 -35 1 -3 -15 -12 -34 -18 -32 -11 -35 -15
-35 -51 0 -22 5 -60 11 -85 13 -49 10 -58 -14 -49 -17 7 -33 43 -42 98 -3 20
-10 37 -16 37 -19 0 -59 49 -59 74 0 15 11 33 27 46 36 28 81 22 128 -17z
m-125 -428 c13 -14 21 -25 18 -25 -2 0 -15 11 -28 25 -13 14 -21 25 -18 25 2
0 15 -11 28 -25z m380 11 c0 -2 -8 -10 -17 -17 -16 -13 -17 -12 -4 4 13 16 21
21 21 13z"/>
<path d="M4653 2868 c3 -18 11 -103 18 -189 l11 -156 -70 -89 c-87 -111 -112
-160 -112 -218 0 -82 83 -273 181 -418 30 -44 204 -285 213 -295 7 -7 102 247
126 335 6 24 13 49 16 56 3 7 -71 78 -172 165 -161 141 -176 156 -171 181 3
15 9 63 12 106 3 43 8 96 10 116 5 41 -10 313 -21 391 -5 38 -11 47 -26 47
-17 0 -19 -5 -15 -32z"/>
<path d="M410 2750 c0 -15 7 -20 27 -20 25 0 26 0 8 20 -10 11 -22 20 -27 20
-4 0 -8 -9 -8 -20z"/>
<path d="M987 2683 c-3 -5 -8 -46 -12 -93 l-6 -86 -45 -28 c-39 -25 -64 -52
-64 -70 0 -11 51 -6 87 9 19 8 40 15 45 15 5 0 18 -21 30 -47 l21 -47 -27 -23
c-32 -27 -34 -27 -106 -8 -74 20 -87 19 -115 -10 -21 -20 -25 -34 -25 -83 0
-147 87 -252 215 -260 58 -4 66 -2 91 23 23 23 26 32 22 79 -2 29 -18 81 -35
118 -30 64 -31 67 -13 83 21 19 23 18 100 -40 30 -23 69 -49 85 -58 l30 -16
-30 -1 c-37 0 -64 -16 -50 -28 6 -5 32 -17 59 -26 91 -30 387 -15 375 19 -2 6
-10 8 -19 7 -10 -2 -11 0 -5 6 6 5 44 14 86 20 86 13 171 42 221 75 33 22 78
90 67 101 -3 4 -46 -13 -95 -36 l-89 -43 -210 0 c-365 1 -406 29 -530 358 -34
89 -47 109 -58 90z"/>
<path d="M4183 2657 c-6 -6 -27 -59 -47 -117 -68 -193 -127 -272 -224 -300
-61 -17 -269 -32 -387 -28 -101 4 -117 7 -191 41 -45 20 -89 37 -98 37 -15 0
-15 -2 0 -32 9 -18 30 -45 46 -60 l28 -26 -84 34 c-170 69 -390 104 -661 104
-251 0 -415 -36 -620 -135 -136 -66 -274 -157 -354 -233 -79 -74 -84 -115 -9
-76 38 19 35 15 -59 -93 -90 -105 -112 -148 -89 -171 14 -15 20 -14 58 5 24
12 93 60 153 108 181 142 354 215 600 253 161 25 714 24 833 0 184 -39 279
-91 484 -269 91 -79 140 -109 177 -109 42 0 19 61 -68 187 -65 92 -70 103 -46
103 23 0 18 14 -24 68 -38 48 -173 157 -232 187 -16 9 -29 17 -29 19 0 2 29
-5 64 -15 36 -9 91 -21 123 -24 67 -9 81 -14 62 -26 -35 -21 47 -38 188 -39
110 0 190 13 219 35 17 13 17 16 4 25 -8 5 -28 10 -45 10 l-30 0 41 24 c23 13
66 42 96 65 30 22 59 41 65 41 5 0 20 -11 32 -24 l23 -24 -46 -85 c-51 -93
-57 -134 -27 -183 24 -39 69 -58 117 -49 47 8 140 95 179 166 23 43 27 60 23
110 -3 45 -10 65 -29 85 -23 25 -27 26 -101 19 -74 -6 -77 -5 -109 23 -30 27
-31 30 -20 64 19 57 31 62 97 38 89 -31 94 -11 15 60 -62 56 -64 58 -58 97 7
39 -7 108 -22 118 -5 2 -13 -1 -18 -8z"/>
<path d="M447 2439 c2 -46 9 -108 14 -138 13 -80 12 -101 -6 -95 -10 4 -75
-45 -185 -140 -177 -153 -191 -167 -172 -174 6 -2 8 -10 5 -18 -4 -10 0 -12
11 -8 9 3 16 2 16 -4 0 -5 -7 -13 -16 -16 -8 -3 -13 -10 -9 -15 3 -6 12 -8 20
-4 8 3 15 0 15 -6 0 -6 -4 -11 -10 -11 -5 0 -10 -4 -10 -10 0 -5 6 -7 14 -4
17 6 30 -26 16 -40 -15 -15 -12 -26 5 -20 8 4 15 1 15 -5 0 -6 -4 -11 -10 -11
-5 0 -10 -4 -10 -10 0 -5 6 -7 14 -4 7 3 17 -3 20 -13 4 -10 2 -19 -3 -21 -6
-2 -11 -8 -11 -13 0 -4 7 -6 15 -3 8 4 15 1 15 -5 0 -6 -4 -11 -10 -11 -5 0
-10 -4 -10 -10 0 -5 6 -7 14 -4 7 3 17 -3 20 -13 4 -10 2 -19 -3 -21 -6 -2
-11 -8 -11 -13 0 -4 6 -6 14 -3 7 3 17 -3 20 -13 4 -10 2 -19 -3 -21 -20 -7
-11 -20 9 -15 14 4 20 0 20 -11 0 -9 -4 -16 -10 -16 -5 0 -10 -5 -10 -11 0 -5
5 -7 11 -3 6 3 15 1 19 -6 10 -15 4 -24 152 245 195 354 193 349 171 438 -16
62 -126 334 -143 351 -5 5 -6 -28 -3 -75z"/>
<path d="M4456 2178 c-9 -36 -7 -158 5 -208 5 -25 32 -92 59 -151 70 -152 90
-230 96 -384 7 -181 5 -175 60 -175 l46 0 -7 73 c-17 182 -67 364 -146 535
-25 55 -42 109 -49 160 -11 84 -37 172 -50 172 -4 0 -10 -10 -14 -22z"/>
<path d="M706 2008 c-9 -21 -22 -86 -30 -145 -8 -60 -28 -160 -45 -223 -29
-111 -62 -254 -76 -333 l-6 -38 38 3 38 3 31 145 c17 80 43 190 58 245 21 82
26 119 25 215 -1 63 -4 126 -9 140 -7 25 -8 24 -24 -12z"/>
<path d="M1115 1940 c-21 -41 -19 -103 4 -124 43 -39 114 7 114 74 0 71 -88
109 -118 50z"/>
<path d="M3940 1938 c-41 -68 -18 -138 46 -138 47 0 67 20 67 69 0 52 -29 95
-66 99 -21 3 -31 -4 -47 -30z"/>
<path d="M2240 1790 c-162 -26 -311 -84 -380 -146 -107 -97 -155 -267 -155
-549 1 -109 5 -152 19 -193 14 -42 15 -56 6 -67 -23 -28 -49 -15 -146 75 -85
79 -101 90 -133 90 -74 0 -130 -66 -101 -119 14 -27 20 -27 81 9 l51 31 99
-96 c54 -52 105 -95 114 -95 9 0 30 9 47 21 16 12 30 20 32 18 1 -2 8 -31 15
-64 16 -74 58 -166 106 -228 34 -44 118 -117 136 -117 33 0 80 115 124 305 43
185 43 185 333 185 348 0 402 -28 448 -230 20 -93 61 -174 109 -220 l37 -35
24 30 c65 79 134 245 134 322 0 21 3 48 6 60 l6 23 42 -25 c54 -32 62 -31 113
8 210 162 192 152 224 139 16 -7 42 -17 58 -24 35 -14 61 -5 61 23 0 22 -111
139 -132 139 -6 0 -62 -49 -124 -110 -63 -61 -120 -110 -128 -110 -29 0 -27
22 11 108 l38 87 0 200 c0 222 -10 278 -67 367 -100 157 -212 187 -723 193
-181 2 -355 0 -385 -5z m930 -1023 c0 -40 -7 -99 -15 -130 -15 -59 -58 -151
-74 -161 -5 -3 -19 11 -33 32 -44 67 -69 144 -75 224 l-6 78 34 14 c19 9 64
15 102 16 l67 0 0 -73z m-1122 47 c31 -5 32 -6 32 -57 0 -88 -33 -246 -59
-287 -8 -12 -15 -10 -42 15 -17 17 -45 50 -61 75 -32 50 -78 185 -78 230 0 26
4 29 38 32 39 4 115 0 170 -8z"/>
<path d="M4860 1496 c0 -2 7 -7 16 -10 8 -3 12 -2 9 4 -6 10 -25 14 -25 6z"/>
<path d="M262 1414 c7 -15 14 -21 16 -15 5 16 -5 41 -17 41 -7 0 -6 -10 1 -26z"/>
</g>
</svg>
