<?xml version="1.0" encoding="UTF-8" standalone="no"?>
<!-- Created with Inkscape (http://www.inkscape.org/) -->

<svg
   version="1.1"
   id="svg2"
   width="682.66669"
   height="682.66669"
   viewBox="0 0 682.66669 682.66669"
   sodipodi:docname="kobold.svg"
   inkscape:version="1.2.1 (9c6d41e410, 2022-07-14)"
   xmlns:inkscape="http://www.inkscape.org/namespaces/inkscape"
   xmlns:sodipodi="http://sodipodi.sourceforge.net/DTD/sodipodi-0.dtd"
   xmlns="http://www.w3.org/2000/svg"
   xmlns:svg="http://www.w3.org/2000/svg">
  <defs
     id="defs6" />
  <sodipodi:namedview
     id="namedview4"
     pagecolor="#ffffff"
     bordercolor="#000000"
     borderopacity="0.25"
     inkscape:showpageshadow="2"
     inkscape:pageopacity="0.0"
     inkscape:pagecheckerboard="0"
     inkscape:deskcolor="#d1d1d1"
     showgrid="false"
     inkscape:zoom="1.5043945"
     inkscape:cx="460.98281"
     inkscape:cy="311.08862"
     inkscape:window-width="2560"
     inkscape:window-height="1377"
     inkscape:window-x="2552"
     inkscape:window-y="-8"
     inkscape:window-maximized="1"
     inkscape:current-layer="g8" />
  <g
     inkscape:groupmode="layer"
     inkscape:label="Image"
     id="g8">
    <path
       style="stroke:none;stroke-width:1.33333"
       d="m 171.32749,47.331392 v 4 c 12.46,9.0412 4.032,24.8744 4.91067,37.33333 0.60933,8.61773 4.48133,15.097198 3.08933,23.999998 -9.768,-1.0508 -17.05467,6.59294 -24,12.62774 -15.61067,13.5656 -27.25574,32.5056 -43.14654,45.2576 -6.2576,5.02133 -14.829587,3.284 -22.186787,2.55733 -13.6492,-1.34666 -27.88494,-0.35466 -41.33334,-3.10933 -15.8956,27.97867 -27.41493,57.04 -36,88 13.74,10.83867 35.03,39.1 53.33334,38.66667 l -1.33334,6.66667 -5.33333,-2.66667 2.66667,14.66667 -4,-2.66667 -1.33334,6.66667 h 6.66667 l -1.33333,25.33333 h -1.33334 l -5.33333,-8 c 1.2756,13.55867 6.9132,37.864 2.5692,50.54 -2.02707,5.91467 -8.7172,10.132 -13.23613,14.05067 -10.5992,9.19067 -20.984,18.72 -31.99974,27.40933 l 25.33334,69.33334 h 1.33333 l 1.33333,-10.66667 17.33334,28 -2.66667,-5.33333 30.66667,4 1.33333,-6.66667 8,5.33334 -2.66667,-5.33334 c 33.997197,-5.85866 39.588927,35.29201 66.666667,47.46401 6.416,2.88533 16.03067,0.56933 22.66667,-0.79734 -0.58267,3.59734 -2.02267,9.11867 1.24133,11.92667 4.892,4.20667 11.732,-3.67467 17.35467,-1.764 14.21733,4.83467 19.67333,28.956 37.404,16.504 3.70133,14.85067 13.68667,53.584 34.496,53.04533 8.328,-0.216 10.988,-14.944 12.73867,-21.04533 5.44933,-18.99333 5.108,-41.92533 30.09866,-42.62667 20.65067,-0.58 53.08801,-5.31333 69.00801,10.92534 10.052,10.25333 8.66666,27.47066 15.73333,39.69333 2.42933,4.20133 6.73733,11.54 12.48667,11.09867 5.58133,-0.42934 9.27466,-8.18267 11.60533,-12.424 7.32533,-13.32667 10.54,-27.56534 11.16667,-42.66667 21.444,13.56267 26.752,-8.56 45.33333,-14.99333 5.74,-1.98667 13.94134,4.92 18.68,1.088 3.448,-2.788 0.0213,-8.492 -1.34666,-11.428 11.49466,1.196 36.74933,2.12 46.66667,-3.89067 13.856,-8.39867 22.12,-24.84267 33.33333,-36.10934 l -1.3333,-5.33333 41.3333,1.33333 c 1.3253,7.79467 6.2707,7.924 13.3333,8 v -6.66666 l 5.3334,5.33333 h 2.6666 c 10.9174,-18.93867 20.5987,-39.24933 27.5454,-60 2.1786,-6.504 6.8373,-15.692 5.808,-22.64934 -2.6627,-18.00933 -34.1347,-27.24133 -42.4814,-42.756 -4.5173,-8.39333 0.028,-24.07866 0.8147,-33.26133 1.5,-17.472 -3,-34.648 -2.5173,-51.99734 0.5226,-18.74133 33.68,-29.71733 42.796,-44.60933 3.9746,-6.49467 -1.3827,-16.932 -3.5227,-23.39334 -6.516,-19.676 -14.056,-42.93333 -26.5373,-59.73733 -4.7547,-6.40133 -10.9067,-4.772 -17.9054,-4.38667 -12.3666,0.68134 -33.6346,6.424 -45.12,1.564 -7.93997,-3.36133 -13.2693,-13.912 -18.93463,-20.06666 -12.87067,-13.98401 -27.26667,-25.57214 -41.10534,-38.47241 -15.90933,-14.829598 2.85333,-45.371998 -3.62133,-63.770668 -3.06134,-8.700397 -20.756,-14.264397 -28.552,-17.694131 -13.49867,-5.9384 -27.244,-11.378134 -41.33334,-15.735334 -5.22,-1.6144 -11.668,-4.60664 -16.88933,-1.585333 -16.16,9.350267 -22.56667,33.947998 -39.556,41.756398 -9.47467,4.3548 -27.90934,-1.2064 -38.22134,-1.7456 -15.03333,-0.786 -36.49067,6.88534 -50.54,2.33574 -5.92267,-1.9176 -10.304,-8.63254 -14.20267,-13.12894 -9.148,-10.549598 -18.88133,-20.827998 -27.25733,-31.999732 -31.076,6.852134 -58.048,21.650001 -86.66667,34.666672 m 297.33334,37.33333 v 1.33333 h -4 l 4,-1.33333 m 4,0 -1.33333,1.33333 1.33333,-1.33333 m -253.33334,1.33333 -1.33333,1.33334 1.33333,-1.33334 m 192.00001,44.000008 -1.33334,1.33333 1.33334,-1.33333 m 159.99997,136 h -1.3333 c -6.54533,-9.72 -13.10133,-19.16666 -22.67333,-26.17733 -6.84667,-5.01334 -14.52267,-8.54934 -22.66001,-10.896 -64.19333,-18.52 -94.28267,58.57733 -101.33333,109.07333 -4.65867,-12.744 -2.66667,-27.976 -2.66667,-41.33333 0,-26.22133 -0.096,-52.44534 0.003,-78.66667 0.048,-12.81733 0.236,-30.37867 10.848,-39.352 11.536,-9.75467 35,-9.336 49.14933,-7.74 50.02934,5.64267 90.66531,43.30267 90.66671,95.092 M 271.32782,319.3314 h -1.33333 c -8.73067,-49.15734 -41.592,-109.81467 -100,-92.31201 -8.24267,2.46934 -15.92267,6.46267 -22.66401,11.82 -8.93866,7.10267 -15.3944,16.20534 -21.336,25.82534 -14.76986,-48.75467 53.38134,-80.68134 90.66667,-85.05067 10.04267,-1.176 23.616,-4.14533 33.25467,0.0387 11.71067,5.08533 16.88267,22.98533 19.47067,34.34533 7.42133,32.56134 7.61067,72.44534 1.94133,105.33334 m -46.66667,-96.00001 c 4.99867,13.94667 17.988,23.35334 25.46001,36.00001 7.37733,12.484 9.68933,32.056 22.54,40 -3.912,-24.796 -18.472,-72.13734 -48.00001,-76.00001 m 200.00001,77.33334 c 10.88133,-7.50267 13.66933,-23.524 19.86667,-34.66667 7.652,-13.75733 22.06133,-25.04533 26.8,-40 -27.912,4.53067 -44.212,50.15067 -46.66667,74.66667 m -220.00034,-54.6667 v 1.33334 l -45.33333,8 c 5.248,-20.64801 30.736,-15.41734 45.33333,-9.33334 m 340.00002,22.66667 c -18.28667,-11.04667 -31.34001,-18.64267 -53.33334,-18.66667 19.048,-16.336 44.54933,-0.956 53.33334,18.66667 m -62.66667,-21.33333 -5.33334,8 5.33334,-8 m -330.66668,9.33333 v 9.33333 h -2.66667 l 2.66667,-9.33333 m 33.33333,10.66667 c -10.14666,28.372 -20.33733,64.79466 -3.732,93.332 23.412,40.23467 69.13467,19.88133 79.73201,-17.332 l -37.33334,12 c 7.55333,-29.95734 6.71333,-51.172 -5.33333,-80 l -4,1.33333 2.66666,-9.33333 c 25.18534,13.21066 33.43067,41.44266 45.02534,65.33333 5.99867,12.36134 12.33733,26.51467 2.584,39.25867 -4.64,6.06267 -15.18,9.508 -22.276,11.536 -21.07067,6.024 -63.98134,7.04267 -81.088,-8.61333 -13.28934,-12.164 -18.45467,-33.68534 -24.24534,-50.18134 l -4,1.33333 -5.33333,-17.33333 c 24.27867,-2.78133 33.91467,-33.52133 57.33333,-41.33333 m 328.00001,1.33333 c 13.32267,7.76533 22.768,16.98133 33.40401,27.99867 6.94666,7.19466 13.224,14.832 23.92933,13.33466 l 1.3333,1.33334 -5.3333,24 h -1.33333 l -2.66667,-9.33334 h -1.33333 c -8.71867,20.86401 -12.74534,50.58534 -37.33334,58.46534 -21.72,6.96133 -56.508,7.996 -77.33333,-1.67467 -10.91334,-5.068 -22.63334,-13.23333 -20.69734,-27.45733 0.92267,-6.78667 6.69067,-14.096 10.03067,-20 h 1.33333 c 0,8.11867 -0.77733,16.57467 3.116,24 22.06534,42.08667 74.49067,26.58933 82.21734,-16 l -33.33334,8 c 2.796,-20.556 10.612,-60.17867 -10.66666,-73.33334 l -2.66667,6.66667 h -1.33333 c 3.22666,-14.35067 15.708,-19.72133 27.70266,-8.79467 6.95467,6.336 9.74534,15.98934 12.044,24.79334 0.59067,2.264 2.49067,13.96 7.14667,10.308 8.94933,-7.02 -8.35467,-33.472 -8.22667,-42.30667 M 215.32749,311.3314 c -13.772,4.168 -8.14267,19.588 -8,30.66666 -7.48933,-6.38666 -6.66267,-16.27333 -6.66667,-25.33333 -18.06266,-3.052 -5.47733,-24.708 8.75467,-13.59333 2.832,2.212 4.33867,5.13333 5.912,8.26 m 261.33334,1.33333 v 2.66667 c -12.91733,5.19066 -8.896,15.32533 -6.66666,26.66666 -5.38134,-3.632 -15.92667,-20.34133 -17.05334,-26.78266 -1.472,-8.40667 8.44,-10.26267 14.36134,-7.90534 3.31866,1.32267 6.33733,3.48134 9.35866,5.35467 m -413.333337,2.66667 -1.33333,1.33333 1.33333,-1.33333 m -6.66667,13.33333 4,2.66667 v -1.33334 l -4,-1.33333 m 18.66667,180.00001 v 4 h -1.33333 l 1.33333,-4 m 349.333337,62.66667 c 0,17.77733 -2.26,32.136 -10.66667,48 -9.4,-5.81067 -23.30933,-33.76267 -13.44266,-43.90267 5.54,-5.69333 16.94133,-4.096 24.10933,-4.09733 m -145.33334,4 -8,46.66666 c -16.29333,-9.21866 -22.78666,-30.32 -24,-48 l 32,1.33334 m 124.00001,17.33333 v 10.66667 h 1.33333 z"
       id="path972" />
    <path
       style="fill:#ffffff"
       id="path1031"
       d="m 171.07018,314.24465 c 1.43533,2.55362 3.43647,4.86204 6.02366,6.31063 15.51628,8.6877 9.94595,7.11918 18.45758,9.09921 2.9676,0.68502 6.00726,0.33711 9.00575,0.4851 0.51777,0.0256 1.97943,0.5002 1.53847,0.22762 -12.3291,-7.62122 -8.46459,-9.40075 -13.47067,-6.74985 -0.81161,0.51959 -1.60672,1.06589 -2.43482,1.55876 -4.52165,2.69122 -9.22362,5.08101 -13.79908,7.67767 -5.00626,2.84116 -5.79872,3.37745 -10.6807,6.35696 -3.21994,2.00581 -5.34709,3.29487 -8.43672,5.34334 -0.93485,0.61982 -1.86152,1.25236 -2.77524,1.90291 -0.53177,0.3786 -1.12785,0.69454 -1.56007,1.18372 -0.23297,0.26368 -0.67179,0.8249 -0.36192,0.99157 4.80104,2.58231 9.91238,4.5407 14.86857,6.81105 12.64758,-5.66419 24.4458,-13.03247 36.15953,-20.38753 8.83007,-5.82628 17.49966,-11.90043 26.13449,-18.01368 0.12258,-0.10977 0.51254,-0.25112 0.36775,-0.32931 -4.67223,-2.52289 -9.13452,-5.66802 -14.23142,-7.15676 -1.20748,-0.35269 -2.10539,1.37742 -3.14865,2.08026 -4.89213,3.29582 -9.54755,6.82945 -14.1897,10.46637 -9.49744,7.36804 -17.9992,15.83825 -26.01509,24.76432 -6.30592,7.59525 -8.14218,8.23949 10.2995,13.47521 1.78331,0.50629 3.3167,-1.66017 4.9328,-2.56834 5.73793,-3.22441 9.53881,-5.73893 15.19815,-9.3143 13.24893,-8.54994 25.96694,-17.90399 37.94901,-28.15332 1.04824,-0.91395 2.1079,-1.81498 3.14472,-2.74187 0.79084,-0.70699 1.56569,-1.43176 2.33769,-2.15926 0.53118,-0.50056 1.12786,-0.94513 1.57156,-1.52464 0.198,-0.25861 0.59124,-0.77034 0.30618,-0.92788 -14.71815,-8.13451 -10.1663,-9.48815 -17.93001,-5.21701 -11.41265,6.6473 -22.20287,14.27124 -32.75212,22.19736 -10.66088,8.29117 -20.89797,17.10296 -30.98403,26.07851 -0.98028,0.86051 -2.03371,1.64422 -2.94083,2.58153 -5.39678,5.57637 8.13193,7.60867 14.30926,9.09646 2.00094,0.48192 3.79185,-1.6031 5.66556,-2.45469 5.07424,-2.30622 9.60823,-4.57573 14.62099,-7.03268 11.14435,-5.70338 22.44245,-11.13252 33.38489,-17.22113 5.46451,-0.58006 14.20537,-1.41277 -14.20952,-6.74516 -1.73723,-0.32601 -2.8735,2.0593 -4.29587,3.10863 -5.86769,4.32876 -11.61624,8.8152 -17.40775,13.24456 -0.88721,0.84917 -1.97162,1.53157 -2.66162,2.54751 -0.28753,0.42334 -0.56545,1.30065 -0.10868,1.53142 5.12688,2.59017 10.33852,5.33462 15.9671,6.48047 1.71551,0.34924 3.17757,-1.47245 4.73846,-2.26529 4.90381,-2.49085 6.99171,-3.77194 11.81268,-6.53639 1.94264,-1.1845 3.88822,-2.3642 5.82792,-3.55351 4.47851,-2.74595 8.99301,-5.47352 13.30943,-8.47306 0.65181,-0.45295 2.58101,-1.00805 1.90658,-1.4266 -4.79779,-2.9775 -10.29254,-4.64766 -15.43882,-6.97148 -11.72135,5.99277 -22.91179,12.94688 -34.23961,19.6353 -6.60264,3.95287 -13.30201,7.72362 -20.18434,11.16672 -9.33663,4.8581 -9.99423,3.7481 8.12157,11.42393 0.83219,0.3526 1.70531,-0.59973 2.5527,-0.91405 1.02537,-0.38033 2.04352,-0.77986 3.06527,-1.1698 6.88738,-3.16305 13.93717,-5.90731 21.04709,-8.52021 4.06204,-1.52457 8.09972,-3.2178 12.32549,-4.25606 1.68407,-0.41377 2.88582,-0.56931 4.57605,-0.83571 -1.4108,-2.79602 3.18988,0.90932 2.44908,0.52434 -4.45476,-2.31509 -8.49787,-5.5392 -13.24768,-7.16519 -0.90867,-0.31106 -1.4379,1.27434 -2.1802,1.8838 -2.94314,2.41647 -3.50484,2.75165 -6.63769,5.0276 -6.26617,4.40862 -12.714,8.5456 -19.11454,12.75349 -4.45769,4.93043 -2.50115,2.00475 11.93444,10.09798 0.63232,0.3545 1.41442,-0.31883 2.11844,-0.49163 2.98621,-0.73295 5.93525,-1.60178 8.89459,-2.4344 5.27098,-1.7298 10.76117,-2.53812 16.20623,-3.48887 4.60406,-0.82453 9.1585,-1.85176 13.62925,-3.22747 3.11796,-1.15071 6.24676,-2.27099 9.18927,-3.82602 1.66601,-0.96562 3.51589,-1.59353 5.16478,-2.58761 0.59316,-0.3576 1.14403,-0.78107 1.71659,-1.1708 1.74687,-1.35545 2.65746,-2.35985 3.62271,-4.37357 0.84126,-2.07386 1.06124,-4.30847 1.19133,-6.52137 0.0789,-1.7605 0.0646,-3.52332 0.0576,-5.28505 0.42359,-6.7192 3.03353,-1.77248 -13.2615,-9.57841 -0.44856,-0.21487 -0.88179,0.46044 -1.3207,0.69441 -0.54734,0.29178 -1.09201,0.58855 -1.63801,0.88282 -3.72432,2.34742 -7.18224,5.08426 -10.82303,7.54849 -3.13256,2.27465 -6.59511,3.9843 -10.07352,5.64923 -2.68913,1.31556 -5.50527,2.2938 -8.12552,3.76052 4.28068,2.88035 8.26686,6.25599 12.84202,8.64104 0.64153,0.33443 1.30296,-0.62985 1.9647,-0.92223 4.26541,-1.8846 1.57695,-0.53142 6.36978,-2.80944 1.13947,-0.54159 6.36523,-3.15514 7.52569,-3.73405 2.81628,-1.45312 5.68135,-2.8072 8.50641,-4.24271 0.33246,-0.16893 1.29943,-0.30491 0.99237,-0.51652 -12.71423,-8.76181 -8.74434,-10.10314 -15.04117,-6.92273 -6.79382,3.53204 -13.74745,6.74262 -20.52354,10.31127 -7.5434,3.95521 -15.43438,7.12357 -23.44161,9.9938 -4.93666,1.93963 -10.00951,3.44204 -15.13808,4.76283 -0.61961,0.37578 -4.11298,0.37957 -4.53103,0.75257 -0.23898,0.21323 -0.7467,0.65064 -0.48212,0.83114 4.26858,2.91201 8.88087,5.28514 13.32131,7.92771 3.06017,-0.26036 6.1004,-0.66469 9.16565,-0.88282 3.5349,-0.27157 7.08772,-0.15372 10.62077,-0.41487 2.34311,-0.20178 4.68416,-0.42837 7.03502,-0.51429 1.98063,0.0101 3.95881,-0.2504 5.90142,-0.62775 1.98537,-0.26974 3.8929,-0.84394 5.80038,-1.43236 1.70419,-0.58082 3.50678,-0.50524 5.26603,-0.74464 2.53961,-0.30944 5.00901,-1.04243 7.50092,-1.60707 1.79673,-0.39005 3.62652,-0.69197 5.40419,-1.16894 0.77169,-0.20705 0.73152,-0.48877 0.6584,0.0322 -15.02092,-10.25008 -8.42834,-9.62098 -17.23578,-6.65309 -1.91185,0.77525 -3.84198,1.48065 -5.76047,2.23372 -2.1782,0.94213 -4.52971,1.33577 -6.77528,2.06463 -1.92286,0.62993 -3.95096,0.6523 -5.85054,1.34594 -1.43592,0.6249 -2.95828,0.80537 -4.50244,0.90949 -1.69973,0.41292 -3.45038,0.54237 -5.19138,0.64517 -1.88828,0.13475 -3.82163,0.27962 -5.61684,0.9172 -0.0211,-0.0295 -0.0943,-0.10741 -0.0634,-0.0885 4.4075,2.68861 8.5688,5.82092 13.20029,8.10215 0.50696,0.2497 0.95543,-0.60426 1.44328,-0.88951 2.47696,-1.44829 4.88574,-2.95444 7.29325,-4.51881 4.43353,-2.70197 8.70382,-5.65959 12.75546,-8.90627 1.32906,-0.98398 2.49335,-2.14207 3.62575,-3.33846 0,0 -12.90598,-7.87335 -12.90598,-7.87335 v 0 c -1.10475,1.13152 -2.24531,2.21955 -3.51853,3.16535 -4.0487,3.17935 -8.28306,6.10197 -12.67783,8.78408 -1.64902,1.06545 -3.39232,2.21147 -5.07695,3.22299 -0.72249,0.43381 -1.46465,0.83405 -2.19248,1.25885 -0.47497,0.27721 -1.81706,0.47105 -1.41578,0.8471 10.42477,9.76936 7.5619,11.33669 12.0127,8.76713 1.78097,-0.40206 3.61469,-0.5307 5.43243,-0.65354 1.74871,-0.15261 3.47842,-0.41518 5.21287,-0.6753 1.60693,-0.20434 3.15791,-0.59502 4.6777,-1.16108 1.93936,-0.48218 3.95267,-0.655 5.84512,-1.338 2.30159,-0.64532 4.63,-1.21698 6.8368,-2.15547 1.91913,-0.72053 3.81715,-1.49554 5.74076,-2.20447 8.62643,-3.25519 5.68409,-1.80659 -7.41768,-10.83793 -0.57951,0.42283 -1.36317,0.47509 -2.05091,0.62728 -1.43747,0.31811 -2.87464,0.63797 -4.31681,0.93429 -2.44658,0.58032 -4.88995,1.23651 -7.40174,1.46555 -1.83742,0.16771 -3.67129,0.3449 -5.42332,0.97071 -1.86505,0.56113 -3.76192,0.9855 -5.68941,1.27195 -1.92476,0.2718 -3.85014,0.48183 -5.79717,0.48098 -2.35121,0.13789 -4.69492,0.37057 -7.04479,0.52789 -3.54525,0.15356 -7.09771,0.15487 -10.63737,0.43806 -3.05823,0.25769 -6.10045,0.66447 -9.16265,0.87861 4.10095,2.6678 8.35865,5.10888 12.30286,8.00339 0.22243,0.16323 -0.50266,0.42091 -0.45351,0.69239 0.0141,0.0781 4.37054,-0.75142 4.58956,-0.83694 5.16506,-1.33006 10.23089,-2.98806 15.21856,-4.88087 8.04727,-2.92727 15.97342,-6.16211 23.55564,-10.16528 6.79245,-3.54284 13.74759,-6.75919 20.5298,-10.32082 6.1694,-3.46088 3.5939,-1.2335 -10.25015,-9.64727 -0.31437,-0.19106 -0.65421,0.33667 -0.98284,0.50202 -3.77307,1.89844 -0.71516,0.34579 -5.12115,2.54028 -1.12963,0.56264 -2.25547,1.13287 -3.38321,1.69931 -3.64669,1.81381 -7.27715,3.65196 -11.01842,5.26635 -0.92249,0.39807 -1.84114,0.80968 -2.78853,1.14419 -0.5191,0.18329 -2.01711,0.0453 -1.60091,0.40566 3.71695,3.21784 7.99353,5.72576 11.99029,8.58864 2.63436,-1.37598 5.4429,-2.34498 8.08645,-3.70104 3.53151,-1.71393 7.01231,-3.53031 10.19911,-5.84269 3.562,-2.48006 7.00535,-5.14327 10.72295,-7.3938 0.5256,-0.26341 1.03573,-0.56029 1.57681,-0.79022 0.34553,-0.14683 1.37754,-0.11453 1.07482,-0.33657 -13.82664,-10.14164 -11.55582,-12.30727 -12.54762,-6.01864 0.009,1.73726 0.0275,3.47508 -0.0202,5.21196 -0.0821,2.02459 -0.20817,4.07984 -0.90984,6.00091 -0.81376,1.75352 -1.64737,2.5454 -3.20333,3.67747 -2.14295,1.42279 -4.50639,2.42113 -6.78341,3.60728 -2.91093,1.43792 -5.96998,2.53986 -9.03631,3.59764 -4.44558,1.29448 -8.96449,2.28607 -13.52651,3.07895 -5.48707,0.94315 -10.98138,1.90216 -16.29401,3.61552 -1.12137,0.3136 -4.98063,1.40492 -6.11919,1.67531 -0.86475,0.20537 -1.72806,0.45221 -2.61364,0.5278 -0.54137,0.0462 -2.04418,-0.50768 -1.62151,-0.16625 11.42704,9.23077 8.40436,11.68934 12.60187,7.50083 6.42684,-4.20992 12.88092,-8.38087 19.1554,-12.81757 2.49735,-1.83513 4.3837,-3.14306 6.72175,-5.16166 0.83724,-0.72285 3.09224,-1.40127 2.41497,-2.27578 -6.33848,-8.18436 -7.96984,-10.4425 -14.66541,-9.60946 -5.89378,1.07124 -11.51294,3.08172 -17.0598,5.32199 -7.10879,2.62566 -14.12733,5.44994 -21.05306,8.52907 -1.01221,0.37581 -2.01669,0.77314 -3.03664,1.12742 -0.81369,0.28264 -3.03652,0.14035 -2.46272,0.78279 11.80339,13.21539 6.99615,10.9296 11.92284,8.12062 1.31947,-0.7523 3.74865,-1.97655 5.01135,-2.62453 6.89121,-3.49042 13.61336,-7.28283 20.24024,-11.25236 11.27734,-6.67828 22.43811,-13.59569 34.1506,-19.49953 -3.31035,-3.15832 -6.16118,-6.88237 -9.93104,-9.47496 -0.63445,-0.43632 -1.23051,0.92684 -1.86559,1.36225 -1.15761,0.79367 -2.33243,1.56218 -3.51117,2.32412 -5.12389,3.31211 -10.35273,6.45766 -15.57115,9.61718 -4.38295,2.49441 -7.24864,4.21481 -11.74375,6.43131 -1.51803,0.74853 -5.44101,0.61334 -4.62479,2.09606 2.12153,3.85393 7.02265,5.3155 10.31252,8.23619 0.20792,0.18458 -0.98326,0.41742 -0.80971,0.20021 0.73463,-0.91941 1.71836,-1.60849 2.57754,-2.41273 5.78153,-4.42323 11.52997,-8.88866 17.38712,-13.21198 1.42972,-1.05531 5.0733,-1.52866 4.31223,-3.13445 -5.81826,-12.27593 -6.3744,-11.75565 -11.23511,-9.58703 -10.94552,6.03635 -22.20646,11.4862 -33.34269,17.15676 -4.22937,2.06502 -10.22531,5.0476 -14.57292,6.96022 -1.81778,0.79967 -6.27975,0.40599 -5.52019,2.24089 1.70084,4.10876 6.3992,6.24034 10.07003,8.75027 1.49441,1.02179 0.88047,-9.44405 3.83393,-3.84665 10.06538,-8.93869 20.2702,-17.72751 30.91727,-25.97198 10.50559,-7.86626 21.24325,-15.45041 32.62871,-22.00546 7.36761,-3.8532 3.96829,-0.86418 -8.13522,-10.03306 -0.061,-0.0462 0.28008,-0.0735 0.22901,-0.0165 -0.47916,0.5348 -1.02792,1.00305 -1.55236,1.49352 -0.76503,0.71545 -1.53338,1.4276 -2.31581,2.12398 -1.03519,0.92135 -2.09105,1.81921 -3.13658,2.72881 -11.95628,10.17483 -24.62464,19.47989 -37.83252,27.9695 -4.36546,2.74513 -10.44576,6.69692 -15.10959,9.17839 -1.49209,0.79389 -5.49167,0.65909 -4.61365,2.10329 2.38531,3.9234 6.89231,6.21587 10.96295,8.34018 1.93356,1.00905 0.87576,-8.92908 3.97258,-5.19905 7.97197,-8.85114 16.43325,-17.24046 25.87613,-24.53933 4.62049,-3.60275 9.25775,-7.09819 14.12437,-10.36353 1.0398,-0.69767 3.88038,-1.05567 3.13843,-2.06435 -8.3794,-11.39171 -7.52997,-11.87727 -11.60778,-8.80552 -8.62141,6.08752 -17.25943,12.16238 -26.08925,17.94303 -11.65263,7.29252 -23.38273,14.63386 -36.00522,20.15284 3.76123,2.73954 7.65708,5.30322 11.28369,8.21863 0.17317,0.13921 -0.64943,0.598 -0.45933,0.48299 0.54064,-0.3271 1.0066,-0.76466 1.52415,-1.12721 3.62633,-2.54031 7.40811,-4.8487 11.16951,-7.18018 4.99607,-3.03314 5.5246,-3.4057 10.64708,-6.30516 4.6037,-2.6058 9.38129,-4.97264 13.86718,-7.78308 0.88771,-0.55616 1.72092,-1.19491 2.58138,-1.79236 0.50182,-0.59773 2.09084,-1.27701 1.50547,-1.79319 -3.87871,-3.42027 -8.57482,-5.79813 -13.05103,-8.38775 -0.47089,-0.27242 -1.08498,-0.086 -1.62866,-0.10489 -2.94034,-0.10204 -5.89671,-0.0548 -8.77687,-0.79164 -6.84974,-2.01396 -3.16404,-1.19536 7.6358,5.56497 0.6805,0.42597 -1.44013,-0.72013 -2.10585,-1.16884 -1.12844,-0.76059 -2.34725,-1.94327 -3.22517,-2.98418 -0.37019,-0.43891 -0.67583,-0.92844 -1.01374,-1.39266 0,0 -13.77387,-6.23173 -13.77387,-6.23173 z" />
    <path
       style="fill:#ffffff"
       id="path1033"
       d="m 232.73967,343.98425 c -0.16239,-4.21792 -0.38636,-8.43294 -0.53272,-12.65164 -0.17653,-6.95973 -1.85631,-4.87751 -13.29234,-10.63359 -0.04,-0.0201 -3.53227,3.33793 -3.78645,3.58181 -1.99028,1.91133 -4.00381,3.86285 -6.2969,5.4174 -1.06135,0.71952 -1.93388,1.15314 -3.0558,1.75665 -1.95113,0.78708 -4.0813,1.77702 -6.2486,1.72206 -0.41992,-0.0106 -0.83194,-0.11686 -1.24792,-0.1753 -0.48134,-0.10515 -0.97296,-0.17113 -1.44404,-0.31546 -1.88325,-0.57698 -3.69696,-1.49191 -5.50071,-2.26758 -2.1798,-0.9374 -2.2769,-0.95062 -4.52683,-1.82148 -4.44489,-1.59935 -9.05198,-2.51641 -13.72931,-3.06968 -0.51119,-0.087 -1.04311,-0.0927 -1.53355,-0.26109 -0.28832,-0.099 -1.01299,-0.67747 -0.75025,-0.5229 4.24182,2.49551 8.37529,5.17918 12.68969,7.54702 0.17035,0.0935 0.32998,-0.20543 0.49213,-0.31253 0.47218,-0.31192 0.93292,-0.64129 1.41076,-0.94447 0.64704,-0.41054 1.30876,-0.79748 1.96314,-1.19621 5.32786,-2.88263 10.80956,-5.47437 16.22858,-8.18209 4.78718,-1.95989 9.10461,-4.78507 13.46258,-7.52548 2.62671,-1.56346 5.19283,-3.22119 7.80177,-4.81406 1.1227,-0.93327 3.56593,-1.49092 4.53824,-2.47123 0.16716,-0.16853 0.24952,-0.40389 0.37428,-0.60583 -4.23667,-2.89754 -8.32988,-6.01688 -12.71002,-8.69261 -0.29187,-0.1783 -0.64392,0.2312 -0.96946,0.33612 -2.15826,0.69562 -4.30644,1.33446 -6.42473,2.15203 -4.29152,1.63988 -8.41307,3.66717 -12.6077,5.53018 -4.82936,2.0624 -9.56932,4.30241 -14.24575,6.68873 -3.90778,2.11644 -7.73683,4.3642 -11.5033,6.72178 -1.61315,0.98308 -3.112,2.13675 -4.70891,3.14424 -0.37871,0.23893 -0.78785,0.42969 -1.15472,0.68643 -0.77674,0.54356 -1.56314,1.30623 -2.2582,1.94248 -1.3674,1.53824 -3.49987,3.52541 -3.14491,5.83895 0.0542,0.35357 0.23681,0.67509 0.35521,1.01264 4.611,2.65737 9.10124,5.53626 13.833,7.9721 0.39531,0.2035 0.88276,-0.1075 1.32296,-0.17003 2.35331,-0.33431 4.41661,-1.16882 6.57287,-2.14245 4.66944,-2.08131 9.10602,-4.67138 13.44997,-7.35827 4.57957,-2.99451 9.14835,-6.0171 13.558,-9.25944 2.82993,-2.279 5.77344,-4.40642 8.73187,-6.51307 1.93406,-1.45357 3.91458,-2.83753 5.84743,-4.29188 1.50721,-1.13725 2.80699,-2.51181 4.20715,-3.77294 0.53578,-0.55497 1.54467,-0.85008 1.93694,-1.55022 2.9445,-5.25545 -8.98814,-6.22301 -12.95355,-8.48667 -2.46378,1.36153 -4.50197,3.20247 -6.39761,5.26251 -0.39857,0.48953 -5.58042,6.12839 -4.84005,6.67322 4.2012,3.09163 8.7864,5.62424 13.1796,8.43636 3.68207,-1.12239 6.2577,-3.8927 8.89656,-6.52432 0.0606,-0.0662 1.62195,-1.787 1.8513,-1.9885 0.12384,-0.10881 0.28737,-0.16161 0.43105,-0.24242 -4.39526,-2.2892 -8.63135,-4.91417 -13.18578,-6.86759 -0.34145,-0.14645 -0.2515,0.70012 -0.40601,1.03799 -0.22397,0.48975 -0.48546,0.96145 -0.72819,1.44218 -0.86092,1.6686 -2.0156,3.14343 -3.23225,4.56183 -0.24595,0.28673 -0.47983,0.58649 -0.7558,0.84446 -0.0265,0.0247 -0.071,-0.11872 -0.0392,-0.10134 4.40101,2.40648 8.77951,4.85392 13.16926,7.28089 1.46759,-2.4309 3.48191,-4.44214 4.9583,-6.86589 1.06137,-2.32718 0.93692,-4.83266 0.0823,-7.19189 -2.80578,-4.83762 -12.6773,-7.80282 -14.85026,-8.84928 -0.31655,-0.15245 -3.53109,1.16694 -3.87595,1.30947 -4.47781,1.99153 -8.79044,4.33462 -13.22011,6.43083 -4.21998,2.0963 -8.51473,4.03792 -12.87256,5.82964 -2.77042,1.16583 -5.6843,1.88722 -8.58772,2.62102 -2.80453,0.92069 -5.70723,1.44571 -8.56832,2.15075 -2.29694,0.62103 -4.58347,1.319 -6.66594,2.49128 -0.12684,0.0518 -0.49398,0.0785 -0.38052,0.15532 4.23064,2.86275 8.3752,5.89525 12.88037,8.30297 0.43136,0.23053 0.84219,-0.49762 1.26527,-0.74304 2.97907,-1.72813 5.83126,-3.60518 8.70066,-5.51101 5.75823,-3.98884 11.70446,-7.70199 17.74697,-11.24239 2.80788,-1.4419 5.6684,-2.82242 8.61115,-3.96542 2.70305,-1.02336 5.36367,-2.15739 8.10939,-3.06346 1.86988,-0.63702 3.74282,-1.3128 5.66466,-1.77909 1.44074,-0.18382 2.82028,-0.62291 4.25689,-0.83578 0.96481,-0.11847 1.939,-0.1301 2.9096,-0.15324 0.20012,-0.005 0.40765,-0.0685 0.60035,-0.0143 0.0912,0.0256 0.11119,0.15329 0.16679,0.22994 -12.44464,-7.68644 -11.33159,-11.89752 -15.32577,-3.63822 -0.92044,2.08126 -1.91653,4.06144 -3.30388,5.86997 -1.67673,1.99068 -4.14201,2.87169 -6.44358,3.91089 -5.85047,2.07862 -6.41927,-0.30481 11.67311,7.81678 0.39119,0.1756 0.56205,-0.64848 0.86246,-0.95446 0.8056,-0.82054 1.65794,-1.59387 2.48089,-2.39702 2.13255,-1.90308 3.73829,-3.81663 4.58765,-6.56018 0.51997,-2.17666 0.50849,-4.42627 0.51403,-6.65016 -0.0365,-1.98098 0.0282,-3.96596 -0.0874,-5.94446 -0.0469,-1.31854 -0.54398,-2.4502 -1.18941,-3.56455 -11.86794,-7.43097 -10.44561,-9.61528 -19.54019,-6.64195 -2.90504,1.06197 -5.64842,2.5092 -8.47323,3.76296 -2.82972,1.2514 -5.55757,2.71314 -8.35105,4.03951 -2.73802,1.46585 -5.62337,2.6416 -8.46532,3.89092 -2.93432,1.44932 -5.95304,2.71572 -8.93136,4.07021 -2.61697,1.18126 -5.17726,2.46451 -7.68626,3.85548 -0.43106,0.29155 -1.18643,0.74935 -1.55054,1.17364 -3.52989,4.11327 7.88695,6.33505 13.16143,8.67144 0.33506,0.14842 0.66895,-0.29947 1.00343,-0.44921 1.5692,-0.85195 3.27529,-1.39841 4.82461,-2.29156 0.80789,-0.46573 1.57825,-0.99384 2.37385,-1.48028 2.34583,-1.58221 4.30424,-3.63646 6.41685,-5.49806 1.46344,-1.30423 2.65707,-2.81893 3.34364,-4.6575 0.25683,-1.25844 0.81728,-2.81572 0.29801,-4.09133 -0.10581,-0.25993 -0.31332,-0.46569 -0.46998,-0.69854 -4.55348,-2.53758 -9.0634,-5.15497 -13.66045,-7.61274 -0.17399,-0.093 -0.39472,-0.015 -0.59186,-0.007 -0.12411,0.005 -0.47422,-0.0219 -0.36984,0.0455 4.24259,2.73583 8.50906,5.4383 12.85552,8.0059 0.073,0.0431 0.4994,-0.37586 0.75985,-0.61595 1.05025,-1.01942 1.86431,-2.28026 2.42797,-3.62806 0.31654,-0.52272 0.40322,-1.30266 0.96533,-1.64806 0.0979,-0.0602 0.21352,-0.0853 0.32028,-0.12794 0.13562,-0.0966 0.27123,-0.19324 0.40684,-0.28986 5.19693,-2.57523 10.31369,3.11931 -12.05308,-8.24825 -0.31398,-0.15958 -0.57926,0.4008 -0.86889,0.60121 -2.16543,1.33756 -4.16339,2.92389 -6.13481,4.52914 -1.66623,1.5478 -3.16695,3.26179 -4.80545,4.83609 -4.54417,4.78544 2.02375,3.79484 12.61783,9.20028 0.0449,0.0229 3.73072,-1.71529 3.99793,-1.84236 2.68136,-1.48749 5.35558,-2.96967 8.08898,-4.35972 1.77149,-0.97442 3.61795,-1.83865 5.50693,-2.55921 1.83273,-0.61603 3.6719,-1.20408 5.51169,-1.79859 1.74554,-0.54089 3.55893,-0.73243 5.34083,-1.11531 1.46277,-0.3253 2.95799,-0.3803 4.44952,-0.41387 1.62889,-0.0231 3.25805,-0.0161 4.88705,-0.0128 0.7882,0.19692 0.44532,0.0265 1.04462,0.47783 0,0 -11.91856,-9.30063 -11.91856,-9.30063 v 0 c -0.87451,-0.0778 -0.42265,-0.0541 -1.35592,-0.0645 -1.64103,8e-5 -3.28289,-0.005 -4.92286,0.0623 -1.54681,0.0866 -3.08424,0.26499 -4.59518,0.61963 -1.81956,0.37014 -3.67292,0.59739 -5.42732,1.241 -1.87635,0.58373 -3.73576,1.22084 -5.57977,1.8995 -1.8899,0.82 -3.77812,1.64933 -5.57518,2.66212 -2.72347,1.37718 -5.34241,2.93712 -8.06232,4.31931 -0.6843,0.3143 -2.00098,0.94025 -2.73657,1.19988 -0.32907,0.11614 -1.28367,0.058 -1.01018,0.27479 13.7453,10.89314 8.53254,11.61904 12.61923,7.42493 1.58097,-1.56706 3.0709,-3.22812 4.73039,-4.71521 1.96252,-1.57136 3.95718,-3.10421 6.08414,-4.44895 0.30082,-0.21807 1.18637,-0.41454 0.90245,-0.65421 -7.7916,-6.57739 -8.31092,-11.32876 -13.4836,-7.94085 -1.05349,0.71525 -1.69754,1.6303 -2.14331,2.82068 -0.43797,1.15738 -1.16584,2.19887 -2.07857,3.03463 -0.0545,0.0481 -0.92528,0.80376 -0.89054,0.83075 3.96643,3.08211 8.18217,5.82945 12.29744,8.70984 0.21262,0.14882 0.55613,0.0335 0.73193,0.26553 -4.11791,-2.3947 -8.23583,-4.78939 -12.35375,-7.18409 0.11825,0.0189 1.04835,0.11235 1.20019,0.31114 0.361,0.47262 -0.13437,2.13833 -0.19015,2.6962 -0.51158,1.63225 -1.70596,2.86555 -2.95481,3.99408 -2.02917,1.82599 -3.95843,3.79249 -6.27205,5.26938 -2.2578,1.37928 -4.6055,2.54372 -7.05381,3.5521 -5.58612,1.85709 -0.0223,-0.24329 11.68112,7.64689 0.40851,0.27541 -1.63103,1.30748 0.076,0.15975 0.2753,-0.18511 0.5646,-0.3485 0.84691,-0.52274 2.4821,-1.36587 5.04373,-2.57855 7.62031,-3.75523 2.97736,-1.34282 5.97456,-2.64164 8.92032,-4.05358 2.86232,-1.24381 5.72956,-2.48833 8.49579,-3.93692 2.76914,-1.35042 5.50943,-2.76014 8.32879,-4.00587 2.76516,-1.25474 5.47188,-2.67247 8.36843,-3.60722 1.26633,-0.36215 2.56448,-0.78342 3.89756,-0.80012 0.85192,-0.0107 0.82765,0.0752 1.53593,0.42768 -4.10255,-2.46371 -8.2051,-4.92742 -12.30765,-7.39113 0.87022,0.63506 1.41465,1.66666 1.57425,2.72657 0.29538,1.91362 0.0477,3.87804 0.15627,5.8075 0.009,2.09402 0.0596,4.20901 -0.31768,6.27765 -0.62923,2.46598 -2.34965,4.1958 -4.19368,5.88001 -0.32766,0.3196 -3.65762,3.49777 -3.50955,3.62853 10.25275,9.05415 7.97742,10.62804 13.96992,8.18094 2.5228,-1.13814 5.07757,-2.32734 6.8435,-4.54726 1.43052,-1.90044 2.50357,-3.95606 3.45643,-6.13263 3.80252,-7.93496 6.00519,-2.82532 -9.84222,-12.99277 -1.31575,0.30131 -2.7269,0.0687 -4.0426,0.43813 -1.44785,0.29793 -2.89095,0.62174 -4.3327,0.94508 -1.92223,0.5696 -3.83482,1.18028 -5.7206,1.8611 -2.74705,0.97129 -5.44361,2.07764 -8.158,3.13566 -2.96416,1.26301 -5.91996,2.56526 -8.73087,4.14719 -6.05698,3.565 -12.00387,7.32161 -17.79115,11.31094 -2.0647,1.36328 -4.22082,2.82155 -6.34676,4.10232 -0.74734,0.45023 -1.50867,0.8775 -2.2773,1.29035 -0.36773,0.19752 -1.45346,0.27595 -1.12997,0.53975 11.25958,9.18223 7.85353,10.77408 12.66198,8.30613 2.05871,-0.98645 4.25118,-1.63592 6.4617,-2.18772 2.86526,-0.69453 5.75463,-1.28469 8.57389,-2.15883 2.96319,-0.74043 5.89479,-1.61773 8.71335,-2.8061 4.36341,-1.83564 8.67479,-3.78933 12.91544,-5.89422 4.38121,-2.11024 8.66513,-4.43844 13.14946,-6.32484 0.79723,-0.27088 1.6527,-0.63379 2.51458,-0.67988 0.2792,-0.0149 1.07008,0.25495 0.83172,0.10879 -18.76731,-11.50759 -15.88476,-8.71313 -10.93879,-6.55684 1.1779,1.68282 1.33452,3.92655 0.61867,5.83 -1.51283,2.47276 -3.62336,4.50648 -5.0562,7.03708 4.23053,2.78584 8.38879,5.68466 12.6916,8.35752 0.11663,0.0725 0.19532,-0.19325 0.28736,-0.29514 0.26485,-0.29315 0.5285,-0.58756 0.78305,-0.88969 1.27543,-1.51383 2.4844,-3.08757 3.40139,-4.851 0.26271,-0.51611 0.54183,-1.02418 0.78813,-1.54831 0.2028,-0.43159 0.93409,-1.0235 0.55835,-1.31712 -12.01227,-9.38683 -10.01885,-11.64406 -15.33077,-5.90598 -1.79042,1.77947 -4.35818,4.82031 -7.00038,5.20786 -0.29162,0.0428 -0.58062,-0.10179 -0.87093,-0.15268 4.02282,2.65442 7.9953,5.38677 12.06847,7.96326 0.11339,0.0717 -0.15575,-0.27006 -0.0969,-0.39064 0.21338,-0.43739 0.56456,-0.79318 0.86224,-1.17819 1.14105,-1.47578 2.35791,-2.89629 3.60821,-4.2798 1.58596,-1.68233 3.44224,-3.73251 5.76525,-4.30599 -4.2131,-2.54932 -8.56527,-4.88182 -12.6393,-7.64798 -0.21311,-0.1447 0.33388,-0.3983 0.45002,-0.62823 0.0471,-0.0933 -0.15595,0.13926 -0.23661,0.20573 -0.55561,0.45787 -1.15351,0.8601 -1.69495,1.33579 -1.35883,1.24037 -2.64174,2.57235 -4.13464,3.65708 -1.919,1.45056 -3.90613,2.80573 -5.82514,4.25672 -2.96436,2.10935 -5.88464,4.27737 -8.74246,6.52975 -4.39397,3.19928 -8.92679,6.20958 -13.49223,9.15664 -4.30697,2.6285 -8.69454,5.17349 -13.33203,7.17839 -1.61461,0.66836 -3.19119,1.33514 -4.94353,1.54626 -5.13769,0.61898 -13.74732,-7.46153 9.72713,7.05026 -0.23995,-0.0713 -0.52011,-0.0631 -0.71985,-0.21402 -1.18523,-0.89541 1.85209,-3.97341 2.42794,-4.54589 2.44199,-2.14394 5.31075,-3.71203 7.98142,-5.55112 3.74114,-2.32298 7.54254,-4.54338 11.43148,-6.61142 4.66388,-2.36268 9.40496,-4.55199 14.20446,-6.62622 4.15951,-1.87582 8.27828,-3.84601 12.55452,-5.45065 1.64953,-0.59544 3.32117,-1.23265 5.04263,-1.59795 0.36175,-0.0768 0.73109,-0.18172 1.09941,-0.14867 0.18958,0.017 0.32738,0.19427 0.49107,0.29141 -4.04564,-2.7953 -8.09128,-5.59059 -12.13692,-8.38589 -1.49052,0.86633 -3.08899,1.54686 -4.54602,2.47941 -2.60577,1.60644 -5.19029,3.24617 -7.81092,4.82826 -4.32192,2.71934 -8.65468,5.41931 -13.38153,7.40097 -5.45576,2.72376 -10.99132,5.30639 -16.30537,8.29999 -0.95554,0.60573 -2.68974,1.62849 -3.56714,2.44843 -0.384,0.35884 -1.40022,0.87251 -1.00295,1.21659 7.44833,6.45106 8.6187,8.38054 15.11935,9.26037 4.61007,0.64895 9.14931,1.68107 13.50224,3.3662 3.83153,1.54046 7.61457,3.58519 11.77229,4.0085 2.81893,-0.10125 5.47716,-0.90361 7.97168,-2.23334 3.55204,-2.01968 6.71321,-4.56746 9.56112,-7.50291 0.0581,-0.0554 2.15763,-2.09521 2.47518,-2.27343 0.0932,-0.0523 0.3483,0.24732 0.25797,0.19025 -4.10953,-2.59651 -8.21085,-5.206 -12.31627,-7.80901 0.0837,0.25546 0.21511,0.49997 0.251,0.76638 0.0637,0.47319 0.0301,0.95446 0.0451,1.4317 0.13767,4.2041 0.32794,8.40601 0.55578,12.6062 0,0 13.47024,6.86343 13.47024,6.86343 z" />
    <path
       style="fill:#ffffff"
       id="path1035"
       d="m 185.8578,280.25304 c 2.1647,-1.03493 4.30367,-2.1219 6.44766,-3.19929 1.27197,-0.62913 2.53847,-1.12777 3.94755,-1.32128 1.43773,-0.12953 2.88474,-0.10256 4.32689,-0.10046 1.74211,0.005 3.48422,0.0109 5.22634,0.0137 1.74919,0.003 3.49839,0.003 5.24759,0.003 1.44315,9e-5 2.8863,0 4.32945,-3e-5 1.33089,-4e-5 2.66179,-5e-5 3.99269,-5e-5 1.32776,0 2.65551,0 3.98326,0 1.32931,0 2.65862,0 3.98793,0 0.17489,0.0539 0.34978,0.10779 0.52467,0.16169 0,0 -12.10961,-9.05049 -12.10961,-9.05049 v 0 c -0.21526,8.9e-4 -0.43052,0.002 -0.64578,0.003 -1.32931,0 -2.65861,0 -3.98792,0 -1.32776,0 -2.65552,0 -3.98327,10e-6 -1.33091,1e-5 -2.66181,3e-5 -3.99271,7e-5 -1.44308,3e-5 -2.88616,9e-5 -4.32924,-2.5e-4 -1.74869,-5.5e-4 -3.49737,-10e-4 -5.24605,-0.005 -1.74413,-0.004 -3.48827,-0.0127 -5.23239,-0.005 -1.50245,0.0167 -3.01946,0.0159 -4.49505,0.33689 -1.46312,0.37423 -2.82923,0.98965 -4.17862,1.66268 -2.15021,1.10101 -4.33465,2.13332 -6.47881,3.24688 0,0 12.66542,8.25477 12.66542,8.25477 z" />
    <path
       style="fill:#ffffff"
       id="path1037"
       d="m 517.46462,337.23029 c -2.56265,4.0164 -4.88261,8.17784 -7.31927,12.26999 -1.7766,3.09546 -4.32727,5.482 -7.18992,7.54762 -2.68734,1.95262 -5.15996,4.16998 -7.5556,6.46553 -1.38721,1.40056 -2.95482,2.59485 -4.53481,3.76485 -1.22963,0.91055 -2.3367,1.76135 -3.77132,2.29409 -5.09097,-1.74318 -1.08156,-0.40133 12.37559,6.98305 0.0258,0.0142 -0.004,-0.0636 0.0139,-0.0874 0.1837,-0.24854 0.37344,-0.49383 0.58333,-0.72068 0.75786,-0.81912 1.45438,-1.37948 2.30908,-2.12616 4.70831,-3.64505 10.04801,-6.34425 15.17505,-9.33458 2.03876,-1.27739 4.2988,-2.28601 6.19949,-3.78479 0.32219,-0.25406 0.62927,-0.53694 0.87598,-0.8648 0.15744,-0.20924 0.5329,-0.57258 0.31596,-0.71924 -4.29597,-2.90429 -8.86989,-5.37458 -13.30483,-8.06188 -3.57739,1.68493 -6.85132,3.90699 -10.27248,5.87217 -2.74604,1.62213 -5.6826,2.87125 -8.61663,4.10562 -2.65401,1.21151 -5.20027,2.67454 -7.58553,4.35282 -2.14447,1.40823 -4.28086,2.81275 -6.3615,4.31081 -1.40627,0.71348 -2.30929,1.77998 -2.62065,3.32068 0.81016,7.36832 12.11254,9.3282 18.52914,9.04592 2.50936,-0.31243 5.04454,-0.61344 7.40166,-1.56914 1.97441,-0.61026 2.76446,-1.84839 3.76012,-3.5379 1.07739,-2.05927 1.9625,-4.20328 2.99711,-6.28434 1.3492,-2.74011 3.16209,-5.22591 4.86933,-7.75101 1.18101,-1.65339 2.46708,-3.2623 3.46898,-5.03427 1.7824,-6.11494 -7.84664,-6.6416 -13.30612,-9.6205 -0.2292,-0.12506 -3.29355,0.22879 -3.63397,0.27387 -2.89195,0.30971 -5.62076,1.31686 -8.29068,2.41542 -2.82065,1.13197 -5.46628,2.58099 -8.06971,4.13143 -2.53638,1.22945 -4.83578,2.84226 -7.17486,4.3939 -1.3709,0.9908 -2.65439,2.08728 -3.75772,3.36967 -1.68219,1.5319 -3.2942,3.1344 -4.9593,4.68411 -1.45269,1.52497 -2.83742,3.11478 -4.17917,4.73738 -3.63798,5.37456 3.79556,4.99992 12.33474,9.71531 0.36277,0.20032 0.74858,-0.35639 1.13043,-0.51739 2.83931,-1.19711 0.0772,0.11931 3.2847,-1.4869 2.05827,-1.08132 4.03317,-2.30736 5.99544,-3.55117 0.47837,-0.30323 2.68062,-1.74462 3.32498,-2.03614 0.35437,-0.16032 0.74954,-0.2081 1.1243,-0.31215 5.21693,1.88088 0.36376,0.16898 -12.03101,-6.67223 -0.15964,-0.0881 0.50681,0.0961 0.47276,0.27524 -0.0452,0.23791 -0.50356,0.73864 -0.59892,0.8559 -1.01692,1.01725 -2.09668,1.99757 -3.23289,2.88304 -1.13366,0.77062 -1.78521,1.99288 -2.66487,3.00144 -0.4999,0.5181 -1.82578,2.76169 -0.85978,3.33392 4.5024,2.66709 9.1647,5.0545 13.74706,7.58175 2.23462,0.21341 4.48944,-0.29226 6.57794,-1.06304 0.183,-0.12081 0.39287,-0.20847 0.549,-0.36244 0.24654,-0.24315 0.89597,-1.50801 0.63823,-1.67783 -10.79379,-7.11175 -8.78038,-7.42141 -15.10327,-7.57337 -2.15751,-0.16966 -4.25743,0.16954 -6.33775,0.69945 -1.47207,0.22532 -2.86569,0.7409 -4.32815,0.98616 -1.4266,0.0627 -2.75764,0.56693 -4.1574,0.79381 -1.34956,0.0761 -2.77182,0.34036 -4.09815,0.0146 -0.19362,-0.0476 -0.39408,-0.0731 -0.58087,-0.14283 -0.44722,-0.167 -1.67781,-0.9967 -1.05789,-0.6456 20.98616,11.88561 15.60495,9.05661 11.16471,6.32842 -1.5196,-0.99201 -1.64758,-2.44567 -1.34593,-4.11665 0.81182,-3.10827 3.25991,-5.22887 5.61134,-7.23229 3.34059,-2.85841 7.1928,-4.9601 11.03557,-7.04621 4.20603,-2.0403 8.36157,-4.17644 12.43734,-6.46651 2.83986,-1.81873 5.72411,-3.57291 8.44219,-5.57327 1.02334,-0.93747 3.59337,-2.12394 4.07012,-3.46338 0.1339,-0.37621 0.1713,-0.78006 0.25695,-1.17009 -4.58492,-2.39842 -9.04567,-5.05089 -13.75477,-7.19526 -0.3497,-0.15925 -0.7063,0.30296 -1.06207,0.44814 -2.01467,0.82213 -3.9665,1.70254 -5.91589,2.67225 -3.65467,2.01385 -7.46814,3.79404 -10.77826,6.35973 -0.21249,0.34647 -0.5386,0.64517 -0.63747,1.03939 -1.30502,5.20313 13.83595,8.79595 14.32339,9.01748 0.61437,0.27922 1.34531,-0.12016 2.0121,-0.22411 1.77354,-0.2765 3.17125,-0.64859 4.92228,-1.06644 4.5451,-1.30218 8.81106,-3.4264 12.94588,-5.69043 1.97421,-0.92375 3.81889,-2.13756 5.873,-2.87661 1.77393,-1.01584 3.70407,-1.74284 5.64601,-2.36653 0.2903,-0.0996 0.5646,-0.27948 0.8709,-0.29874 0.14174,-0.009 0.48783,0.29097 0.36421,0.22107 -4.36595,-2.4686 -8.555,-5.27784 -13.09134,-7.41726 -0.35331,-0.16663 -0.51614,0.58655 -0.77843,0.87603 -1.08393,1.19626 -1.25521,1.36145 -2.40611,2.57297 -3.24235,3.30458 -6.48143,6.60383 -9.86178,9.77025 -3.28404,3.17757 -6.24306,6.66774 -9.44409,9.92313 -2.01291,2.02617 -4.18264,3.87968 -6.23082,5.8679 -1.9223,1.70425 -3.86185,3.39422 -5.88858,4.9743 -0.96722,0.65082 -1.83726,1.617 -2.96371,2.01994 -0.16514,0.0591 -0.37401,0.12202 -0.52514,0.033 -0.1206,-0.071 -0.22959,-0.47479 -0.10781,-0.4058 4.37015,2.47548 8.64001,5.12397 12.96002,7.68596 0.53794,-0.73321 1.39731,-1.28776 1.82599,-2.1042 2.47982,-4.72287 -10.9966,-8.27065 -13.75481,-9.82443 -3.01935,-0.16368 -6.00541,0.25868 -8.9999,0.5565 -3.33136,0.25062 -6.66491,0.53234 -9.97631,0.97952 -1.49207,0.0622 -2.91511,0.57342 -4.40233,0.66511 -0.31252,0.0193 -0.63635,0.0538 -0.93899,-0.0266 -0.22732,-0.0604 -0.79953,-0.49519 -0.59419,-0.3805 4.19573,2.34367 8.37764,4.712 12.56647,7.06801 -0.12644,-0.0812 -0.29432,-0.11966 -0.37932,-0.24357 -0.73362,-1.06945 0.52294,-2.95045 0.98506,-3.83506 1.54566,-2.92927 3.75683,-5.3607 6.04032,-7.72501 3.25479,-3.46003 6.89274,-6.53596 10.49318,-9.62639 3.01741,-2.51586 6.22504,-4.77774 9.2122,-7.33076 2.43349,-2.03466 5.14772,-3.71373 7.78144,-5.47881 7.74668,-5.34821 5.26549,-2.15496 -8.93837,-11.02194 -3.67679,2.35575 -7.28617,4.81658 -10.95286,7.1879 -3.60708,2.14166 -6.78641,4.82897 -9.89312,7.62168 -1.86144,1.77073 -3.57985,3.68242 -5.41099,5.4821 -1.46318,1.5278 -2.96981,3.07905 -4.72685,4.26969 -1.60606,1.0531 -3.23293,2.05513 -4.91002,2.98816 -1.48842,0.87657 -2.93256,1.85966 -4.62833,2.26668 -2.29749,0.73424 -4.56561,1.54956 -6.89065,2.19388 -0.21725,0.033 -1.44035,0.30317 -1.78598,0.0997 -0.1635,-0.0962 -0.41263,-0.60608 -0.24764,-0.51244 4.26109,2.41814 8.34115,5.14836 12.62053,7.53399 0.13307,0.0742 0.031,-0.30774 0.0903,-0.44808 0.14456,-0.342 0.34422,-0.658 0.51633,-0.987 2.37142,-3.19148 5.06218,-6.13906 7.75268,-9.063 2.78598,-3.28539 5.95741,-6.19831 9.12416,-9.10549 2.81779,-2.65813 5.52878,-5.42524 8.32563,-8.10749 2.35912,-2.2275 4.9302,-4.20401 7.51479,-6.15787 2.21682,-1.57455 4.70767,-2.64853 7.23257,-3.61266 2.59322,-1.05976 5.31693,-1.74942 7.95483,-2.67784 6.95804,-2.23836 5.26274,-0.70784 -10.5794,-8.877 -0.38723,-0.19968 -0.77405,0.40021 -1.15813,0.6059 -0.57211,0.30639 -1.14022,0.62019 -1.71034,0.93029 -5.10523,2.95137 -10.1952,5.93597 -15.4318,8.64977 -3.75271,2.05164 -7.48656,4.12742 -11.25821,6.14133 -2.71694,1.28113 -5.35381,2.71843 -8.01141,4.11619 -1.86867,0.9152 -3.66552,1.95908 -5.47922,2.98047 -1.72455,1.10921 -3.54098,2.13062 -5.05664,3.51931 -0.90463,0.82401 -2.04789,2.27228 -3.2307,2.66682 1.2635,-5.34205 -0.16936,0.0679 12.96906,7.26428 0.17418,0.0954 0.22262,-0.32904 0.32813,-0.49729 0.11736,-0.18717 0.22653,-0.37935 0.34031,-0.56871 0.0591,-0.0985 0.27684,-0.23544 0.17847,-0.2947 -4.39251,-2.6466 -8.90136,-5.09514 -13.35205,-7.6427 -1.49531,0.85332 -2.7992,1.97088 -4.22888,2.92082 -4.9037,3.89088 -8.1625,-1.2946 11.33893,8.0153 0.21258,0.10149 0.0789,-0.46569 0.14649,-0.69135 0.0927,-0.30958 0.22227,-0.60693 0.33341,-0.91039 0.9684,-2.27791 2.17116,-4.41805 3.44801,-6.53272 1.83613,-2.66105 4.2652,-4.84603 6.6056,-7.05325 2.98662,-2.55678 6.31032,-4.67369 9.50952,-6.94733 2.50895,-1.86606 5.26592,-3.33396 7.90531,-4.98838 2.47853,-1.36936 5.0954,-2.41932 7.72677,-3.44606 3.54649,-1.27142 7.2593,-1.95785 10.88689,-2.95161 3.44504,-1.09078 6.90807,-2.11655 10.36057,-3.18415 1.57896,-0.50775 3.15215,-1.01407 4.66702,-1.69465 0.22148,-0.0995 0.40862,-0.34535 0.65075,-0.32727 0.13052,0.01 -0.0964,0.24337 -0.14462,0.36505 -4.28721,-2.811 -8.39676,-5.91369 -12.86162,-8.433 -0.33959,-0.19162 -0.65762,0.4197 -0.9957,0.61396 -2.34749,1.34885 -4.80653,2.53706 -7.25277,3.6926 -4.36193,1.75711 -8.68282,3.60481 -12.99058,5.49322 -4.10098,1.72429 -7.9938,3.8697 -11.98214,5.82283 -2.74984,1.24947 -5.53582,2.41306 -8.32154,3.58056 -2.33776,0.90325 -4.64698,1.81777 -6.82899,3.06087 -1.6298,0.95465 -2.93181,2.35203 -4.53805,3.32872 -1.22767,0.5776 -2.9154,2.1317 -4.32374,1.80128 -2.79977,-4.49808 -0.18699,-0.17007 12.40537,6.86221 0.13592,0.0759 -0.24331,-0.20851 -0.31037,-0.34901 -0.3676,-0.7701 -0.29072,-1.79017 -0.29405,-2.60894 0.27412,-1.91104 1.29442,-3.60878 2.49962,-5.08165 1.12269,-1.14938 2.65266,-1.66837 3.92767,-2.62115 1.45993,-0.82313 2.77198,-1.84586 4.11828,-2.83995 1.71524,-1.19027 3.37924,-2.44494 5.19567,-3.48489 2.614,-1.40322 5.09913,-3.01589 7.68692,-4.46278 2.75467,-1.40031 5.54523,-2.81309 8.46488,-3.83629 3.572,-1.39268 7.35073,-2.15702 11.06617,-3.06688 2.1504,-0.43081 4.24068,-1.17674 6.24799,-2.0536 1.84007,-0.61386 3.57214,-1.48886 5.38903,-2.15968 2.39709,-0.73828 4.7544,-1.60292 7.1525,-2.33873 2.13542,-0.69731 4.39264,-0.70615 6.57979,-1.09077 1.97808,-0.16946 3.86686,-0.73435 5.77371,-1.23803 2.24307,-0.87141 4.58412,-1.44007 6.8694,-2.18694 2.22625,-0.79063 3.47755,-2.45154 4.24552,-4.59789 0.49708,-1.74364 0.66891,-3.12814 -0.47933,-4.63119 -3.93217,0.9071 -9.47789,-8.04187 -15.22808,-8.02582 -0.90173,0.003 -1.78593,0.33746 -2.64717,0.56315 -2.16621,0.70967 -3.8994,2.23159 -5.77133,3.47988 -1.28133,0.95004 -2.63044,1.80516 -3.90936,2.7585 -0.35558,0.26506 -0.71563,0.52642 -1.04581,0.82251 -0.19353,0.17354 -0.73737,0.43927 -0.51972,0.58138 4.38614,2.86373 9.04269,5.29022 13.56403,7.93533 2.86923,-1.07989 5.45916,-2.74922 7.90565,-4.5716 1.30728,-1.18837 2.73972,-2.28872 3.7411,-3.76068 0.69028,-1.09515 0.57253,-2.17863 0.22624,-3.35306 0,0 -13.75609,-6.27088 -13.75609,-6.27088 v 0 c 0.43127,0.58847 0.90259,1.25446 0.5011,1.95547 -0.93702,1.30814 -2.28597,2.27716 -3.47973,3.33299 -2.35429,1.69155 -4.84173,3.25548 -7.6231,4.14233 3.94379,2.81864 7.78552,5.78584 11.83137,8.45591 0.15408,0.10169 0.25521,-0.2681 0.39804,-0.38505 1.55286,-1.27142 3.28779,-2.30435 4.90031,-3.49462 1.73096,-1.16737 3.36424,-2.58064 5.46172,-3.01518 0.62992,-0.11694 0.95322,-0.2188 1.59062,-0.18113 4.62466,0.27329 16.94781,10.99054 -10.17189,-6.59562 1.74126,0.70663 1.64617,1.19544 1.27065,2.96111 -0.59489,1.92717 -1.5473,2.7829 -3.50056,3.38484 -2.28542,0.69029 -4.56126,1.40392 -6.83314,2.13394 -1.86368,0.50835 -3.75489,0.86129 -5.67334,1.09378 -2.26937,0.26543 -4.53808,0.57399 -6.71882,1.29155 -2.40682,0.79019 -4.81647,1.57331 -7.20528,2.41681 -1.80044,0.7305 -3.58032,1.50925 -5.40406,2.1821 -2.00043,0.75722 -4.01242,1.47936 -6.12371,1.87071 -3.75896,0.93132 -7.56641,1.75112 -11.16582,3.21306 -2.93909,1.16982 -5.82135,2.51337 -8.59563,4.03386 -2.57918,1.47872 -5.10173,3.05203 -7.70477,4.49029 -1.81837,1.12195 -3.53915,2.37807 -5.2793,3.6155 -1.32898,0.99565 -2.69698,1.91207 -4.09599,2.80484 -1.43419,0.93394 -3.04899,1.61757 -4.15253,2.98549 -1.3792,1.75296 -2.51107,3.72858 -2.9716,5.9322 -0.42607,6.72358 2.58546,13.89204 13.95641,11.7794 1.70484,-0.52484 3.23516,-1.48185 4.74126,-2.41844 1.50416,-1.05667 2.85238,-2.33425 4.47183,-3.22635 2.17907,-1.14349 4.47115,-1.99876 6.74447,-2.93278 2.80281,-1.1927 5.62687,-2.33761 8.37308,-3.65834 3.94777,-1.99116 7.87216,-4.0231 11.94217,-5.76243 4.31945,-1.89631 8.68307,-3.6801 13.01855,-5.53542 1.95914,-0.9522 3.90805,-1.926 5.82546,-2.96058 0.50397,-0.27193 0.99884,-0.56038 1.49829,-0.84052 0.31277,-0.17543 1.20979,-0.29179 0.93838,-0.52618 -3.74847,-3.2371 -7.92031,-5.94879 -11.88046,-8.92318 -1.22719,1.18526 -4.01355,1.49621 -5.55291,2.18899 -3.43466,1.07096 -6.88468,2.09121 -10.32725,3.13547 -3.67765,0.9652 -7.42888,1.70351 -10.98125,3.09056 -2.69832,1.05992 -5.36095,2.21186 -7.87351,3.66898 -2.70171,1.61585 -5.40577,3.22217 -7.95915,5.07237 -3.26329,2.2977 -6.63032,4.47577 -9.62334,7.12899 -2.43197,2.30605 -4.93949,4.60371 -6.81524,7.40375 -1.324,2.1933 -2.56344,4.41585 -3.58314,6.77064 -0.28262,0.72486 -0.78535,1.96378 -0.70523,2.0225 11.11095,8.14252 9.2911,11.16909 14.84179,7.04588 1.36792,-0.96609 2.68778,-2.00505 4.16026,-2.81433 -4.13289,-2.7284 -8.2024,-5.55535 -12.39869,-8.18521 -0.0147,-0.009 -0.14428,0.25714 -0.49677,0.8256 -0.14461,0.23321 -0.65593,0.52359 -0.4415,0.6948 11.86492,9.47378 8.42352,11.94948 12.84847,8.4416 1.25222,-0.84217 2.34972,-1.89283 3.41529,-2.95596 1.52098,-1.23338 3.20569,-2.25517 4.88718,-3.25333 1.81755,-0.98999 3.586,-2.06616 5.45951,-2.95033 2.66572,-1.38772 5.30731,-2.8214 8.0166,-4.1241 3.77769,-1.99676 7.47864,-4.12937 11.25287,-6.13319 5.2221,-2.75618 10.32081,-5.73451 15.44415,-8.66863 0.5681,-0.30701 1.13636,-0.61371 1.70429,-0.92104 0.39362,-0.213 1.51892,-0.34725 1.18035,-0.63995 -10.78271,-9.32163 -7.87059,-10.07916 -14.60754,-7.84877 -2.67927,0.86748 -5.3831,1.67329 -7.99425,2.73628 -2.62213,1.04815 -5.18008,2.27437 -7.45988,3.96169 -2.62589,1.99186 -5.21853,4.03187 -7.60812,6.30749 -2.7874,2.6763 -5.48264,5.44509 -8.30843,8.07963 -3.19517,2.93828 -6.36993,5.90573 -9.19109,9.21472 -2.77132,3.02267 -5.56044,6.06177 -7.9508,9.39909 -0.21109,0.3984 -0.44372,0.7861 -0.63328,1.19518 -0.17102,0.3691 -0.76758,0.88555 -0.44676,1.13567 8.73674,6.81144 8.79946,9.68501 15.48409,8.02983 2.31854,-0.69686 4.60328,-1.49915 6.91256,-2.22598 1.69473,-0.6526 3.23281,-1.61021 4.7984,-2.5221 1.71744,-0.96571 3.37745,-2.03192 5.0069,-3.13882 1.74325,-1.34381 3.35258,-2.85474 4.85028,-4.46755 1.79202,-1.80288 3.519,-3.67001 5.3695,-5.41483 3.06276,-2.73341 6.23067,-5.31534 9.76881,-7.42471 3.56377,-2.32805 7.04548,-4.81206 10.75925,-6.89388 -13.9328,-9.40918 -8.69904,-10.77058 -16.32658,-5.58395 -2.66559,1.80994 -5.43462,3.49608 -7.86903,5.61743 -3.01558,2.52213 -6.21582,4.80304 -9.21838,7.34065 -3.63424,3.12382 -7.29004,6.24902 -10.5699,9.75083 -2.36345,2.48192 -4.64404,5.04026 -6.25701,8.09181 -0.98025,1.86575 -1.87764,3.74138 -1.49605,5.91216 4.47978,2.60314 8.89349,5.32345 13.43933,7.80943 0.21105,0.11542 1.77486,-0.0717 1.89732,-0.0878 1.46508,-0.19215 2.91168,-0.51867 4.38649,-0.64271 3.31234,-0.38091 6.63266,-0.6784 9.95549,-0.95017 2.84468,-0.29162 5.80106,-0.75883 8.61293,-0.0364 -4.01164,-2.39741 -8.13559,-4.6162 -12.03493,-7.19225 -0.57156,-0.37759 1.09357,-0.4585 0.87991,-0.0213 -0.43108,0.88221 -1.47212,1.41354 -1.93076,2.28225 11.59732,8.66545 9.22916,11.9968 16.51576,6.29329 2.04341,-1.63486 4.03926,-3.33374 5.96812,-5.10217 2.06707,-1.98767 4.24691,-3.85399 6.25376,-5.90532 3.16428,-3.26173 6.1361,-6.70905 9.40961,-9.867 3.39505,-3.19207 6.64747,-6.51931 9.90836,-9.84623 0.25916,-0.27451 3.50217,-3.69601 3.39004,-3.79676 -9.96672,-8.9553 -7.81314,-10.57163 -13.77855,-8.49854 -1.94142,0.70676 -3.84608,1.49186 -5.68861,2.42977 -2.04138,0.89469 -3.9767,2.02298 -5.96838,3.02078 -4.06108,2.16276 -8.23356,4.22156 -12.71629,5.34929 -1.62184,0.34891 -3.11936,0.73218 -4.77701,0.8605 -0.61269,0.0474 -2.33845,-0.37035 -1.84358,-0.006 3.71143,2.73254 7.973,4.64748 11.74493,7.29587 0.25756,0.18084 -0.59442,0.45068 -0.8848,0.32936 -0.20091,-0.0839 0.22928,-0.37022 0.34392,-0.55533 3.31339,-2.409 7.02441,-4.18858 10.62438,-6.12136 1.49899,-0.72828 2.99183,-1.4498 4.55192,-2.04062 0.40737,-0.15427 0.8126,-0.31832 1.23226,-0.43509 0.27664,-0.077 1.09197,0.009 0.84932,-0.1441 -4.08456,-2.58476 -8.36799,-4.841 -12.55199,-7.26149 0.23631,-0.26817 0.46018,-0.54785 0.70893,-0.80451 0.0633,-0.0653 -0.085,0.16444 -0.15015,0.22795 -0.20966,0.20434 -0.43979,0.38689 -0.66838,0.5698 -0.49416,0.39542 -1.39427,1.05108 -1.89772,1.41656 -0.35135,0.25507 -0.70466,0.50742 -1.05699,0.76112 -2.69606,1.9333 -5.52364,3.67906 -8.3446,5.4215 -4.08556,2.2643 -8.25282,4.36573 -12.4297,6.4548 -3.91946,2.15218 -7.81879,4.36688 -11.20893,7.31806 -2.56409,2.24927 -5.13013,4.66762 -6.08973,8.05732 -0.12254,0.45699 -0.29555,0.90336 -0.36763,1.37098 -0.21991,1.42675 0.1583,3.14531 0.98221,4.31256 0.6152,0.57294 0.40284,0.43897 1.13778,0.86491 4.4268,2.56565 9.66767,7.64816 15.51758,8.2066 1.45832,-0.0239 2.92651,-0.0724 4.35816,-0.37589 1.38534,-0.3112 2.76572,-0.60664 4.17151,-0.81405 1.44323,-0.36329 2.89038,-0.69179 4.34497,-1.01042 2.00379,-0.416 4.03855,-0.52536 6.07966,-0.33812 5.72181,0.63545 5.81025,4.57384 -11.08516,-7.05781 -0.29961,-0.20627 0.46661,-0.55834 0.69003,-0.84538 0.0199,-0.0256 0.0697,-0.0944 0.0376,-0.0895 -0.14156,0.0215 -0.2695,0.0969 -0.40425,0.14532 -1.96016,0.55559 -4.04613,0.95541 -6.03614,0.31552 4.10167,2.38174 8.28145,4.63379 12.30502,7.14522 0.18644,0.11637 -0.43218,0.0811 -0.64597,0.1321 -0.13909,0.0332 -0.29574,0.20363 -0.41181,0.12012 -0.14738,-0.10602 0.68335,-1.16831 0.78671,-1.28219 0.79287,-0.96803 1.45595,-2.04923 2.51794,-2.76208 1.18285,-1.00593 2.39933,-1.99452 3.41218,-3.17648 0.54333,-0.72825 1.11914,-1.48461 1.24315,-2.42177 0.72239,-5.45934 -9.27368,-9.76863 -14.60467,-8.23205 -3.72115,1.5986 -6.82861,4.35869 -10.52914,6.02585 -0.79037,0.35684 -2.17456,1.06117 -3.10237,1.21728 -0.22721,0.0382 -0.8739,-0.22497 -0.68489,-0.0932 19.74632,13.76521 9.39646,11.90022 12.61258,7.28013 1.31409,-1.56503 2.64049,-3.12515 4.08106,-4.57625 1.69193,-1.58653 3.36292,-3.19567 5.0329,-4.80455 1.06326,-1.15314 2.25451,-2.16265 3.55446,-3.04299 2.30645,-1.56012 4.65827,-3.0362 7.13059,-4.32514 2.54667,-1.50998 5.18658,-2.83633 7.93981,-3.93423 2.59206,-1.0032 5.24439,-1.8682 8.03951,-2.05215 0.75935,-0.0307 1.59431,-0.11006 2.35351,0.0289 0.2913,0.0533 1.09313,0.43888 0.84307,0.28023 -4.01992,-2.55051 -8.1716,-4.89054 -12.1736,-7.46908 -0.12926,-0.0833 0.30923,-0.13404 0.45394,-0.082 0.0848,0.0305 0.0364,0.17647 0.0545,0.26471 -0.97645,1.73866 -2.26935,3.29571 -3.40716,4.92792 -1.74567,2.58014 -3.58934,5.12616 -4.97015,7.92547 -1.01904,2.04947 -1.90463,4.1522 -2.94347,6.19086 -0.97594,1.65484 -1.31084,2.04841 -3.20104,2.64489 -2.30959,0.69141 -4.70391,1.0518 -7.11217,1.15573 -1.14872,-0.0364 -1.5685,-0.0119 -2.68256,-0.18722 -0.36652,-0.0577 -0.73474,-0.11952 -1.08936,-0.22867 -0.27354,-0.0842 -1.02827,-0.49867 -0.78483,-0.34817 12.1521,7.51284 16.98049,7.11315 11.74075,7.44753 -0.64524,-0.69029 1.54481,-1.79198 1.90769,-2.06977 2.0632,-1.5008 4.23889,-2.83145 6.34049,-4.2778 2.35593,-1.56803 4.81573,-2.99305 7.42314,-4.10393 2.96865,-1.28918 5.94312,-2.576 8.71726,-4.2586 2.65138,-1.54923 0.9872,-0.56128 3.718,-2.22274 1.63477,-0.99462 3.31862,-2.11829 5.12482,-2.79026 0.3178,-0.11823 0.66178,-0.14818 0.99267,-0.22226 -4.06444,-2.69254 -8.12888,-5.38507 -12.19331,-8.07762 -0.0247,-0.0164 0.0948,0.0277 0.0743,0.0492 -0.22712,0.23843 -0.47605,0.45804 -0.74216,0.65199 -1.93532,1.41053 -4.11286,2.46482 -6.15034,3.70855 -5.2118,3.0227 -10.63123,5.78809 -15.33673,9.58923 -1.13626,1.02541 -2.40527,2.04636 -3.20845,3.3799 -0.23462,0.38955 -0.96384,0.95945 -0.59618,1.22707 11.84803,8.6244 8.4217,9.58039 13.95895,7.68437 3.19911,-1.63845 5.94733,-4.08316 8.58378,-6.49278 2.36984,-2.23814 4.80586,-4.40541 7.4576,-6.30866 2.96125,-2.25307 5.63225,-4.7928 7.49983,-8.05914 2.42312,-4.07031 4.73001,-8.20967 7.28048,-12.20339 0,0 -13.04362,-7.64316 -13.04362,-7.64316 z" />
    <path
       style="fill:#ffffff"
       id="path1039"
       d="m 432.49953,344.24829 c -0.74992,1.88333 -1.06676,4.9053 -2.27069,6.52441 17.7842,9.09169 10.87195,10.15007 14.63577,2.53805 1.10268,-1.69406 2.3453,-3.29642 3.58552,-4.89165 1.1227,-1.38745 2.25262,-2.77369 3.29055,-4.22698 1.32978,-2.11295 2.84636,-4.09666 4.29583,-6.1268 1.30305,-1.75714 2.50915,-3.58428 3.74208,-5.39123 1.56571,-1.86607 2.88779,-3.92042 4.5192,-5.73014 1.88665,-1.74545 3.98152,-3.25993 6.12942,-4.66512 2.9896,-2.09562 6.07519,-4.03418 8.97079,-6.26338 2.78,-1.954 5.25025,-4.28817 8.0846,-6.16612 2.11189,-1.2452 4.15986,-2.59054 6.24117,-3.88429 3.02352,-1.90978 5.76591,-4.21725 8.62645,-6.35471 1.48877,-1.16753 3.03884,-2.25756 4.59377,-3.33481 0.2987,-0.20694 0.56223,-0.49503 0.91007,-0.60017 0.10854,-0.0328 0.32024,0.31389 0.22153,0.25812 -4.34332,-2.4539 -8.64841,-4.97486 -12.97261,-7.46229 -2.62513,4.04578 -5.83026,7.70019 -8.9005,11.41297 -3.66383,4.80372 -8.12475,8.87004 -12.73052,12.74179 -5.91272,4.63036 -8.29371,2.67995 10.5926,8.76614 0.72744,0.23442 0.95585,-1.19331 1.45579,-1.7714 1.41805,-1.63974 2.66603,-2.92715 4.16048,-4.51228 2.07947,-2.31538 4.40674,-4.3784 6.66784,-6.50762 1.84986,-1.74198 3.62603,-3.51822 5.55816,-5.17079 2.44558,-1.96438 4.85201,-4.07114 7.7316,-5.37452 1.77224,-0.39347 3.46115,-1.03221 5.19071,-1.59061 2.31711,-0.81022 4.51877,-2.02167 6.60839,-3.31065 1.39458,-0.88305 2.74941,-1.91401 4.27263,-2.56811 0.19353,-0.1003 0.38287,-0.20912 0.58059,-0.3009 0.59457,-0.27597 0.58438,-0.16429 1.12628,-0.58611 0.45898,-0.35728 0.79797,-0.75022 1.30061,-1.05309 5.14148,-4.96325 -7.95067,-9.73777 -13.28583,-9.85314 -2.48876,0.35892 -4.69207,1.55828 -6.90425,2.67053 -2.3624,0.89905 -3.73647,2.37469 -4.94941,4.5448 -1.13905,2.59111 -2.308,5.17539 -3.35541,7.80576 -1.96526,6.34677 5.52532,5.98779 13.1748,9.82243 0.28349,0.14211 3.63407,-1.76581 4.01264,-1.97846 2.35819,-1.33273 4.68655,-2.71263 6.98133,-4.15154 1.37572,-0.7433 2.66223,-1.6029 3.75923,-2.71805 1.17204,-1.09559 1.77792,-2.49721 2.12557,-4.03109 0.0998,-1.18885 -0.16945,-2.73124 -1.30979,-3.41737 -13.34308,-8.02843 -8.61169,-6.96412 -14.89582,-8.20796 -2.60759,-0.54437 -5.18738,-0.18878 -7.72525,0.49502 -0.65085,0.12605 -1.04631,0.33591 -1.66437,0.0414 -0.177,-0.0843 -0.61222,-0.48509 -0.44157,-0.38856 4.20664,2.42581 8.41328,4.85163 12.61992,7.27744 -0.0556,-0.0879 -0.16461,-0.15979 -0.1668,-0.2638 -0.005,-0.23223 0.098,-0.45412 0.14694,-0.68117 0.55462,-1.72933 1.86737,-2.87785 3.2017,-4.01207 0.89484,-1.03596 2.11945,-1.6709 3.12761,-2.57143 0.86027,-0.47119 1.53234,-0.96433 1.98432,-1.83939 -10.36867,-6.55283 -10.56003,-10.30222 -16.32628,-5.43659 -1.3875,0.80231 -2.64757,1.80472 -3.95489,2.73368 -1.67535,0.85692 -3.39189,1.62876 -5.04528,2.53289 -1.98355,0.85518 -3.9245,1.76609 -5.9385,2.55617 -2.6027,1.25889 -5.19179,2.53692 -7.73292,3.91622 -3.16884,1.42333 -6.13113,3.23939 -9.20069,4.85676 -3.01773,1.63467 -5.94816,3.43762 -8.7288,5.45006 -1.8161,1.09651 -3.20033,2.68211 -4.6919,4.14933 -2.56301,2.52117 0.62871,-0.80843 -1.82713,1.78993 -1.29257,1.17689 -2.33137,2.57077 -3.45106,3.89804 -1.30688,1.49913 -2.76578,2.85213 -4.2452,4.17729 -1.67526,1.40297 -3.27521,2.85848 -4.81531,4.40468 -1.11976,1.32692 -1.82601,2.96903 -2.59642,4.51708 -0.89521,1.49446 -1.60042,3.07987 -2.33327,4.65731 -0.55628,0.99643 -1.16583,1.96813 -1.65121,3.00157 -0.53699,0.94305 -0.94412,1.93177 -1.55569,2.83258 -0.8921,1.16304 -1.39503,2.55479 -2.18277,3.77523 -0.75855,1.14369 -1.22847,2.45654 -1.66572,3.75099 -0.47382,1.2505 -0.77063,2.5524 -1.27452,3.79267 0.0176,-0.0459 0.01,-0.16167 0.0529,-0.13767 15.20424,8.50293 10.5337,11.06607 15.80147,3.6489 2.08695,-2.75768 3.99725,-5.64466 5.97647,-8.48077 1.92629,-2.76638 3.80319,-5.56446 5.65316,-8.38206 1.26769,-2.14829 2.54516,-4.29976 3.72202,-6.4994 0.99127,-1.696 1.86944,-3.43898 2.60941,-5.25851 0.6295,-1.85568 1.18095,-3.73524 1.94295,-5.54209 0.89682,-2.17472 2.06346,-4.22311 3.20854,-6.27422 1.00575,-1.47324 1.84774,-3.08799 2.93752,-4.50437 0.10494,-0.13639 1.21585,-1.33809 1.34628,-1.47981 0.9082,-1.31448 2.09267,-2.36626 3.17242,-3.52376 0.95213,-0.94011 1.9487,-1.7963 2.92104,-2.71484 1.11996,-1.04095 2.26946,-2.03134 3.34625,-3.11929 1.36036,-1.04378 2.73501,-2.1089 4.26504,-2.89286 1.62924,-1.00996 3.42299,-1.69537 5.08542,-2.63746 1.4904,-0.68881 3.08098,-1.11573 4.60632,-1.70803 1.61959,-0.626 3.03985,-1.70627 4.57116,-2.53507 1.26489,-0.46675 2.54065,-0.95411 3.84876,-1.29477 1.16488,-0.23001 2.35876,-0.2251 3.54126,-0.23621 0.64204,0.066 1.31618,-0.0895 1.95561,4.1e-4 0.38998,0.0548 0.54234,0.17649 0.85356,0.35797 -4.23079,-2.43099 -8.46158,-4.86198 -12.69237,-7.29297 -0.23596,0.40922 0.32876,-0.0608 0.27332,0.0117 -0.23121,0.30203 -1.16696,0.73465 -1.48098,0.91793 -1.89828,0.86389 -3.80655,1.66682 -5.80597,2.2709 -2.38683,0.81515 -4.90251,1.25962 -7.18253,2.35472 -1.59845,0.71242 -3.19309,1.38261 -4.74426,2.19516 -2.17518,1.09322 -4.14076,2.57229 -6.05109,4.07209 -1.04757,0.75941 -1.86421,1.78884 -2.84381,2.62126 -0.47353,0.40237 -1.00615,0.72951 -1.50758,1.09652 -2.60957,1.82293 -5.07268,3.85707 -7.44319,5.9788 -2.38247,2.05357 -4.89087,3.94947 -7.26141,6.01746 -1.45747,1.27654 -2.72386,2.74505 -3.98576,4.21007 -1.17894,1.2966 -2.3584,2.58174 -3.34479,4.03392 -0.80492,1.04949 -1.52848,2.15792 -2.2549,3.2618 -0.56841,1.04014 -0.90533,2.19537 -1.26485,3.32241 -0.20666,1.14317 -0.70444,2.17858 -1.1385,3.24297 -0.37682,1.24532 -0.9082,2.43344 -1.34007,3.65859 -0.59614,1.23685 -1.07713,2.51619 -1.55984,3.79939 -0.60561,1.64317 -1.22029,3.28304 -1.72453,4.96068 -0.49888,1.22534 -0.83747,2.50404 -1.31075,3.73744 -0.40444,1.06336 -0.97991,2.04175 -1.55375,3.01889 0,0 13.08691,7.56878 13.08691,7.56878 v 0 c 0.61569,-1.04805 1.22928,-2.09904 1.67579,-3.23392 0.49152,-1.27241 0.84263,-2.58551 1.37098,-3.84669 0.46931,-1.6472 1.08207,-3.24556 1.66603,-4.85454 0.50216,-1.29407 0.94652,-2.60845 1.58598,-3.84657 0.4,-1.21115 0.96582,-2.36112 1.30393,-3.59348 0.42896,-1.10903 1.01951,-2.16153 1.20003,-3.35429 0.28527,-0.99865 0.6179,-2.00144 1.04898,-2.94116 0.72768,-1.09373 1.44377,-2.19601 2.24241,-3.24048 0.96693,-1.3969 2.13628,-2.61995 3.25929,-3.89028 1.2158,-1.40982 2.45249,-2.8098 3.87076,-4.02235 2.38823,-2.05378 4.89907,-3.95769 7.27043,-6.03197 2.36178,-2.07152 4.79443,-4.06893 7.37306,-5.86698 1.54036,-1.15559 2.87935,-2.51821 4.3653,-3.73979 1.87881,-1.41018 3.76354,-2.83918 5.90154,-3.83977 1.53809,-0.76523 3.13304,-1.40357 4.69438,-2.11969 2.31022,-0.90327 4.75639,-1.41584 7.09887,-2.23031 2.062,-0.71132 4.09072,-1.52659 6.00735,-2.575 1.15677,-0.75487 2.31614,-1.57824 2.36727,-3.09574 -11.84239,-7.15983 -8.79952,-8.19681 -16.23653,-7.94552 -1.27385,0.0591 -2.55519,0.15442 -3.77266,0.56575 -1.36356,0.46811 -2.76869,0.85036 -4.03011,1.56676 -1.44448,0.83593 -2.83281,1.8206 -4.43538,2.33025 -1.60897,0.54133 -3.21588,1.11756 -4.72908,1.89291 -1.7058,0.87233 -3.44756,1.67232 -5.09656,2.65452 -1.58254,0.9473 -3.11251,2.01939 -4.48952,3.24809 -1.07479,1.06783 -2.23755,2.0338 -3.32634,3.0869 -0.97659,0.93843 -2.02953,1.78709 -2.95848,2.77592 -1.11653,1.14012 -2.228,2.27157 -3.18959,3.55198 -1.73615,1.91381 -3.12213,4.07803 -4.46152,6.28494 -1.17125,2.09783 -2.36412,4.19304 -3.28797,6.41396 -0.77999,1.81247 -1.36826,3.69143 -1.96005,5.57265 -0.69501,1.77895 -1.57036,3.46126 -2.52724,5.11323 -1.14995,2.16186 -2.41205,4.27023 -3.65327,6.38065 -1.84142,2.80594 -3.71367,5.58986 -5.63123,8.34468 -1.97876,2.83242 -3.8863,5.71663 -5.9713,8.47202 -5.09974,7.21931 -3.61585,3.58041 10.14902,11.86734 0.10559,0.0636 0.13753,-0.20454 0.2063,-0.30682 0.54562,-1.27233 0.85593,-2.60811 1.33519,-3.90196 0.366,-1.18393 0.79847,-2.37723 1.47685,-3.41749 0.76962,-1.22092 1.29148,-2.58159 2.16466,-3.74426 0.64823,-0.97619 1.10877,-2.02653 1.6781,-3.04528 0.45874,-1.04165 1.10992,-1.99296 1.6475,-2.99498 0.7231,-1.56766 1.42248,-3.13956 2.31322,-4.62198 0.69376,-1.40359 1.32111,-2.91229 2.35041,-4.10035 1.51226,-1.5356 3.15699,-2.90965 4.77261,-4.33535 1.51521,-1.38933 3.03002,-2.786 4.35719,-4.36096 1.07589,-1.31874 2.15268,-2.63092 3.39427,-3.80416 1.98924,-2.04024 3.98674,-4.10902 6.36889,-5.69823 2.76588,-1.9319 5.63882,-3.7109 8.62332,-5.28656 3.05605,-1.64619 6.06258,-3.38186 9.20471,-4.86291 2.50272,-1.33987 5.04539,-2.60674 7.63563,-3.76923 2.04517,-0.82102 4.03382,-1.76494 6.03055,-2.69514 1.72296,-0.88646 3.50857,-1.66371 5.15022,-2.6955 1.33179,-0.93952 2.63362,-1.91845 4.00061,-2.80598 5.75132,-4.27305 6.41889,-0.18499 -9.91136,-9.53506 0.0988,-0.15669 0.22735,-0.29822 0.29653,-0.47009 0.0309,-0.0768 -0.11478,0.11966 -0.17731,0.17392 -0.45656,0.39618 -1.06226,0.60574 -1.48578,1.04994 -1.07663,0.82836 -2.19514,1.6074 -3.14048,2.59206 -1.53745,1.34942 -2.95155,2.80683 -3.65012,4.78163 -0.0188,0.0593 -0.65643,1.94397 -0.51994,2.04078 7.75805,5.50234 9.22853,9.3143 15.73862,7.79935 2.42682,-0.47812 4.85872,-0.64526 7.24894,0.15555 5.24405,2.34611 1.12226,0.54529 -11.09364,-6.66691 -0.24934,-0.14721 0.51196,0.27175 0.75737,0.42541 0.62106,0.38887 1.13479,0.73189 1.24929,1.49492 -0.19447,1.28451 -0.67305,2.36229 -1.67066,3.23761 -1.0601,0.99375 -2.34252,1.69237 -3.58241,2.43713 -2.28455,1.40297 -4.58146,2.78316 -6.93152,4.07482 -0.6401,0.33075 -1.7557,0.97424 -2.50893,1.12733 -0.29072,0.0591 -1.13609,-0.18506 -0.88979,-0.0197 3.99496,2.68242 8.18171,5.06786 12.24564,7.64459 0.11606,0.0736 -0.36688,0.007 -0.3917,-0.1286 -0.0517,-0.28183 0.14352,-0.55483 0.21528,-0.83225 1.0086,-2.57511 2.17547,-5.08853 3.25754,-7.633 1.14069,-2.06393 2.33352,-2.87066 4.47439,-3.77341 1.99682,-0.99435 4.09811,-2.12487 6.39726,-1.94691 5.54739,1.31252 -1.16486,-0.19796 -11.70509,-7.15668 -0.22944,-0.15148 1.03266,-0.87795 0.47926,-0.42008 -0.1142,0.0945 -0.23753,0.17734 -0.3563,0.26601 -0.91035,0.69602 -1.797,1.34558 -2.88727,1.75467 -1.48835,0.81922 -2.91672,1.74573 -4.3402,2.6716 -2.04124,1.18747 -4.14532,2.33613 -6.41512,3.0194 -1.78134,0.56187 -3.56442,1.13378 -5.31489,1.77606 -2.89473,1.52569 -5.43227,3.61724 -7.94047,5.7005 -4.2817,3.73703 -8.32405,7.76259 -12.30794,11.8115 -1.41228,1.50514 -2.88298,3.03195 -4.21881,4.60891 -0.54545,0.64392 -2.16213,1.37043 -1.57814,1.97962 10.37811,10.8258 9.09373,11.67867 15.32582,6.79575 4.65474,-3.95024 9.15169,-8.10228 12.87166,-12.97238 3.18286,-3.85479 6.53093,-7.63942 9.17583,-11.89157 -4.19727,-2.86373 -8.27973,-5.90343 -12.59181,-8.59118 -0.077,-0.048 -1.09652,0.65829 -1.56463,0.98599 -1.5592,1.09152 -3.11333,2.19347 -4.61332,3.36563 -2.81974,2.1259 -5.54732,4.39017 -8.5582,6.24779 -2.08506,1.3181 -4.17789,2.62318 -6.27025,3.9296 -2.81241,1.94701 -5.33289,4.26353 -8.12848,6.23518 -2.89927,2.17261 -5.95114,4.11376 -8.92117,6.18537 -2.22251,1.51205 -4.43203,3.08505 -6.33475,4.9951 -1.64219,1.88227 -3.03883,3.95761 -4.61661,5.89356 -1.22912,1.79711 -2.42749,3.61668 -3.72627,5.3644 -1.44811,2.02933 -2.9611,4.01363 -4.29362,6.12305 -1.03598,1.43422 -2.15766,2.80499 -3.26514,4.18412 -1.28435,1.68579 -2.61731,3.34228 -3.73394,5.1467 -0.61541,1.23637 -1.10338,2.39149 -1.42745,3.7376 -1.42213,5.90724 -0.30903,0.87064 12.96295,8.86478 1.37512,-2.07493 1.70669,-4.65994 2.52212,-6.96893 0,0 -13.28274,-7.2196 -13.28274,-7.2196 z" />
    <path
       style="fill:#ffffff"
       id="path1041"
       d="m 444.95379,346.65456 c 1.06642,-2.60177 2.26717,-5.1388 3.53885,-7.64477 0.80062,-1.72005 1.70753,-3.33379 2.78034,-4.89383 0.99874,-1.25158 1.79112,-2.64198 2.78939,-3.89223 0.97549,-1.20036 1.66709,-2.60021 2.6938,-3.75713 1.13014,-1.5117 1.88641,-3.2593 2.68308,-4.96014 0.7471,-1.60342 1.60226,-3.14777 2.40761,-4.72157 1.18872,-1.66559 2.27151,-3.4063 3.48455,-5.05396 0.96809,-1.31722 1.78836,-2.73014 2.77318,-4.03489 0.90823,-1.43352 1.91835,-2.76684 3.06487,-4.0174 1.43521,-1.23262 2.86359,-2.45013 4.14673,-3.84264 1.10736,-0.88478 2.1079,-1.91275 3.22743,-2.78438 1.26625,-0.92328 2.40104,-2.02565 3.74382,-2.83749 1.36021,-0.84114 2.47965,-1.99587 3.75402,-2.93834 1.17313,-0.82096 2.1014,-1.91914 3.19251,-2.83265 0.96511,-1.06249 1.9825,-2.0389 3.15071,-2.87458 1.46588,-1.3037 3.03026,-2.5058 4.41761,-3.8948 1.26476,-0.99496 2.67815,-1.75513 3.97292,-2.70979 1.23962,-0.91909 2.67716,-1.37512 4.09945,-1.89879 1.53746,-0.34526 2.98,-0.81959 4.436,-1.41426 0.95752,-0.25952 2.32209,-0.8001 3.33156,-0.62574 0.20945,0.0362 0.38685,0.17626 0.58027,0.26439 -4.20114,-2.33375 -8.40228,-4.6675 -12.60343,-7.00126 0,0 13.96868,5.78186 13.96868,5.78186 v 0 c -4.4863,-2.61747 -8.9726,-5.23493 -13.4589,-7.8524 -1.51335,0.0943 -2.98338,0.40961 -4.37883,1.01983 -1.4393,0.56639 -2.96156,0.82534 -4.40858,1.37347 -1.5382,0.55268 -3.00033,1.2792 -4.32591,2.24462 -1.37284,0.95626 -2.85935,1.75693 -4.09307,2.90202 -1.38146,1.30479 -2.85379,2.51476 -4.31435,3.72921 -1.15751,0.90413 -2.18874,1.92435 -3.21309,2.97405 -1.03083,0.94401 -2.01396,1.93579 -3.14828,2.76194 -1.19514,0.98762 -2.37284,1.99266 -3.68464,2.82915 -1.32344,0.92776 -2.55283,1.98338 -3.82992,2.9733 -1.12752,0.96567 -2.25289,1.94069 -3.33352,2.95626 -1.30383,1.37931 -2.79466,2.54328 -4.15785,3.86097 -1.16319,1.29631 -2.19199,2.67816 -3.13817,4.13963 -0.9771,1.31712 -1.81169,2.72753 -2.78204,4.04984 -1.24707,1.72053 -2.39712,3.51107 -3.60412,5.25971 -0.815,1.58975 -1.6765,3.15157 -2.43517,4.77007 -0.73319,1.57868 -1.42437,3.21086 -2.47717,4.60741 -0.99785,1.20674 -1.75357,2.57945 -2.72447,3.80831 -1.00142,1.28731 -1.83229,2.69059 -2.83871,3.9755 -1.1137,1.6144 -2.04714,3.29226 -2.88163,5.06874 -1.2825,2.52926 -2.50723,5.08361 -3.57702,7.71214 0,0 13.17149,7.42062 13.17149,7.42062 z" />
    <path
       style="fill:#ffffff"
       id="path1043"
       d="m 47.723738,302.48814 c -0.235582,2.57035 -0.413918,5.14543 -0.527844,7.72396 -0.04401,1.66877 -0.637615,3.23133 -0.971978,4.84849 -0.49334,2.0254 -0.803411,4.07474 -0.962727,6.15115 -0.22051,2.38235 -0.149823,4.7319 0.269472,7.08396 0.481444,2.35269 0.997451,4.69608 1.45286,7.05476 0.457995,2.16877 0.573854,4.38236 0.790824,6.58142 0.233663,1.60072 0.456482,3.20102 0.57548,4.81477 0.08973,1.43491 0.08843,2.87328 0.09188,4.31034 -0.0031,5.94595 -0.872531,1.79721 13.666195,7.35427 0.230286,0.088 0.424137,-2.99784 0.437609,-3.20433 0.09063,-2.46503 0.06323,-4.93249 0.04974,-7.39861 -0.08329,-2.38251 0.008,-4.7492 0.31058,-7.11289 0.318125,-3.12377 1.109164,-6.1645 1.882127,-9.19858 0.603361,-2.38574 1.199296,-4.775 1.831907,-7.15334 0.5698,-2.1975 1.009163,-4.42888 1.423266,-6.66069 0.356849,-2.02356 0.443261,-4.078 0.494757,-6.12769 0.10103,-1.42529 0.383836,-2.82762 0.53435,-4.24816 -0.0029,-1.13487 0.180083,-2.1682 0.603434,-3.21105 0.321111,-0.5869 0.15321,-0.2786 0.503328,-0.92512 0,0 -13.113313,-7.52296 -13.113313,-7.52296 v 0 c -0.373806,0.69103 -0.177993,0.33257 -0.588169,1.07497 -0.466058,1.17181 -0.891486,2.30042 -0.810581,3.59475 -0.118838,1.46005 -0.383281,2.8963 -0.58493,4.34604 -0.03272,1.97659 -0.0796,3.95891 -0.384361,5.91626 -0.38509,2.19498 -0.834288,4.38156 -1.361672,6.54616 -0.65643,2.37946 -1.223845,4.78566 -1.843449,7.17462 -0.780965,3.08634 -1.636353,6.16979 -1.961447,9.34711 -0.358177,2.4239 -0.514696,4.85383 -0.409938,7.30476 0.01422,2.44019 0.03976,4.88083 -0.0099,7.32079 -0.02942,0.76513 -0.03695,1.29897 -0.112712,2.05085 -0.02471,0.24528 -0.307475,0.60077 -0.09933,0.73287 4.278007,2.71486 8.786753,5.0478 13.181546,7.56923 0.0572,0.0328 -0.153475,-0.0392 -0.168712,-0.10336 -0.04652,-0.19592 4.77e-4,-0.40274 7.16e-4,-0.60411 -7.7e-5,-1.46409 0.0069,-2.92885 -0.05054,-4.3921 -0.08299,-1.64226 -0.248525,-3.27751 -0.534015,-4.89805 -0.334753,-2.2089 -0.271582,-4.47121 -0.7496,-6.66552 -0.430658,-2.36726 -0.924448,-4.71652 -1.449337,-7.062 -0.472671,-2.26866 -0.697763,-4.4124 -0.444127,-6.73588 0.115274,-2.02246 0.364088,-4.02381 0.877321,-5.98869 0.294207,-1.70188 0.964594,-3.3091 1.075721,-5.04646 0.09428,-2.55627 0.265712,-5.10876 0.493001,-7.65667 0,0 -13.40746,-6.98527 -13.40746,-6.98527 z" />
    <path
       style="fill:#ffffff"
       id="path1045"
       d="m 638.45033,529.45411 c 0.32043,-1.43279 0.87109,-2.79362 1.51319,-4.10875 0.49898,-1.07666 1.0692,-2.11787 1.58949,-3.18392 0.3604,-0.79469 0.72883,-1.65852 0.63073,-2.55458 -0.0213,-0.19465 -0.0803,-0.38329 -0.12051,-0.57493 -12.05402,-7.29915 -8.97396,-7.82949 -16.48178,-7.87355 -1.51954,-0.003 -3.03908,0.007 -4.55861,0.0125 -0.43502,-0.13711 -1.85991,0.26465 -2.19604,0.10033 -0.0753,-0.0368 -0.16683,-0.27616 -0.0951,-0.23283 4.27548,2.58135 8.49877,5.24815 12.74816,7.87222 -0.0323,0.11502 -0.19798,0.28158 -0.0968,0.34508 0.11127,0.0698 0.23042,-0.12621 0.34594,-0.18875 0.82367,-0.44601 1.64573,-0.88641 2.48418,-1.30455 1.04859,-0.43593 2.07827,-0.92742 3.18607,-1.19426 0.1154,-0.0333 1.46149,-0.43299 1.45532,-0.21803 -0.003,0.12184 -0.0928,0.22543 -0.13915,0.33815 -15.99901,-11.90341 -7.73872,-9.62675 -14.63806,-7.60889 -1.12229,0.32922 -2.27318,0.57267 -3.42629,0.77165 -0.8597,0.13995 -1.69864,0.34359 -2.57144,0.3832 -0.54215,-0.0101 -1.09515,0.074 -1.62901,-0.0558 -0.24961,-0.0607 -0.48864,-0.15896 -0.73526,-0.23084 -0.0894,-0.0566 -0.19053,-0.098 -0.26821,-0.16984 -0.0706,-0.0653 -0.25175,-0.28213 -0.16846,-0.23411 4.25969,2.45608 8.54644,4.87008 12.7194,7.47078 0.0386,0.0241 -0.62896,0.70858 -0.14215,0.34641 0.41198,-0.21773 0.79311,-0.50185 1.21319,-0.7044 0.241,-0.1162 0.49677,-0.19887 0.74453,-0.29986 0.64051,-0.18906 1.25438,-0.4587 1.9201,-0.54617 0.53439,-0.0211 1.07056,0.004 1.60554,0.0114 0.66172,0.20645 1.36743,0.21542 2.0551,0.24269 0.2059,0.0384 0.41918,-0.0195 0.62534,0.0116 0.0937,0.0141 0.17952,0.0618 0.27192,0.0828 0.32123,0.0728 0.65864,0.0923 0.98578,0.12092 0,0 -12.12893,-9.02458 -12.12893,-9.02458 v 0 c -0.64258,-0.0911 -1.27712,-0.13195 -1.92456,-0.15915 -0.70608,-0.0683 -1.41657,-0.216 -2.12625,-0.14532 -0.60794,0.0224 -1.21803,0.0643 -1.79888,0.26164 -0.70334,0.23112 -1.4064,0.47243 -2.0796,0.78154 -0.8134,0.39578 -1.61239,0.85829 -2.26694,1.48977 -4.40189,5.22506 7.05828,9.21158 12.81615,9.58956 0.87601,0.1034 1.76219,0.0157 2.63569,-0.0834 0.88485,-0.14403 1.76111,-0.3377 2.64498,-0.48765 1.20051,-0.2558 2.40354,-0.52668 3.55497,-0.95904 7.22662,-2.97311 -0.75811,-4.03385 -9.72884,-10.2551 -0.10392,0.0865 -0.19775,0.18687 -0.31174,0.25961 -0.14271,0.0911 -0.37549,0.11873 -0.53047,0.15979 -0.37663,0.0998 -0.74429,0.23119 -1.11935,0.33636 -1.13859,0.40564 -2.2512,0.88549 -3.336,1.41811 -0.68468,0.35565 -1.37148,0.71028 -2.0284,1.11615 -0.26605,0.16437 -0.84138,0.52704 -1.05722,0.77979 -0.20267,0.23735 -0.35044,0.51655 -0.52566,0.77483 4.25429,2.7014 8.45898,5.48255 12.76287,8.1042 0.1058,0.0645 0.23191,-0.0911 0.35356,-0.11452 0.71214,-0.1371 1.45642,-0.0262 2.17386,-0.0697 1.50973,-0.005 3.02005,-0.019 4.52929,0.0278 0.63448,0.0341 1.28759,0.049 1.90849,0.20211 0.17207,0.0424 0.34359,0.0927 0.50543,0.16496 0.13833,0.0617 0.51975,0.31137 0.38936,0.2343 -4.17013,-2.46505 -8.33904,-4.93215 -12.50856,-7.39822 0.13533,-0.0252 0.26836,-0.0779 0.406,-0.0756 0.69198,0.0116 0.0239,1.25024 -0.0802,1.48859 -0.51442,1.06625 -1.09068,2.1018 -1.58591,3.17763 -0.69439,1.40539 -1.30774,2.85802 -1.66838,4.38859 0,0 13.29807,7.19133 13.29807,7.19133 z" />
  </g>
</svg>
