<?xml version="1.0" encoding="UTF-8" standalone="no"?>
<svg
   version="1.0"
   width="431.92484pt"
   height="430.70734pt"
   viewBox="0 0 431.92484 430.70734"
   preserveAspectRatio="xMidYMid"
   id="svg8"
   sodipodi:docname="koboldhorde.svg"
   inkscape:version="1.2.1 (9c6d41e410, 2022-07-14)"
   xmlns:inkscape="http://www.inkscape.org/namespaces/inkscape"
   xmlns:sodipodi="http://sodipodi.sourceforge.net/DTD/sodipodi-0.dtd"
   xmlns="http://www.w3.org/2000/svg"
   xmlns:svg="http://www.w3.org/2000/svg">
  <defs
     id="defs12" />
  <sodipodi:namedview
     id="namedview10"
     pagecolor="#ffffff"
     bordercolor="#000000"
     borderopacity="0.25"
     inkscape:showpageshadow="2"
     inkscape:pageopacity="0.0"
     inkscape:pagecheckerboard="0"
     inkscape:deskcolor="#d1d1d1"
     inkscape:document-units="pt"
     showgrid="false"
     inkscape:zoom="1.5043945"
     inkscape:cx="237.63713"
     inkscape:cy="285.82928"
     inkscape:window-width="2560"
     inkscape:window-height="1377"
     inkscape:window-x="5112"
     inkscape:window-y="-8"
     inkscape:window-maximized="1"
     inkscape:current-layer="svg8" />
  <g
     transform="matrix(0.1,0,0,-0.1,-40.075165,470.78832)"
     stroke="none"
     id="g6">
    <path
       d="m 2495,4698 c -3,-7 -6,-76 -7,-153 l -3,-140 -115,-5 c -63,-3 -114,-9 -114,-14 1,-4 34,-41 74,-82 l 72,-74 -4,-125 -3,-124 -65,-67 c -74,-75 -224,-205 -257,-223 -27,-14 -54,-3 -89,38 -22,26 -24,26 -156,26 -132,0 -135,0 -172,28 -52,40 -60,67 -41,135 9,30 14,56 11,59 -7,7 -47,-16 -77,-43 l -25,-24 -18,41 c -10,23 -39,56 -68,80 -63,49 -110,53 -160,12 -58,-49 -67,-65 -68,-118 0,-49 2,-53 63,-113 62,-61 63,-62 118,-62 h 56 l 72,-80 73,-80 h 51 c 61,0 66,-3 92,-53 11,-21 46,-69 77,-105 l 58,-67 -320,-3 -321,-2 -55,26 c -47,22 -67,42 -131,125 -79,102 -128,139 -186,139 -23,0 -27,-4 -27,-28 0,-61 91,-163 177,-198 64,-27 97,-59 167,-162 36,-55 75,-107 86,-117 24,-22 80,-108 80,-123 0,-6 -15,-35 -34,-64 -18,-29 -66,-113 -106,-185 l -72,-133 h -80 -79 l 2,80 c 1,44 0,83 -4,86 -3,3 -31,-8 -63,-24 -67,-33 -197,-82 -220,-82 -9,0 -34,-13 -57,-29 -36,-25 -55,-30 -129,-36 -77,-6 -87,-9 -92,-28 -13,-48 -15,-47 157,-47 90,0 232,-3 315,-7 l 152,-6 v -39 -38 h 281 280 l 57,47 c 31,25 80,56 109,69 87,39 78,44 -89,45 -84,1 -232,4 -328,8 l -175,6 55,28 c 30,15 63,27 72,27 16,0 58,44 58,61 0,17 92,150 113,164 12,7 57,17 100,21 l 77,7 62,-43 c 49,-35 72,-45 115,-48 31,-3 53,0 53,5 0,11 -93,102 -156,152 l -42,32 -4,90 c -2,50 -9,94 -16,101 -7,7 -12,16 -12,20 0,4 56,8 123,8 68,0 212,3 319,7 l 195,6 -56,50 c -72,65 -71,63 -71,125 0,29 -7,69 -15,89 -8,19 -15,37 -15,39 0,2 28,4 61,4 57,0 65,3 110,41 l 49,41 v 69 70 l 55,51 c 106,98 95,132 95,-292 v -371 l -45,-42 -44,-42 -2,-194 c -2,-219 -6,-209 76,-210 22,-1 50,-8 62,-16 18,-13 23,-13 30,-2 5,9 33,16 71,20 35,3 66,8 69,11 3,3 8,93 11,199 l 5,194 -47,32 -46,32 v 202 c 0,111 -3,281 -7,377 l -6,174 39,-31 c 107,-86 106,-85 111,-143 7,-89 10,-96 65,-134 43,-29 62,-36 101,-36 h 48 l -5,-32 c -3,-18 -8,-64 -10,-103 l -5,-70 -56,-50 c -30,-28 -55,-53 -55,-55 0,-3 78,-3 172,-2 95,2 237,1 315,-3 l 142,-7 -14,-29 c -9,-17 -15,-56 -15,-97 0,-85 -1,-86 -161,-228 -66,-58 -118,-111 -116,-118 9,-27 130,16 213,76 45,32 47,33 164,34 l 118,2 78,-114 c 44,-62 79,-122 79,-131 0,-16 -18,-19 -205,-24 -113,-3 -238,-7 -277,-8 -40,0 -73,-5 -73,-11 0,-5 21,-18 48,-30 26,-12 81,-43 123,-70 l 75,-50 h 316 316 l 9,38 9,37 58,3 c 53,3 58,1 51,-15 -4,-10 -11,-39 -15,-66 -5,-35 -15,-57 -40,-82 -40,-41 -33,-57 13,-30 18,11 79,35 137,55 l 105,35 9,50 c 5,28 14,53 20,57 6,4 52,8 103,8 h 91 l 11,31 c 6,18 11,33 11,34 0,2 -46,4 -103,7 -96,3 -106,5 -152,36 -27,18 -67,37 -89,43 -44,12 -112,44 -136,64 -8,7 -27,15 -42,17 -27,5 -27,5 -34,-73 l -7,-79 h -89 -89 l -57,118 c -31,64 -69,137 -84,161 -22,36 -28,57 -28,102 0,56 2,60 54,116 29,32 81,98 116,147 49,69 76,96 122,125 138,84 191,138 202,204 l 7,37 h -41 c -59,0 -88,-19 -159,-104 -65,-78 -120,-127 -181,-165 -34,-20 -46,-21 -362,-21 -192,0 -328,4 -328,9 0,5 19,24 42,42 22,18 61,64 85,101 44,68 44,68 90,68 44,0 49,3 134,86 84,82 89,86 122,80 49,-9 84,7 145,67 50,49 52,53 52,105 0,65 -10,84 -62,122 -61,45 -119,42 -165,-6 -18,-20 -43,-54 -54,-75 -10,-21 -22,-39 -26,-39 -3,0 -20,9 -37,19 -17,11 -40,21 -50,23 -17,3 -19,-3 -17,-57 1,-46 -3,-68 -19,-93 -31,-51 -68,-61 -191,-55 -131,7 -152,2 -179,-42 -12,-19 -29,-35 -38,-35 -17,0 -405,306 -429,337 -7,10 -13,45 -13,80 v 63 h 89 c 53,0 93,4 96,11 4,6 -4,22 -16,36 -32,34 -134,120 -150,125 -9,3 -13,49 -13,180 -1,97 -3,178 -6,181 -3,3 -33,8 -67,12 -49,5 -64,4 -68,-7 z"
       id="path2" />
    <path
       d="m 2166,2764 c -3,-9 -6,-59 -6,-112 v -97 l -49,-42 -50,-43 h -145 -146 v -110 -110 h -25 c -17,0 -43,-16 -75,-46 -53,-49 -96,-63 -164,-50 -30,6 -42,18 -89,89 -30,45 -61,97 -70,114 -16,30 -20,31 -83,35 -36,1 -68,0 -71,-5 -2,-4 25,-67 61,-140 36,-72 68,-150 72,-173 6,-38 3,-44 -33,-80 -21,-21 -62,-58 -91,-82 -29,-24 -61,-60 -71,-80 -26,-49 -106,-125 -161,-152 -56,-28 -116,-83 -141,-132 -36,-70 -25,-84 51,-64 48,12 64,25 154,118 149,155 126,148 509,148 174,0 317,-4 317,-8 0,-5 -14,-21 -31,-38 -17,-16 -53,-63 -81,-104 l -50,-75 -57,-6 c -54,-7 -58,-9 -122,-79 l -67,-73 -58,6 c -71,8 -88,0 -149,-71 -34,-41 -45,-62 -45,-88 0,-51 23,-98 64,-129 31,-24 43,-27 85,-23 73,7 121,50 145,130 5,16 8,16 48,-2 63,-29 69,-27 62,20 -6,34 -2,45 20,75 48,63 67,70 182,66 134,-3 172,4 180,35 13,52 26,48 147,-43 63,-49 167,-130 231,-182 l 116,-94 v -57 -57 l -86,-6 c -48,-3 -89,-8 -91,-11 -3,-3 26,-33 63,-68 136,-125 121,-89 123,-288 1,-96 4,-176 6,-179 3,-2 22,12 44,32 22,19 51,43 65,52 25,17 26,20 26,126 v 109 h 119 c 66,0 122,4 125,9 3,5 -33,46 -80,90 l -86,82 7,109 c 8,130 17,146 140,256 43,38 100,90 127,117 64,61 94,63 137,8 l 32,-40 145,-3 146,-3 30,-34 c 27,-30 30,-39 26,-82 -5,-48 -4,-49 21,-48 14,1 40,4 56,8 26,5 32,2 45,-21 8,-15 32,-46 53,-68 35,-36 44,-40 86,-40 38,0 57,7 90,30 45,33 61,63 61,116 0,27 -11,46 -52,91 -66,74 -63,73 -127,73 -53,0 -55,1 -132,75 l -79,75 h -79 c -51,0 -82,4 -89,13 -5,6 -15,38 -22,70 -8,38 -22,70 -41,92 -30,33 -30,34 -9,45 14,8 116,10 328,8 355,-3 350,-2 442,-101 150,-161 142,-154 194,-161 64,-10 75,1 51,55 -26,56 -86,105 -154,125 -45,13 -65,26 -101,67 -25,28 -75,83 -111,122 -37,38 -86,101 -109,140 l -42,69 32,56 c 40,70 140,277 140,291 0,10 -40,6 -112,-12 -30,-8 -42,-18 -59,-52 -28,-54 -75,-125 -107,-159 -49,-53 -158,-50 -221,7 -21,19 -49,38 -63,44 -21,8 -26,18 -31,63 -4,29 -7,78 -7,110 v 56 l -160,4 -159,3 -39,38 -39,38 -7,112 c -4,61 -8,113 -11,115 -8,9 -40,-21 -195,-186 -89,-95 -170,-177 -181,-183 -30,-15 -11,-34 -263,249 -60,67 -112,122 -116,122 -4,0 -11,-7 -14,-16 z m 388,-524 c 4,0 59,50 121,110 62,61 117,110 123,110 16,0 72,-75 72,-96 0,-18 -290,-304 -308,-304 -11,0 -326,287 -330,301 -4,10 41,75 65,95 10,9 38,-13 131,-102 64,-62 121,-114 126,-114 z m -759,-97 c 4,-21 7,-44 8,-52 2,-11 31,-14 143,-15 l 141,-1 69,-60 c 37,-33 128,-118 201,-190 l 133,-130 v -230 c 0,-218 -4,-275 -19,-275 -3,0 -35,24 -71,53 l -65,53 -12,79 c -6,44 -12,81 -12,81 -1,1 -17,14 -37,29 -25,20 -54,30 -93,34 -42,5 -55,10 -52,21 2,8 7,51 12,95 l 8,80 51,47 c 29,25 49,51 45,57 -4,7 -93,11 -268,12 -144,1 -295,4 -335,8 l -73,6 45,43 c 45,43 46,45 46,105 0,61 1,63 56,125 31,34 60,62 64,62 5,0 12,-17 15,-37 z m 1608,-34 47,-41 v -82 c 0,-69 3,-86 20,-104 12,-12 25,-22 31,-22 6,0 8,-4 5,-9 -3,-5 -71,-12 -150,-16 l -144,-7 -159,-148 c -87,-81 -187,-171 -223,-201 l -65,-55 -5,-66 c -3,-45 -11,-72 -24,-87 -36,-39 -125,-103 -136,-96 -6,4 -10,92 -10,254 v 248 l 103,99 c 108,106 215,206 285,267 l 42,37 h 149 c 158,0 161,1 161,51 0,29 20,23 73,-22 z"
       id="path4" />
  </g>
</svg>
