<?xml version="1.0" encoding="UTF-8" standalone="no"?>
<svg
   version="1.0"
   width="350.95343pt"
   height="433.92468pt"
   viewBox="0 0 350.95343 433.92468"
   preserveAspectRatio="xMidYMid"
   id="svg3"
   sodipodi:docname="llamacpp.svg"
   inkscape:version="1.3 (0e150ed, 2023-07-21)"
   xmlns:inkscape="http://www.inkscape.org/namespaces/inkscape"
   xmlns:sodipodi="http://sodipodi.sourceforge.net/DTD/sodipodi-0.dtd"
   xmlns="http://www.w3.org/2000/svg"
   xmlns:svg="http://www.w3.org/2000/svg">
  <defs
     id="defs3" />
  <sodipodi:namedview
     id="namedview3"
     pagecolor="#ffffff"
     bordercolor="#000000"
     borderopacity="0.25"
     inkscape:showpageshadow="2"
     inkscape:pageopacity="0.0"
     inkscape:pagecheckerboard="true"
     inkscape:deskcolor="#d1d1d1"
     inkscape:document-units="pt"
     inkscape:zoom="0.61795062"
     inkscape:cx="360.87026"
     inkscape:cy="319.60482"
     inkscape:window-width="1280"
     inkscape:window-height="688"
     inkscape:window-x="0"
     inkscape:window-y="25"
     inkscape:window-maximized="1"
     inkscape:current-layer="svg3" />
  <path
     id="path15"
     d="M 115.66411,7.7769089e-4 C 108.03646,-0.04647231 97.66356,2.0614588 89.22605,5.7471588 51.629188,22.170371 29.279858,72.255744 26.302778,146.75404 l -1.08171,27.05939 10.19027,-9.11895 c 16.68028,-14.92501 43.7359,-30.80127 65.967952,-38.71307 3.63963,-1.29525 7.39727,-3.00875 8.34819,-3.80665 1.00889,-0.84654 -0.84203,-6.76797 -4.44134,-14.21878 -5.75466,-11.912432 -6.12062,-13.824142 -5.45304,-28.480056 0.68369,-15.00947 1.27807,-16.84384 13.33674,-41.2326 C 128.87131,6.4869918 129.50802,4.3066778 123.92323,1.4548327 122.03009,0.48812169 119.13122,0.02222669 115.66411,7.7769089e-4 Z M 204.3319,24.868452 c -7.90831,-0.07627 -17.36177,1.199451 -23.54292,3.870384 -18.58511,8.030767 -38.06958,36.609918 -47.25132,69.305902 -2.22908,7.937702 -4.5161,15.970742 -5.08401,17.852392 -0.86974,2.88178 -0.32873,3.22525 3.43601,2.17653 2.45813,-0.68477 18.29522,-1.73488 35.1935,-2.33437 16.89826,-0.59952 30.72354,-1.40131 30.72354,-1.78192 0,-0.38061 -1.78758,-5.74168 -3.97051,-11.9117 -6.54342,-18.495036 -4.8829,-25.966506 11.1988,-50.400166 7.46265,-11.33831 13.56896,-21.480943 13.56896,-22.542378 0,-2.73047 -6.36368,-4.158497 -14.27205,-4.234674 z M 168.50212,145.23018 c -45.12449,0.0128 -76.75805,10.98462 -110.460932,38.31236 -22.62195,18.34285 -45.99259,54.10069 -54.3650997,83.1786 -4.94441,17.17201 -4.88874,65.42308 0.0924,79.37804 16.4963297,46.21663 57.3528097,79.08349 107.4639617,86.44794 32.21284,4.73407 74.8601,-2.95259 109.24245,-19.68893 l 7.20925,-3.50917 -4.64502,-17.64293 c -2.55479,-9.70397 -5.46337,-20.62804 -6.46485,-24.27571 l -1.82292,-6.63282 -14.30391,6.30496 c -22.86829,10.08133 -41.37356,13.8047 -63.89044,12.8558 -13.70887,-0.57772 -22.19455,-1.94878 -30.04268,-4.85697 -14.96555,-5.54563 -31.436082,-20.30658 -37.827792,-33.90468 -16.63575,-35.39192 -7.26602,-83.4333 21.984032,-112.712 34.5434,-34.57726 78.91103,-41.04325 127.6377,-18.6022 9.71534,4.47445 18.40283,7.701 19.30836,7.16708 1.84426,-1.08761 26.365,-41.92583 26.365,-43.91001 0,-1.77105 -17.98211,-11.91179 -29.15193,-16.43783 -20.81281,-8.43331 -38.421,-11.4793 -66.32745,-11.47153 z m -4.7277,92.6254 v 17.13902 17.13905 h -17.96261 -17.96264 v 15.33281 15.33588 h 17.96264 17.96261 v 17.13903 17.13599 h 16.06964 16.07283 v -17.13599 -17.13903 h 17.01451 17.0178 V 287.46646 272.13365 H 212.9314 195.91689 V 254.9946 237.85558 h -16.07283 z m 121.00426,0 v 17.13902 17.13905 h -17.95945 -17.96254 v 15.33281 15.33588 h 17.96254 17.95945 v 17.13903 17.13599 h 15.12793 15.12482 v -17.13599 -17.13903 h 17.96254 17.95945 V 287.46646 272.13365 H 332.99397 315.03143 V 254.9946 237.85558 h -15.12482 z" />
</svg>
