<?xml version="1.0" standalone="no"?>
<!DOCTYPE svg PUBLIC "-//W3C//DTD SVG 20010904//EN"
 "http://www.w3.org/TR/2001/REC-SVG-20010904/DTD/svg10.dtd">
<svg version="1.0" xmlns="http://www.w3.org/2000/svg"
 width="590.000000pt" height="589.000000pt" viewBox="0 0 590.000000 589.000000"
 preserveAspectRatio="xMidYMid meet">

<g transform="translate(0.000000,589.000000) scale(0.100000,-0.100000)" stroke="none">
<path d="M4436 5263 c-22 -2 -49 -11 -60 -19 -11 -8 -30 -14 -43 -14 -12 0
-32 -4 -45 -9 -42 -16 -113 -43 -133 -51 -61 -23 -191 -92 -267 -143 -181
-122 -327 -258 -472 -441 -71 -88 -216 -297 -216 -309 0 -4 -15 -30 -33 -59
-73 -115 -212 -419 -256 -558 -6 -19 -21 -64 -32 -100 -12 -36 -25 -81 -30
-100 -22 -96 -28 -122 -47 -215 -46 -228 -66 -517 -52 -743 15 -221 48 -473
71 -530 5 -13 9 -33 9 -44 0 -12 4 -35 9 -52 6 -17 17 -58 27 -91 73 -263 189
-540 299 -714 31 -50 136 -145 217 -197 38 -24 70 -44 73 -44 3 0 22 -10 43
-23 42 -26 202 -92 247 -102 16 -4 33 -12 37 -18 5 -8 58 -12 170 -12 l163 0
97 48 c76 37 111 62 169 120 71 70 179 221 179 249 0 8 4 18 9 23 30 33 61
177 61 282 0 95 -4 121 -41 241 -60 197 -199 365 -390 475 -24 14 -80 45 -124
70 -327 184 -411 248 -422 319 -9 60 2 80 81 145 148 124 337 231 541 308 55
20 108 41 117 46 10 5 27 9 37 9 11 0 23 5 26 10 3 6 14 10 22 10 9 0 55 12
102 26 47 14 102 29 121 34 19 4 62 15 95 24 69 19 117 32 178 47 82 20 263
81 317 107 187 88 391 273 468 427 41 81 63 136 78 197 9 35 21 66 27 70 15 9
14 341 -1 346 -6 2 -14 20 -18 40 -7 40 -28 113 -44 150 -6 12 -15 34 -21 50
-118 283 -358 521 -639 634 -82 32 -117 45 -155 53 -16 4 -33 12 -37 18 -7 12
-425 20 -512 10z"/>
<path d="M740 4521 c-14 -5 -50 -14 -80 -21 -157 -36 -350 -175 -454 -325 -70
-102 -145 -276 -166 -385 -12 -59 -12 -365 -1 -410 18 -69 57 -166 96 -235 40
-71 183 -225 209 -225 7 0 19 -6 25 -14 15 -17 110 -64 171 -83 59 -19 136
-33 235 -43 44 -5 114 -13 155 -19 41 -6 109 -16 150 -21 121 -17 191 -30 250
-46 30 -8 73 -20 95 -26 98 -25 297 -115 335 -150 25 -23 34 -74 27 -154 -6
-81 -77 -230 -173 -363 -86 -121 -93 -129 -191 -231 -84 -88 -139 -172 -162
-250 -7 -25 -17 -55 -22 -68 -13 -32 -11 -208 2 -251 50 -164 174 -284 347
-337 122 -37 290 6 442 112 127 89 252 228 352 396 15 24 57 143 97 273 17 55
40 159 51 235 6 41 16 107 23 145 16 94 16 485 -1 600 -46 318 -109 525 -241
795 -55 114 -184 322 -243 395 -168 206 -299 341 -413 425 -33 25 -62 48 -65
51 -3 3 -30 21 -60 41 -139 88 -288 150 -453 187 -54 12 -299 13 -337 2z"/>
</g>
</svg>
