<?xml version="1.0" encoding="UTF-8" standalone="no"?>
<svg
   version="1.0"
   width="467.388pt"
   height="618.89093pt"
   viewBox="0 0 467.388 618.89093"
   preserveAspectRatio="xMidYMid"
   id="svg5"
   sodipodi:docname="ollama.svg"
   inkscape:version="1.3 (0e150ed, 2023-07-21)"
   xmlns:inkscape="http://www.inkscape.org/namespaces/inkscape"
   xmlns:sodipodi="http://sodipodi.sourceforge.net/DTD/sodipodi-0.dtd"
   xmlns="http://www.w3.org/2000/svg"
   xmlns:svg="http://www.w3.org/2000/svg">
  <defs
     id="defs5" />
  <sodipodi:namedview
     id="namedview5"
     pagecolor="#ffffff"
     bordercolor="#000000"
     borderopacity="0.25"
     inkscape:showpageshadow="2"
     inkscape:pageopacity="0.0"
     inkscape:pagecheckerboard="false"
     inkscape:deskcolor="#d1d1d1"
     inkscape:document-units="pt"
     inkscape:zoom="0.20971564"
     inkscape:cx="309.9435"
     inkscape:cy="278.94915"
     inkscape:window-width="1280"
     inkscape:window-height="688"
     inkscape:window-x="0"
     inkscape:window-y="25"
     inkscape:window-maximized="1"
     inkscape:current-layer="svg5" />
  <g
     transform="matrix(0.1,0,0,-0.1,-188.01849,632.89095)"
     stroke="none"
     id="g5">
    <path
       d="m 2849,6312 c -219,-73 -378,-347 -444,-768 -34,-213 -29,-629 9,-774 l 13,-49 -105,-103 c -143,-140 -201,-210 -265,-320 -85,-145 -143,-312 -167,-477 -20,-135 -8,-404 23,-522 34,-129 78,-237 138,-337 l 50,-83 -50,-117 c -96,-227 -130,-376 -138,-618 -12,-345 48,-589 208,-854 l 21,-35 -35,-57 c -43,-72 -100,-243 -122,-368 -26,-149 -31,-393 -11,-523 10,-59 22,-121 28,-138 l 10,-29 177,2 176,3 -1,40 c 0,22 -11,76 -23,120 -42,149 -26,433 34,610 13,39 51,120 84,179 33,60 63,122 67,138 10,46 -4,109 -34,154 -15,22 -46,69 -69,103 -171,254 -206,664 -88,1017 27,80 77,185 130,274 63,105 56,178 -25,260 -138,138 -221,394 -207,634 21,357 227,680 532,833 130,66 183,77 375,78 96,0 183,4 193,9 10,5 36,45 58,90 121,242 304,391 594,484 72,23 96,26 235,26 148,0 160,-1 250,-32 281,-94 469,-249 577,-478 50,-105 54,-107 215,-99 153,8 244,-6 365,-57 143,-59 293,-181 389,-314 62,-87 130,-236 161,-351 22,-84 26,-119 26,-243 0,-124 -4,-159 -26,-242 -31,-118 -101,-257 -167,-332 -83,-95 -88,-166 -19,-277 128,-206 190,-431 191,-689 1,-277 -53,-446 -217,-684 -36,-52 -51,-114 -41,-164 4,-16 34,-78 67,-138 33,-59 71,-140 84,-178 60,-182 76,-461 34,-611 -12,-44 -23,-98 -23,-120 l -1,-40 176,-3 177,-2 11,31 c 46,134 52,474 11,683 -25,129 -78,281 -121,351 l -31,50 21,35 c 159,261 219,507 208,848 -8,252 -53,444 -155,663 l -40,86 31,49 c 59,94 119,235 150,352 29,112 31,126 31,317 1,224 -9,294 -70,472 -19,55 -34,106 -34,113 0,21 -109,198 -159,257 -26,32 -98,107 -159,167 -61,60 -109,113 -106,118 16,25 35,205 41,368 8,260 -15,478 -72,675 -88,303 -214,474 -393,534 -207,70 -405,-47 -542,-318 -75,-151 -139,-379 -156,-558 l -7,-72 -99,50 c -189,95 -399,149 -578,149 -173,0 -383,-52 -560,-138 -52,-26 -98,-48 -101,-50 -3,-1 -9,28 -13,65 -29,288 -146,595 -282,742 -121,130 -274,179 -415,133 z m 153,-374 c 119,-127 208,-471 208,-804 0,-85 -4,-112 -20,-144 -17,-34 -25,-40 -53,-40 -51,0 -267,-30 -326,-45 -30,-8 -56,-13 -58,-12 -1,2 -7,67 -14,145 -16,215 7,467 62,657 39,133 121,275 159,275 7,0 25,-14 42,-32 z m 2529,1 c 124,-133 208,-558 179,-909 -6,-74 -13,-136 -15,-138 -2,-2 -25,3 -52,11 -39,12 -122,24 -352,50 -7,1 -22,18 -33,37 -18,32 -19,50 -15,200 8,255 53,468 132,635 34,71 93,145 115,145 7,0 25,-14 41,-31 z"
       id="path1" />
    <path
       d="m 4115,3729 c -390,-29 -735,-284 -824,-609 -26,-93 -28,-244 -5,-334 38,-149 171,-324 306,-404 85,-50 204,-99 288,-117 99,-22 453,-32 584,-16 350,41 626,253 700,538 20,78 21,240 1,318 -36,140 -144,303 -266,401 -218,174 -474,247 -784,223 z m 329,-258 c 291,-76 497,-291 500,-521 3,-227 -192,-414 -479,-460 -80,-13 -403,-13 -485,1 -212,34 -390,160 -452,319 -29,77 -29,194 1,272 79,206 278,353 544,404 97,18 269,11 371,-15 z"
       id="path2" />
    <path
       d="m 4038,3151 c -58,-52 -40,-123 47,-177 43,-27 45,-31 40,-64 -19,-120 -19,-127 8,-154 22,-22 35,-26 85,-26 91,0 123,41 103,130 -17,74 -15,83 33,113 56,35 76,66 76,116 0,32 -6,44 -31,65 -39,33 -81,33 -136,1 l -43,-24 -42,24 c -58,33 -100,32 -140,-4 z"
       id="path3" />
    <path
       d="m 2932,3664 c -107,-53 -169,-209 -128,-319 44,-115 194,-177 303,-124 89,43 153,148 153,250 0,171 -171,271 -328,193 z"
       id="path4" />
    <path
       d="m 5320,3675 c -119,-54 -165,-193 -104,-320 27,-58 88,-118 141,-141 68,-29 162,-10 227,47 86,76 97,174 35,297 -45,89 -101,125 -198,129 -44,2 -78,-2 -101,-12 z"
       id="path5" />
  </g>
</svg>
