<?xml version="1.0" encoding="UTF-8" standalone="no"?>
<!-- Created with Inkscape (http://www.inkscape.org/) -->

<svg
   width="8.2832384mm"
   height="9.4351206mm"
   viewBox="0 0 8.2832384 9.4351206"
   version="1.1"
   id="svg1"
   xml:space="preserve"
   inkscape:version="1.3 (0e150ed, 2023-07-21)"
   sodipodi:docname="scale.svg"
   xmlns:inkscape="http://www.inkscape.org/namespaces/inkscape"
   xmlns:sodipodi="http://sodipodi.sourceforge.net/DTD/sodipodi-0.dtd"
   xmlns="http://www.w3.org/2000/svg"
   xmlns:svg="http://www.w3.org/2000/svg"><sodipodi:namedview
     id="namedview1"
     pagecolor="#ffffff"
     bordercolor="#000000"
     borderopacity="0.25"
     inkscape:showpageshadow="2"
     inkscape:pageopacity="0.0"
     inkscape:pagecheckerboard="0"
     inkscape:deskcolor="#d1d1d1"
     inkscape:document-units="mm"
     showgrid="false"
     inkscape:zoom="1.0289025"
     inkscape:cx="8.7471843"
     inkscape:cy="8.2612296"
     inkscape:window-width="1280"
     inkscape:window-height="688"
     inkscape:window-x="0"
     inkscape:window-y="25"
     inkscape:window-maximized="1"
     inkscape:current-layer="layer1" /><defs
     id="defs1" /><g
     inkscape:label="Layer 1"
     inkscape:groupmode="layer"
     id="layer1"
     transform="translate(-88.746886,-143.1532)"><g
       id="g1"
       transform="matrix(0.26458333,0,0,0.26458333,88.077577,143.1532)"><path
         d="m 14.3423,8.42148 0.0218,-0.00723 2.1725,-0.51502 c 0.4642,-0.10879 0.8631,-0.40619 1.1025,-0.81965 l 0.5041,-0.87044 0.0146,-0.02902 0.0145,0.02902 0.5041,0.87044 c 0.2394,0.41346 0.6383,0.71086 1.1025,0.81965 l 2.1725,0.51502 0.0254,0.01087 H 21.9514 L 19.7789,8.94737 C 19.3147,9.0562 18.9158,9.35359 18.6764,9.76705 l -0.5041,0.87045 -0.0145,0.029 -0.0146,-0.029 -0.5041,-0.87045 C 17.3997,9.35359 17.0008,9.0562 16.5366,8.94737 L 14.3641,8.43239 14.3423,8.42512 Z"
         id="path10" /><path
         d="M 14.3423,2.245 14.3641,2.23775 16.5366,1.72274 C 17.0008,1.61393 17.3997,1.31653 17.6391,0.903078 L 18.1432,0.0290146 18.1578,0 18.1723,0.0290146 18.6764,0.899453 C 18.9158,1.31291 19.3147,1.61031 19.7789,1.71911 L 21.9514,2.23412 21.9768,2.245 H 21.9514 L 19.7789,2.76726 C 19.3147,2.87607 18.9158,3.17347 18.6764,3.58692 L 18.1723,4.45738 18.1578,4.48639 18.1432,4.45738 17.6391,3.58692 C 17.3997,3.17347 17.0008,2.87607 16.5366,2.76726 L 14.3641,2.25225 Z"
         id="path11" /><path
         d="M 18.183,15.7998 C 17.9328,13.7832 16.754,11.9807 14.9697,10.9507 11.749,9.03938 8.96364,8.82176 6.23265,6.73999 L 2.52967,8.79638 18.183,17.8344 33.8364,8.79638 30.1334,6.74359 c -2.731,2.08181 -5.5164,2.29943 -8.737,4.21071 -1.7844,1.0301 -2.9631,2.8326 -3.2134,4.8491 z"
         id="path12" /><path
         d="M 18.183,35.6603 C 17.824,35.653 17.4649,35.5551 17.1458,35.3701 L 2.52967,26.9269 V 8.79646 L 17.1458,17.236 c 0.3227,0.185 0.6782,0.2829 1.0372,0.2902 0.3591,-0.0073 0.7181,-0.1052 1.0373,-0.2902 L 33.8364,8.79646 V 26.9306 l -14.6161,8.4395 c -0.3228,0.185 -0.6782,0.2829 -1.0373,0.2902 z"
         id="path13" /><path
         d="m 18.183,35.6603 c 0.3591,-0.0073 0.7181,-0.1052 1.0373,-0.2902 l 14.616,-8.4395 V 8.79646 L 19.2203,17.236 c -0.3228,0.185 -0.6782,0.2829 -1.0373,0.2902"
         id="path14" /><path
         d="M 18.183,17.5262 C 17.824,17.5189 17.4649,17.421 17.1458,17.236 L 2.52967,8.79646 V 26.9306 l 14.61613,8.4395 c 0.3227,0.185 0.6782,0.2829 1.0372,0.2902"
         id="path15" /><path
         d="M 18.1831,17.5262 C 17.824,17.5189 17.465,17.421 17.1458,17.236 l -1.4507,-0.8378 v 18.1341 l 1.4507,0.8378 c 0.3228,0.185 0.6782,0.2829 1.0373,0.2902 0.359,-0.0073 0.7181,-0.1052 1.0372,-0.2902 l 1.4508,-0.8378 V 16.3946 l -1.4508,0.8378 c -0.3227,0.1849 -0.6782,0.2829 -1.0372,0.2901 z"
         id="path16" /><path
         d="M 9,5.32055 9.02174,5.31328 11.1942,4.79826 c 0.4643,-0.10879 0.8632,-0.40618 1.1026,-0.81964 l 0.5041,-0.87044 0.0145,-0.02902 0.0145,0.02902 0.5041,0.87044 c 0.2394,0.41346 0.6384,0.71085 1.1026,0.81964 l 2.1725,0.51502 0.0253,0.01087 H 16.6091 L 14.4366,5.84644 C 13.9724,5.95523 13.5734,6.25263 13.334,6.66609 L 12.8299,7.53653 12.8154,7.56555 12.8009,7.53653 12.2968,6.66609 C 12.0574,6.25263 11.6585,5.95523 11.1942,5.84644 L 9.02174,5.33142 9,5.32415 Z"
         id="path17" /><path
         d="m 19.6593,5.32055 0.0218,-0.00727 2.1724,-0.51502 c 0.4642,-0.10879 0.8632,-0.40618 1.1026,-0.81964 l 0.5041,-0.87044 0.0145,-0.02902 0.0145,0.02902 0.5042,0.87044 c 0.2393,0.41346 0.6383,0.71085 1.1025,0.81964 l 2.1724,0.51502 0.0255,0.01087 H 27.2683 L 25.0959,5.84644 C 24.6317,5.95523 24.2327,6.25263 23.9934,6.66609 L 23.4892,7.53653 23.4747,7.56555 23.4602,7.53653 22.9561,6.66609 C 22.7167,6.25263 22.3177,5.95523 21.8535,5.84644 L 19.6811,5.33142 19.6593,5.32415 Z"
         id="path18" /></g></g></svg>
