<?xml version="1.0" standalone="no"?>
<!DOCTYPE svg PUBLIC "-//W3C//DTD SVG 20010904//EN"
 "http://www.w3.org/TR/2001/REC-SVG-20010904/DTD/svg10.dtd">
<svg version="1.0" xmlns="http://www.w3.org/2000/svg"
 width="176.000000pt" height="176.000000pt" viewBox="0 0 176.000000 176.000000"
 preserveAspectRatio="xMidYMid meet">

<g transform="translate(0.000000,176.000000) scale(0.100000,-0.100000)" stroke="none">
<path d="M197 1670 c-16 -19 -32 -58 -43 -107 -19 -87 -16 -222 11 -422 21
-162 19 -218 -10 -306 -49 -144 -43 -332 14 -443 54 -106 160 -180 297 -207
164 -33 202 -44 270 -77 59 -28 80 -33 144 -33 66 0 84 4 154 38 53 25 110 43
170 53 122 21 177 38 241 74 158 90 225 282 180 515 -8 42 -21 90 -30 107 -20
41 -19 144 1 284 9 60 17 177 17 259 1 134 -1 156 -21 206 -31 77 -50 93 -104
85 -84 -13 -183 -89 -319 -243 l-54 -62 -75 19 c-100 26 -224 26 -321 0 l-74
-20 -54 63 c-95 109 -182 186 -244 217 -79 39 -117 39 -150 0z m1121 -897 c2
-18 -5 -52 -16 -76 -25 -55 -61 -73 -171 -83 l-84 -7 5 51 c7 74 45 114 138
146 8 3 40 4 70 3 54 -2 55 -2 58 -34z m-693 16 c24 -7 55 -27 78 -51 33 -34
37 -45 37 -88 0 -57 5 -56 -119 -40 -96 13 -136 48 -141 125 -5 64 -4 65 53
65 28 0 70 -5 92 -11z m391 -384 c21 -28 18 -33 -31 -63 -32 -19 -48 -36 -53
-57 -6 -23 -14 -30 -32 -30 -18 0 -26 7 -32 32 -6 24 -19 38 -48 53 -31 16
-40 26 -40 46 0 34 27 42 134 40 73 -2 91 -6 102 -21z"/>
</g>
</svg>
