<?xml version="1.0" encoding="UTF-8" standalone="no"?>
<svg
   version="1.0"
   width="726pt"
   height="545.33887pt"
   viewBox="0 0 726 545.33887"
   preserveAspectRatio="xMidYMid"
   id="svg34"
   sodipodi:docname="textgenwebui.svg"
   inkscape:version="1.2.1 (9c6d41e410, 2022-07-14)"
   xmlns:inkscape="http://www.inkscape.org/namespaces/inkscape"
   xmlns:sodipodi="http://sodipodi.sourceforge.net/DTD/sodipodi-0.dtd"
   xmlns="http://www.w3.org/2000/svg"
   xmlns:svg="http://www.w3.org/2000/svg">
  <defs
     id="defs38" />
  <sodipodi:namedview
     id="namedview36"
     pagecolor="#ffffff"
     bordercolor="#000000"
     borderopacity="0.25"
     inkscape:showpageshadow="2"
     inkscape:pageopacity="0.0"
     inkscape:pagecheckerboard="0"
     inkscape:deskcolor="#d1d1d1"
     inkscape:document-units="pt"
     showgrid="false"
     inkscape:zoom="0.53188379"
     inkscape:cx="542.41172"
     inkscape:cy="569.67331"
     inkscape:window-width="2560"
     inkscape:window-height="1377"
     inkscape:window-x="5112"
     inkscape:window-y="-8"
     inkscape:window-maximized="1"
     inkscape:current-layer="svg34" />
  <g
     transform="matrix(0.1,0,0,-0.1,-161,785.52252)"
     stroke="none"
     id="g32">
    <path
       d="m 3815,7853 c -92,-11 -241,-45 -254,-58 -14,-13 -12,-15 16,-15 42,0 63,-23 63,-69 0,-67 -89,-211 -131,-211 -29,0 -24,47 11,113 17,32 30,71 29,89 0,18 -3,27 -6,21 -2,-7 -11,-13 -18,-13 -24,0 -80,-56 -109,-110 -32,-58 -42,-135 -27,-200 9,-42 8,-47 -18,-75 -32,-34 -181,-294 -181,-316 0,-8 25,-24 63,-38 292,-111 1060,-414 1312,-519 385,-160 532,-201 1035,-293 75,-14 125,-36 175,-80 39,-35 44,-58 17,-82 -54,-49 -369,20 -1016,220 -194,60 -243,76 -451,155 -171,65 -180,58 -22,-16 161,-77 245,-112 350,-150 50,-18 153,-56 227,-84 74,-28 230,-83 345,-122 116,-39 237,-84 270,-100 90,-43 201,-155 351,-355 104,-137 240,-327 279,-390 78,-123 126,-167 106,-97 -20,68 -105,283 -155,390 -62,134 -101,238 -179,474 -31,92 -68,186 -83,208 -16,23 -80,85 -144,137 -63,52 -123,107 -132,121 -11,16 -18,46 -18,75 0,27 -3,47 -7,45 -5,-2 -30,-15 -58,-29 -110,-58 -246,-79 -380,-59 -211,32 -370,157 -444,350 -17,44 -34,106 -37,138 -24,224 160,462 408,528 162,43 352,-6 477,-122 155,-143 205,-331 145,-539 -28,-97 -28,-100 11,-195 38,-95 60,-134 138,-245 39,-55 81,-115 93,-133 13,-19 33,-59 45,-90 12,-31 35,-91 51,-132 35,-89 108,-288 154,-418 18,-52 34,-96 36,-98 5,-4 189,-50 458,-114 96,-23 218,-53 270,-66 52,-12 96,-22 97,-20 1,1 11,38 20,82 14,60 18,122 17,259 v 180 l -43,140 c -46,152 -124,326 -191,426 -121,180 -371,400 -655,578 -132,83 -356,210 -390,221 -27,9 -39,22 -58,63 -74,160 -226,288 -394,331 -79,21 -240,21 -318,1 -106,-28 -224,-91 -310,-166 l -33,-30 -344,-4 c -381,-5 -711,-18 -745,-30 -34,-11 -30,21 5,39 42,22 176,63 277,85 110,24 385,46 478,37 42,-4 67,-2 67,4 0,11 -112,133 -222,242 -101,100 -209,144 -323,131 z m -67,-609 c 17,-12 22,-25 22,-57 -1,-65 -45,-106 -94,-87 -31,11 -46,39 -46,82 0,65 65,99 118,62 z"
       id="path2" />
    <path
       d="m 5035,7341 c -84,-24 -121,-46 -186,-108 -69,-65 -105,-140 -119,-247 -18,-127 20,-237 114,-331 100,-99 211,-141 357,-133 71,4 97,11 150,37 158,80 245,232 237,414 -2,67 -9,93 -33,141 -97,192 -315,287 -520,227 z m 274,-94 c 69,-25 134,-84 165,-151 36,-76 39,-92 20,-111 -17,-16 -18,-15 -35,17 -25,48 -121,136 -176,160 -34,15 -70,22 -123,22 -94,1 -161,-28 -238,-103 -57,-55 -64,-58 -81,-37 -29,35 58,149 144,191 96,47 217,52 324,12 z m -413,-444 c 82,-100 154,-144 245,-151 68,-5 117,10 181,54 30,20 55,30 68,27 52,-14 -52,-92 -150,-113 -89,-19 -161,-8 -250,37 -82,42 -160,124 -160,168 0,38 23,30 66,-22 z"
       id="path4" />
    <path
       d="m 3250,6798 c 0,-9 38,-62 133,-184 18,-23 18,-24 -45,-91 -116,-123 -197,-263 -263,-453 -33,-95 -89,-310 -83,-315 3,-3 370,156 473,204 33,15 83,38 112,51 32,14 53,31 57,44 18,68 -43,339 -96,424 -24,40 -18,50 20,31 42,-22 190,-176 222,-233 49,-85 37,-176 -36,-272 l -27,-35 184,-185 c 101,-102 200,-194 220,-204 64,-33 388,-141 689,-230 232,-68 257,-75 383,-111 60,-17 116,-32 125,-35 30,-8 -90,50 -183,90 -409,175 -962,434 -949,445 5,4 34,15 64,24 30,8 114,34 187,56 151,46 300,71 434,72 52,0 103,4 114,9 11,5 18,9 15,9 -251,35 -520,96 -720,165 -91,31 -96,34 -132,87 -49,72 -88,105 -243,207 -155,101 -368,249 -445,307 -80,60 -191,135 -201,135 -5,0 -9,-5 -9,-12 z"
       id="path6" />
    <path
       d="m 6996,6221 c -3,-5 23,-65 58,-132 36,-68 77,-164 92,-214 24,-81 28,-111 33,-293 l 6,-204 52,64 c 96,121 257,217 487,292 16,6 18,13 13,58 -13,107 -103,226 -215,286 -80,42 -278,107 -401,131 -118,24 -118,24 -125,12 z"
       id="path8" />
    <path
       d="m 2245,5875 c -102,-49 -102,-45 0,-138 161,-147 235,-229 305,-336 16,-23 16,-23 15,13 -4,111 110,217 308,287 20,7 37,16 37,20 0,20 -255,119 -399,155 -123,32 -201,31 -266,-1 z"
       id="path10" />
    <path
       d="m 3555,5873 c -25,-7 -143,-55 -365,-151 -96,-41 -222,-94 -279,-118 -176,-74 -230,-115 -236,-176 -5,-60 146,-595 232,-818 142,-372 193,-483 291,-634 30,-47 42,-73 36,-82 -5,-8 -63,-41 -128,-74 l -119,-61 -181,-10 c -186,-10 -353,-27 -556,-55 -158,-22 -371,-22 -429,-1 -24,10 -68,17 -98,17 -47,0 -59,-4 -84,-29 -19,-19 -29,-40 -29,-58 1,-83 101,-108 240,-59 65,23 102,28 278,38 237,13 510,0 563,-27 69,-36 46,-67 -124,-159 -67,-36 -171,-94 -231,-130 -80,-48 -127,-69 -181,-81 -97,-21 -160,-62 -174,-111 -27,-97 79,-173 182,-129 21,8 64,40 96,69 32,30 98,80 147,113 233,156 391,209 601,204 48,-1 107,-59 133,-129 30,-79 42,-200 29,-286 -12,-76 -21,-95 -82,-168 -67,-80 -61,-151 16,-198 64,-39 173,-17 203,42 14,27 15,42 4,122 -14,104 -2,183 46,308 27,70 109,193 179,270 72,77 103,123 132,193 24,60 28,84 28,165 0,87 -3,101 -32,161 -22,44 -33,81 -33,110 0,99 -198,560 -360,841 -162,279 -271,425 -381,508 -44,33 -78,60 -76,60 3,0 36,-13 74,-28 86,-35 141,-73 221,-151 49,-49 62,-57 62,-41 0,53 39,101 281,345 l 250,253 -37,53 c -44,63 -75,99 -83,98 -3,-1 -15,-4 -26,-6 z"
       id="path12" />
    <path
       d="m 2100,5608 c 0,-164 46,-382 117,-560 45,-113 157,-307 236,-412 34,-44 113,-134 176,-200 89,-91 111,-120 100,-126 -8,-5 -71,-18 -139,-29 -69,-11 -180,-32 -246,-45 -221,-45 -410,-68 -472,-56 -83,15 -126,13 -145,-8 -21,-23 -21,-41 -1,-71 15,-21 22,-23 74,-18 31,2 74,14 96,25 86,44 429,55 522,17 35,-14 42,-22 42,-44 0,-15 -6,-34 -12,-43 -35,-42 -303,-198 -342,-198 -96,0 -144,-93 -60,-114 30,-8 53,5 134,75 97,83 248,154 436,204 131,35 288,65 342,65 40,0 43,2 37,23 -12,38 -58,153 -152,377 -109,261 -169,440 -220,664 -21,93 -39,162 -41,152 -6,-26 -20,-19 -48,27 -63,99 -380,387 -426,387 -5,0 -8,-42 -8,-92 z"
       id="path14" />
    <path
       d="m 5474,5649 c -136,-39 -96,-227 118,-548 58,-87 142,-236 170,-303 5,-13 -23,-40 -134,-125 -251,-191 -498,-415 -727,-656 -56,-60 -104,-107 -106,-105 -4,4 109,136 315,369 80,90 184,209 230,264 47,55 128,150 180,210 118,136 131,152 110,140 -38,-22 -416,-329 -510,-414 -58,-53 -233,-222 -390,-376 -157,-154 -327,-319 -378,-367 -83,-78 -92,-90 -92,-123 0,-71 6,-76 290,-287 171,-127 374,-292 436,-353 67,-67 138,-164 182,-250 29,-58 36,-85 42,-158 5,-65 12,-95 27,-115 45,-61 163,-68 223,-12 25,23 30,36 30,75 0,43 -4,51 -55,103 -42,44 -71,88 -121,191 -77,155 -86,183 -74,217 13,33 43,42 104,32 73,-13 143,-50 246,-129 133,-103 216,-185 278,-272 64,-91 86,-108 151,-115 59,-5 110,16 134,57 40,69 8,128 -97,177 -41,18 -99,55 -129,81 -31,27 -120,104 -199,172 -173,149 -218,197 -218,232 0,47 21,54 159,52 213,-3 380,-45 533,-134 83,-48 99,-54 150,-54 71,1 108,29 108,83 0,70 -75,111 -200,111 -70,0 -251,48 -510,136 -209,71 -563,166 -675,182 l -46,6 113,75 c 197,131 284,209 741,661 152,151 277,283 289,306 62,119 -49,352 -353,746 -114,148 -165,194 -233,214 -55,17 -67,17 -112,4 z"
       id="path16" />
    <path
       d="m 7525,5477 c -155,-93 -271,-175 -324,-229 -27,-28 -63,-87 -102,-167 -66,-134 -120,-226 -179,-305 -21,-28 -66,-102 -101,-165 -58,-106 -63,-118 -67,-190 -5,-94 10,-119 77,-128 l 43,-6 -6,-44 c -20,-150 -116,-199 -515,-264 -241,-39 -386,-68 -379,-74 2,-2 60,-6 128,-10 69,-3 195,-10 280,-16 399,-24 651,4 950,107 319,110 688,402 913,721 139,198 191,437 124,575 -30,62 -74,106 -140,140 -64,33 -207,37 -317,8 -90,-23 -322,-114 -405,-158 -30,-16 -103,-80 -180,-157 -71,-71 -125,-123 -119,-115 54,74 250,309 341,409 105,114 125,142 106,141 -5,-1 -62,-33 -128,-73 z m 688,-272 c 26,-11 47,-23 47,-27 0,-10 -43,-38 -150,-98 -224,-126 -622,-405 -940,-659 -182,-145 -201,-159 -140,-101 84,81 135,125 244,215 61,50 137,113 170,140 88,73 313,256 351,285 18,14 63,50 101,82 76,62 256,188 264,185 3,-1 27,-11 53,-22 z"
       id="path18" />
    <path
       d="m 3623,5458 c -81,-76 -224,-202 -273,-239 l -34,-26 54,-20 c 30,-11 119,-44 198,-73 l 142,-53 48,15 c 46,16 205,77 210,82 3,4 -236,334 -269,370 -4,5 -38,-20 -76,-56 z"
       id="path20" />
    <path
       d="m 2581,5324 c 0,-11 3,-14 6,-6 3,7 2,16 -1,19 -3,4 -6,-2 -5,-13 z"
       id="path22" />
    <path
       d="m 4440,5141 c -410,-165 -674,-277 -753,-317 -36,-19 -37,-21 -20,-36 30,-26 82,-38 223,-53 74,-8 205,-23 290,-34 305,-40 776,-91 838,-91 h 64 l 141,109 c 78,61 175,137 214,169 l 73,59 -43,16 c -62,24 -254,78 -497,141 -118,31 -248,65 -289,76 -41,11 -79,20 -85,20 -6,0 -76,-27 -156,-59 z"
       id="path24" />
    <path
       d="m 6793,5056 c -122,-91 -299,-254 -463,-422 -136,-141 -440,-467 -480,-517 l -25,-30 30,7 c 144,33 344,62 578,85 103,10 190,20 192,23 3,2 -4,30 -15,61 -43,123 -20,278 70,462 60,124 175,329 208,373 13,17 20,32 14,32 -6,0 -55,-33 -109,-74 z"
       id="path26" />
    <path
       d="m 3342,4963 c 41,-81 134,-280 156,-335 17,-40 47,-113 67,-163 20,-49 54,-142 75,-205 l 38,-115 260,-86 c 143,-48 274,-90 292,-94 31,-7 31,-6 19,17 -22,41 -200,257 -369,447 -167,188 -514,541 -532,541 -5,0 -8,-3 -6,-7 z"
       id="path28" />
    <path
       d="m 7606,3981 c -126,-89 -286,-156 -446,-186 -41,-8 -183,-24 -314,-35 -211,-18 -251,-25 -333,-52 -88,-30 -97,-31 -149,-20 -63,13 -94,5 -118,-30 -36,-52 -4,-102 57,-88 18,4 75,22 127,41 89,31 103,33 230,33 153,1 203,-10 254,-55 60,-52 69,-151 30,-304 -28,-108 -51,-147 -107,-185 -87,-59 -100,-119 -34,-161 26,-16 42,-19 82,-14 70,8 93,35 110,123 16,81 47,147 103,218 154,195 283,236 365,117 35,-51 79,-150 112,-253 23,-75 26,-95 20,-166 -8,-94 6,-134 55,-159 61,-32 175,-12 200,34 25,48 11,90 -59,167 -34,38 -56,77 -84,151 -77,200 -96,313 -59,346 23,21 74,22 115,2 59,-28 391,-304 421,-350 22,-34 87,-65 137,-65 34,0 47,6 76,35 29,29 34,40 28,63 -12,50 -54,81 -145,108 -37,11 -80,42 -191,140 -79,69 -145,129 -147,133 -5,14 57,21 187,21 199,0 287,-23 475,-124 64,-34 115,-34 155,0 35,29 40,66 15,102 -24,35 -53,45 -154,53 -94,8 -536,104 -617,135 -41,15 -65,47 -46,64 24,22 89,30 243,30 234,0 353,-14 439,-50 92,-40 170,-41 206,-5 14,13 25,35 25,49 0,34 -44,83 -82,91 -17,4 -123,8 -237,10 -153,2 -240,8 -336,24 -284,46 -324,51 -430,56 l -110,5 z"
       id="path30" />
  </g>
</svg>
