<?xml version="1.0" standalone="no"?>
<!DOCTYPE svg PUBLIC "-//W3C//DTD SVG 20010904//EN"
 "http://www.w3.org/TR/2001/REC-SVG-20010904/DTD/svg10.dtd">
<svg version="1.0" xmlns="http://www.w3.org/2000/svg"
 width="1280.000000pt" height="1217.000000pt" viewBox="0 0 1280.000000 1217.000000"
 preserveAspectRatio="xMidYMid meet">
<metadata>
Created by potrace 1.15, written by Peter Selinger 2001-2017
</metadata>
<g transform="translate(0.000000,1217.000000) scale(0.100000,-0.100000)" stroke="none">
<path d="M7704 12160 c-84 -17 -256 -71 -307 -96 -186 -94 -274 -202 -399
-492 -32 -74 -72 -152 -90 -175 -80 -100 -141 -163 -211 -215 -41 -32 -145
-120 -232 -197 -228 -203 -324 -268 -491 -331 -160 -60 -436 -92 -899 -104
-428 -11 -478 -15 -585 -50 -499 -163 -1061 -520 -1543 -979 l-78 -75 -100 49
c-54 27 -99 52 -99 55 0 3 35 46 77 95 131 154 287 370 387 537 77 130 96 168
96 200 0 36 -2 38 -25 32 -15 -4 -39 0 -60 10 -29 14 -42 15 -77 5 -147 -39
-405 -230 -705 -523 -79 -76 -143 -136 -143 -132 0 3 37 49 81 102 45 54 132
165 195 248 64 86 132 166 159 186 95 72 107 84 129 129 13 25 33 91 45 146
12 55 29 120 38 144 22 59 11 76 -53 78 -27 0 -63 4 -80 8 -23 5 -44 0 -85
-20 -78 -39 -264 -232 -441 -455 -80 -102 -192 -243 -249 -315 -135 -171 -213
-258 -273 -306 -57 -46 -91 -50 -108 -14 -16 35 15 222 42 250 10 11 35 65 54
120 19 55 69 182 110 283 42 100 75 186 74 190 -1 4 4 25 11 46 14 39 12 113
-5 328 l-7 77 -72 6 c-80 8 -99 2 -153 -49 -101 -93 -192 -314 -302 -728 -110
-413 -138 -498 -195 -589 -13 -20 -79 -99 -145 -175 -206 -235 -338 -412 -628
-844 -188 -278 -318 -656 -353 -1020 -16 -171 -1 -459 33 -638 9 -50 15 -62
29 -60 11 2 31 -19 60 -62 60 -88 105 -118 205 -134 140 -22 189 -10 460 118
49 24 131 68 182 99 51 31 92 51 92 44 0 -7 -34 -185 -75 -396 l-74 -383 41
-67 c23 -36 53 -82 67 -101 l25 -35 -33 30 c-51 46 -34 16 56 -98 105 -132
471 -492 628 -618 130 -105 509 -381 670 -489 384 -257 905 -493 1135 -515 49
-4 137 -27 255 -65 192 -63 338 -106 475 -140 47 -11 92 -23 99 -26 23 -8 -73
-49 -282 -120 -492 -168 -840 -315 -1062 -447 -330 -197 -432 -274 -532 -403
-27 -35 -57 -53 -210 -124 -124 -57 -199 -86 -248 -95 -118 -21 -186 -60 -221
-127 -14 -28 -17 -124 -5 -168 4 -15 1 -43 -10 -70 -19 -51 -16 -70 11 -70 14
0 21 -10 25 -37 4 -21 12 -49 18 -63 21 -43 179 -193 257 -243 41 -27 134 -87
205 -133 209 -137 484 -268 770 -367 55 -19 163 -62 240 -94 77 -33 201 -81
275 -107 74 -27 191 -68 260 -93 179 -65 382 -113 721 -172 271 -47 301 -50
350 -40 36 8 116 10 239 6 276 -8 386 -41 584 -172 53 -35 153 -111 222 -169
145 -121 277 -222 384 -293 143 -96 584 -356 659 -390 42 -19 87 -40 101 -48
14 -7 41 -16 62 -20 45 -9 93 23 107 69 5 17 12 39 16 49 5 12 2 17 -8 17 -8
0 -29 21 -45 47 -30 46 -189 207 -322 326 l-65 59 63 -47 c34 -26 110 -92 168
-147 93 -89 129 -111 129 -82 0 5 4 16 9 23 7 11 -13 36 -81 100 -108 103
-189 162 -433 316 -185 117 -268 185 -336 277 -19 25 -39 60 -45 78 -10 27 -9
34 10 54 27 28 108 40 386 57 219 13 1193 2 1213 -13 27 -22 132 15 132 46 0
8 -16 33 -35 56 -19 23 -35 50 -35 60 0 18 -46 35 -55 19 -3 -4 -31 1 -63 12
-149 52 -318 76 -737 105 -235 16 -261 16 -435 1 -102 -10 -214 -17 -250 -17
-114 0 -360 70 -360 103 0 16 32 46 80 75 45 26 325 127 407 146 34 8 75 23
90 34 60 42 161 85 358 152 235 80 316 118 406 190 81 65 86 74 65 117 -9 18
-16 44 -16 57 l0 23 -162 -3 c-129 -1 -190 -7 -295 -28 -222 -44 -459 -119
-758 -238 -238 -95 -287 -112 -425 -144 -169 -38 -325 -50 -487 -36 -76 7
-160 18 -188 26 l-50 13 28 12 c16 6 30 11 32 11 12 0 345 143 470 202 332
157 506 266 675 420 l73 67 -12 55 c-7 31 -20 65 -29 76 -101 125 -621 -82
-1438 -572 -133 -80 -241 -138 -256 -138 -49 0 -615 99 -802 140 -252 56 -364
92 -411 135 -20 19 -45 37 -56 40 -21 7 -24 32 -6 56 22 29 245 92 467 133 47
8 213 36 370 61 476 76 694 134 917 244 131 65 236 136 357 244 45 40 140 120
211 178 161 132 280 255 324 339 33 62 34 65 28 156 -5 80 -10 102 -38 155
-31 58 -117 153 -186 206 -18 14 -116 65 -219 114 -243 116 -360 193 -504 333
-188 183 -293 261 -565 422 -82 48 -171 105 -198 125 l-47 38 42 5 c24 3 111
12 193 21 493 52 979 180 1545 407 263 106 500 246 735 435 126 101 364 329
502 482 101 111 328 407 426 556 40 61 57 80 53 60 -125 -518 -151 -1060 -65
-1343 25 -80 96 -214 139 -262 18 -19 27 -27 20 -17 -7 9 -10 17 -8 17 3 0 43
-25 89 -55 171 -113 412 -161 1029 -206 451 -32 470 -33 734 -14 271 19 415
17 541 -10 110 -23 118 -29 72 -51 -41 -20 -43 -23 -24 -47 10 -14 18 -14 53
-5 34 9 53 8 105 -6 90 -25 320 -118 479 -193 230 -110 431 -199 535 -238 124
-46 312 -95 385 -99 30 -2 83 -9 117 -17 61 -13 62 -13 65 -48 2 -30 7 -37 28
-39 51 -8 174 54 178 89 1 8 5 31 8 51 5 28 1 46 -16 72 -82 134 -460 330
-1014 527 -140 50 -173 65 -155 70 96 28 461 151 584 196 326 121 639 263 813
371 42 26 99 58 125 71 114 55 208 178 193 251 -9 45 -55 100 -101 121 -162
74 -676 -86 -1330 -413 -73 -37 -114 -53 -105 -42 8 11 56 66 105 124 50 58
110 130 135 160 65 82 184 203 275 280 76 64 84 74 145 194 54 107 65 136 68
190 6 87 -5 103 -73 111 -67 9 -106 -5 -219 -76 -219 -139 -550 -418 -1035
-873 l-223 -210 -114 38 c-63 20 -114 39 -114 40 0 2 14 34 31 72 18 38 61
139 96 224 36 85 80 191 98 235 19 44 41 121 50 170 9 50 25 132 36 183 10 51
19 108 19 128 0 45 -23 100 -48 113 -32 17 -92 13 -127 -9 -111 -69 -302 -428
-489 -918 -22 -56 -32 -72 -45 -68 -53 17 -275 68 -386 90 -242 47 -310 55
-500 60 -119 3 -209 10 -240 19 -107 30 -209 104 -164 119 16 5 -5 45 -43 80
-32 30 -33 46 -14 140 25 118 65 191 296 548 48 74 101 169 118 210 16 41 50
125 76 185 84 204 97 320 50 450 -40 112 -41 105 27 155 85 63 378 365 475
490 101 130 244 343 354 526 46 76 124 201 172 278 49 76 100 166 114 200 28
66 55 121 281 566 218 431 289 627 323 890 6 47 18 125 27 173 14 75 14 101 4
165 -19 128 -101 273 -210 375 -28 26 -51 50 -51 52 0 3 14 5 30 5 17 0 30 3
30 8 -1 22 -136 101 -289 167 -216 95 -278 115 -466 153 -304 63 -465 66 -712
13 -355 -76 -560 -80 -928 -16 -304 53 -410 63 -501 45z m2941 -1516 c-15 -49
-44 -132 -67 -184 -59 -140 -200 -441 -204 -437 -2 2 28 75 66 162 69 155 185
443 210 518 24 75 20 29 -5 -59z m-3225 -9228 c92 -8 187 -23 215 -32 l50 -18
-35 -7 c-87 -19 -329 -31 -406 -21 -443 60 -615 88 -588 94 48 12 586 0 764
-16z"/>
</g>
</svg>
